<svg width="16" height="16" viewBox="0 0 16 16" fill="none" xmlns="http://www.w3.org/2000/svg">
<path d="M2 2.66016H12.75C13.0765 2.66004 13.3918 2.77923 13.6367 2.99512C13.8814 3.2109 14.0392 3.50838 14.0801 3.83203L14.8301 9.83203C14.8538 10.0207 14.8372 10.2128 14.7812 10.3945C14.7253 10.5762 14.6307 10.7441 14.5049 10.8867C14.3792 11.0291 14.2249 11.1436 14.0518 11.2217C13.8784 11.2999 13.6902 11.3399 13.5 11.3398H9.83984V12.5C9.83984 13.1206 9.59313 13.7155 9.1543 14.1543C8.71546 14.5931 8.12061 14.8398 7.5 14.8398L7.40723 14.8271C7.37705 14.8186 7.34823 14.8057 7.32129 14.7891C7.26756 14.7559 7.22358 14.7088 7.19531 14.6523L4.83398 9.92871L4.79004 9.83984H2C1.77722 9.83984 1.56378 9.75128 1.40625 9.59375C1.24872 9.43622 1.16016 9.22278 1.16016 9V3.5C1.16016 3.27722 1.24872 3.06378 1.40625 2.90625C1.56378 2.74872 1.77722 2.66016 2 2.66016ZM1.83984 9.16016H4.66016V3.33984H1.83984V9.16016Z" fill="#394765" stroke="white" stroke-width="0.32"/>
</svg>
