<svg width="16" height="16" viewBox="0 0 16 16" fill="none" xmlns="http://www.w3.org/2000/svg">
<path d="M7.5 1.16016C8.12061 1.16016 8.71546 1.40687 9.1543 1.8457C9.59313 2.28454 9.83984 2.87939 9.83984 3.5V4.66016H13.5C13.6901 4.66012 13.8785 4.70015 14.0518 4.77832C14.2249 4.85646 14.3792 4.97089 14.5049 5.11328C14.6308 5.25586 14.7252 5.42372 14.7812 5.60547C14.8373 5.7872 14.8538 5.97929 14.8301 6.16797L14.0801 12.168C14.0392 12.4916 13.8814 12.7891 13.6367 13.0049C13.3918 13.2208 13.0765 13.34 12.75 13.3398H2C1.77722 13.3398 1.56378 13.2513 1.40625 13.0938C1.24872 12.9362 1.16016 12.7228 1.16016 12.5V7C1.16016 6.77722 1.24872 6.56378 1.40625 6.40625C1.56378 6.24872 1.77722 6.16016 2 6.16016H4.79004L4.83398 6.07129L7.19531 1.34766C7.22358 1.29119 7.26756 1.24411 7.32129 1.21094C7.34823 1.19432 7.37705 1.18137 7.40723 1.17285L7.5 1.16016ZM1.83984 12.6602H4.66016V6.83984H1.83984V12.6602Z" fill="#394765" stroke="white" stroke-width="0.32"/>
</svg>
