<svg width="57" height="120" viewBox="0 0 57 120" fill="none" xmlns="http://www.w3.org/2000/svg">
<rect width="57" height="120" rx="10" fill="#FAFBFD"/>
<rect x="4" y="4" width="49" height="54" rx="8" fill="white"/>
<path opacity="0.2" d="M22.5 18.6602H25.3398V24.8398H22.5C22.4098 24.8398 22.3235 24.804 22.2598 24.7402C22.196 24.6765 22.1602 24.5902 22.1602 24.5V19C22.1602 18.9098 22.196 18.8235 22.2598 18.7598C22.3235 18.696 22.4098 18.6602 22.5 18.6602Z" fill="#394765" stroke="white" stroke-width="0.32"/>
<path d="M35.125 17.0075C34.9842 16.848 34.8111 16.7202 34.6171 16.6327C34.4231 16.5452 34.2128 16.5 34 16.5H30.5V15.5C30.5 14.837 30.2366 14.2011 29.7678 13.7322C29.2989 13.2634 28.663 13 28 13C27.9071 12.9999 27.816 13.0257 27.737 13.0745C27.658 13.1233 27.5941 13.1932 27.5525 13.2763L25.1912 18H22.5C22.2348 18 21.9804 18.1054 21.7929 18.2929C21.6054 18.4804 21.5 18.7348 21.5 19V24.5C21.5 24.7652 21.6054 25.0196 21.7929 25.2071C21.9804 25.3946 22.2348 25.5 22.5 25.5H33.25C33.6154 25.5001 33.9684 25.3668 34.2425 25.1252C34.5166 24.8835 34.6931 24.5501 34.7388 24.1875L35.4888 18.1875C35.5153 17.9763 35.4966 17.7618 35.4339 17.5583C35.3712 17.3549 35.2659 17.1671 35.125 17.0075ZM22.5 19H25V24.5H22.5V19ZM34.4963 18.0625L33.7463 24.0625C33.731 24.1834 33.6722 24.2945 33.5808 24.3751C33.4895 24.4556 33.3718 24.5 33.25 24.5H26V18.6181L28.2944 14.0288C28.6344 14.0968 28.9404 14.2806 29.1602 14.5488C29.38 14.8171 29.5001 15.1532 29.5 15.5V17C29.5 17.1326 29.5527 17.2598 29.6464 17.3536C29.7402 17.4473 29.8674 17.5 30 17.5H34C34.071 17.5 34.1411 17.5151 34.2058 17.5442C34.2704 17.5734 34.3282 17.616 34.3751 17.6692C34.4221 17.7224 34.4571 17.785 34.478 17.8528C34.4989 17.9206 34.5051 17.9921 34.4963 18.0625Z" fill="#394765"/>
<path d="M20.977 46H20.041V39.071H18.338V38.369H18.637C19.456 38.369 19.898 38.07 20.21 37.29H20.977V46ZM28.5929 46H27.6569V44.063H22.5999V43.387L27.5009 37.29H28.5929V43.218H30.0229V44.063H28.5929V46ZM23.7959 43.218H27.6569V38.46H27.5919L23.7959 43.153V43.218ZM34.6174 46.13C32.2384 46.13 31.3154 44.908 31.3154 43.335V43.127H32.2384V43.296C32.2384 44.635 32.7324 45.272 34.6174 45.272C36.2294 45.272 36.8274 44.778 36.8274 43.582C36.8274 42.347 36.1904 41.853 34.7474 41.853H33.1744V41.06H34.5524C35.9694 41.06 36.5674 40.618 36.5674 39.552C36.5674 38.486 36.0344 38.018 34.5264 38.018C32.7844 38.018 32.2384 38.655 32.2384 39.994V40.111H31.3154V39.955C31.3154 38.382 32.3554 37.16 34.5394 37.16C36.3984 37.16 37.5034 37.966 37.5034 39.435C37.5034 40.423 36.9704 41.19 35.8784 41.385V41.437C37.0874 41.645 37.7634 42.451 37.7634 43.66C37.7634 45.272 36.5284 46.13 34.6174 46.13Z" fill="#192536"/>
<path d="M22.5 74.6602H33.25C33.5765 74.66 33.8918 74.7792 34.1367 74.9951C34.3814 75.2109 34.5392 75.5084 34.5801 75.832L35.3301 81.832C35.3538 82.0207 35.3372 82.2128 35.2812 82.3945C35.2253 82.5762 35.1307 82.7441 35.0049 82.8867C34.8792 83.0291 34.7249 83.1436 34.5518 83.2217C34.3784 83.2999 34.1902 83.3399 34 83.3398H30.3398V84.5C30.3398 85.1206 30.0931 85.7155 29.6543 86.1543C29.2155 86.5931 28.6206 86.8398 28 86.8398L27.9072 86.8271C27.8771 86.8186 27.8482 86.8057 27.8213 86.7891C27.7676 86.7559 27.7236 86.7088 27.6953 86.6523L25.334 81.9287L25.29 81.8398H22.5C22.2772 81.8398 22.0638 81.7513 21.9062 81.5938C21.7487 81.4362 21.6602 81.2228 21.6602 81V75.5C21.6602 75.2772 21.7487 75.0638 21.9062 74.9062C22.0638 74.7487 22.2772 74.6602 22.5 74.6602ZM22.3398 81.1602H25.1602V75.3398H22.3398V81.1602Z" fill="#394765" stroke="white" stroke-width="0.32"/>
<path d="M28.212 106.13C26.041 106.13 24.611 104.44 24.611 101.645C24.611 98.85 26.041 97.16 28.212 97.16C30.396 97.16 31.813 98.85 31.813 101.645C31.813 104.44 30.396 106.13 28.212 106.13ZM28.212 105.233C29.928 105.233 30.838 104.141 30.838 101.645C30.838 99.149 29.928 98.057 28.212 98.057C26.509 98.057 25.599 99.149 25.599 101.645C25.599 104.141 26.509 105.233 28.212 105.233Z" fill="#192536"/>
</svg>
