<svg width="30" height="30" viewBox="0 0 30 30" fill="none" xmlns="http://www.w3.org/2000/svg">
<path d="M14.7842 3.63885e-09C16.5464 -5.77794e-05 18.3322 0.688064 19.8955 1.58105C21.4965 2.4956 23.0674 3.74115 24.4473 5.12109C25.8271 6.50101 27.0728 8.0719 27.9873 9.67285C28.8801 11.236 29.5682 13.0214 29.5684 14.7832C29.5684 16.5453 28.8802 18.3312 27.9873 19.8945C27.0728 21.4955 25.8271 23.0664 24.4473 24.4463C23.0674 25.8262 21.4964 27.0717 19.8955 27.9863C18.3322 28.8793 16.5463 29.5682 14.7842 29.5684C13.137 29.5684 11.4186 28.9537 9.84961 28.085C8.2456 27.1968 6.62186 25.9461 5.12207 24.4463C3.62215 22.9464 2.37146 21.3218 1.4834 19.7178C0.614911 18.149 0.000331958 16.4317 0 14.7852C5.82123e-05 13.0229 0.687979 11.2363 1.58105 9.67285C2.49564 8.07181 3.74112 6.50107 5.12109 5.12109C6.50107 3.74112 8.07181 2.49564 9.67285 1.58105C11.2362 0.688014 13.022 0.00011151 14.7842 3.63885e-09ZM14.6484 3.62793C13.0746 3.6279 11.4687 3.81266 10.0342 4.2041C8.63338 4.58636 7.22272 5.21279 6.21777 6.21777C5.21286 7.22276 4.58637 8.63332 4.2041 10.0342C3.81266 11.4687 3.62796 13.0746 3.62793 14.6484C3.62793 16.2224 3.81262 17.829 4.2041 19.2637C4.56245 20.5768 5.13519 21.8986 6.0332 22.8867L6.21777 23.0801C7.15699 24.019 8.48688 24.6485 9.87695 25.0479C11.2982 25.4562 12.9377 25.6689 14.6484 25.6689C16.3591 25.6689 17.9987 25.4561 19.4199 25.0479C20.8099 24.6485 22.1398 24.0194 23.0791 23.0801C24.084 22.0751 24.7105 20.6645 25.0928 19.2637C25.4843 17.829 25.6689 16.2224 25.6689 14.6484C25.6689 13.0746 25.4842 11.4687 25.0928 10.0342C24.7105 8.63339 24.084 7.22268 23.0791 6.21777C22.0742 5.21295 20.6635 4.58637 19.2627 4.2041C17.8282 3.81264 16.2223 3.62796 14.6484 3.62793Z" fill="#4A00F8"/>
</svg>
