<svg width="13" height="13" viewBox="0 0 13 13" fill="none" xmlns="http://www.w3.org/2000/svg">
<path fill-rule="evenodd" clip-rule="evenodd" d="M13 6.49977C13 5.72504 12.6975 4.93997 12.3049 4.25263C11.9028 3.54874 11.3552 2.85823 10.7485 2.25152C10.1418 1.64481 9.45133 1.09719 8.74743 0.695093C8.06007 0.302458 7.27496 -2.54096e-05 6.50015 1.60095e-09C5.72536 2.54203e-05 4.94024 0.302533 4.25287 0.695186C3.54893 1.0973 2.8584 1.64494 2.25167 2.25167C1.64494 2.8584 1.0973 3.54894 0.695186 4.25287C0.302532 4.94024 2.55939e-05 5.72554 0 6.50033C0.000107731 7.22435 0.270324 7.9795 0.652234 8.66933C1.04268 9.37458 1.59238 10.0887 2.25184 10.7482C2.91126 11.4076 3.62532 11.9573 4.33057 12.3478C5.02039 12.7298 5.77563 13 6.49985 13C7.27465 13 8.05978 12.6974 8.74716 12.3048C9.45111 11.9027 10.1417 11.355 10.7484 10.7483C11.3551 10.1415 11.9028 9.45098 12.3049 8.74706C12.6975 8.0597 13 7.27456 13 6.49977ZM10.1615 2.83846C9.72502 2.40206 9.11238 2.1302 8.50401 1.96418C7.88099 1.79416 7.18355 1.71365 6.50001 1.71364C5.81648 1.71362 5.11902 1.7941 4.49598 1.96412C3.8876 2.13014 3.27493 2.40202 2.83848 2.8385C2.40204 3.27497 2.13017 3.88766 1.96415 4.49606C1.79413 5.11912 1.71363 5.81661 1.71363 6.50019C1.71363 7.18376 1.79413 7.88125 1.96415 8.50431C2.13017 9.11271 2.40204 9.7254 2.83848 10.1619L2.83858 10.162C3.2465 10.5698 3.82411 10.8429 4.42785 11.0164C5.04508 11.1937 5.75702 11.2864 6.5 11.2864C7.24293 11.2864 7.95486 11.1938 8.57211 11.0165C9.17586 10.843 9.75355 10.5699 10.1615 10.1619C10.598 9.72539 10.8698 9.11269 11.0358 8.50428C11.2059 7.8812 11.2864 7.1837 11.2864 6.50011C11.2864 5.81653 11.2059 5.11903 11.0358 4.49598C10.8698 3.88759 10.5979 3.27489 10.1615 2.83846Z" fill="#4A00F8"/>
</svg>
