<svg width="16" height="16" viewBox="0 0 16 16" fill="none" xmlns="http://www.w3.org/2000/svg">
<path d="M7.13794 9.53381C7.13794 10.4309 8.54681 11.1586 10.2851 11.1586C10.7019 11.1586 11.0997 11.1168 11.4638 11.0408" stroke="#250B64" stroke-linecap="round" stroke-linejoin="round"/>
<path d="M5.71545 8.09104C3.97711 8.09104 2.56763 7.36391 2.56763 6.46619" stroke="#250B64" stroke-linecap="round" stroke-linejoin="round"/>
<path d="M2.56763 3.625V9.30827C2.56763 10.206 3.97711 10.9331 5.71545 10.9331" stroke="#250B64" stroke-linecap="round" stroke-linejoin="round"/>
<path d="M5.71545 5.24966C3.97711 5.24966 2.56763 4.52254 2.56763 3.62483C2.56763 2.72777 3.97711 2 5.71545 2C7.45379 2 8.86325 2.72777 8.86325 3.62483" stroke="#250B64" stroke-linecap="round" stroke-linejoin="round"/>
<path d="M10.2851 14.0008C8.54681 14.0008 7.13794 13.2737 7.13794 12.376V6.69275" stroke="#250B64" stroke-linecap="round" stroke-linejoin="round"/>
<path d="M13.4328 6.69275V12.376C13.4328 12.9601 12.836 13.472 11.9402 13.7583" stroke="#250B64" stroke-linecap="round" stroke-linejoin="round"/>
<path d="M10.2851 5.06775C8.54681 5.06775 7.13794 5.79552 7.13794 6.69258C7.13794 7.58964 8.54681 8.31744 10.2851 8.31744C12.0235 8.31744 13.4329 7.58964 13.4329 6.69258C13.4329 6.19077 12.9919 5.74194 12.2989 5.44384" stroke="#250B64" stroke-linecap="round" stroke-linejoin="round"/>
</svg>
