<svg width="52" height="52" viewBox="0 0 52 52" fill="none" xmlns="http://www.w3.org/2000/svg">
<g clip-path="url(#clip0_10265_64829)">
<path fill-rule="evenodd" clip-rule="evenodd" d="M29.4295 6.93847C30.0001 7.12937 30.447 7.57874 30.6348 8.15039C30.8226 8.72214 30.7292 9.34891 30.383 9.84106C30.208 10.0865 30.0471 10.3424 29.9001 10.6072C29.5339 11.2603 28.8189 11.6383 28.073 11.5733C27.3513 11.5123 26.6234 11.4824 25.9007 11.4824C23.8417 11.4824 21.7407 11.7248 19.8639 12.237C18.0313 12.7371 16.1856 13.5561 14.8709 14.871C13.5562 16.1857 12.7372 18.0313 12.237 19.8641C11.7249 21.741 11.4824 23.8421 11.4824 25.9013C11.4824 27.9605 11.7249 30.0615 12.237 31.9384C12.7372 33.7712 13.5562 35.6168 14.8709 36.9316L14.8712 36.9319C16.0999 38.1604 17.84 38.9833 19.6586 39.5058C21.5179 40.04 23.6626 40.319 25.9007 40.319C28.1387 40.319 30.2833 40.0401 32.1426 39.5061C33.9614 38.9836 35.7016 38.1606 36.9305 36.9316C38.2453 35.6168 39.0642 33.7711 39.5643 31.9383C40.0765 30.0615 40.319 27.9603 40.319 25.901C40.319 25.1782 40.2892 24.4501 40.2282 23.7285C40.1632 22.9825 40.5412 22.2677 41.1943 21.9014C41.459 21.7544 41.7149 21.5935 41.9609 21.4195C42.4528 21.0735 43.0792 20.9802 43.6504 21.1678C44.2218 21.3555 44.6709 21.8021 44.8617 22.3724C45.2472 23.5278 45.481 24.7179 45.4811 25.9C45.4812 28.234 44.5699 30.5991 43.3872 32.6697C42.1759 34.7901 40.5262 36.8703 38.6985 38.6981C36.8707 40.5258 34.7905 42.1756 32.67 43.3869C30.5993 44.5697 28.2342 45.481 25.9002 45.4811C23.7187 45.4812 21.4436 44.6671 19.3656 43.5165C17.2411 42.3402 15.0901 40.6842 13.1036 38.6978C11.1171 36.7112 9.4612 34.56 8.28511 32.4356C7.13466 30.3575 6.32061 28.0828 6.32031 25.9017C6.32041 23.5678 7.23168 21.2021 8.41444 19.1315C9.62578 17.011 11.2754 14.9309 13.1032 13.1032C14.9309 11.2754 17.011 9.62578 19.1315 8.41444C21.2021 7.23168 23.5672 6.32041 25.9012 6.32031C27.0835 6.32031 28.2736 6.554 29.4295 6.93847Z" fill="#4A00F8"/>
<path d="M27.884 16.8755C27.5996 16.0203 26.7988 15.4453 25.8997 15.4453C25.0007 15.4453 24.1999 16.0203 23.9155 16.8755L22.4874 21.1639C22.2783 21.7891 21.7891 22.2783 21.1639 22.4874L16.8755 23.9155C16.0203 24.1999 15.4453 25.0007 15.4453 25.8997C15.4453 26.7988 16.0203 27.5996 16.8755 27.884L21.1639 29.3142C21.7891 29.5212 22.2783 30.0104 22.4874 30.6356L23.9155 34.924C24.1999 35.7792 25.0007 36.3542 25.8997 36.3542C26.7988 36.3542 27.5996 35.7792 27.884 34.924L29.3121 30.6356C29.5212 30.0104 30.0104 29.5212 30.6356 29.3142L34.924 27.884C35.7792 27.5996 36.3542 26.7988 36.3542 25.8997C36.3542 25.0007 35.7792 24.1999 34.924 23.9155L30.6356 22.4874C30.0104 22.2783 29.5212 21.7891 29.3121 21.1639L27.884 16.8755Z" fill="#4A00F8"/>
<path d="M38.5123 10.2593C38.3838 9.61948 37.8233 9.16016 37.1713 9.16016C36.5192 9.16016 35.9587 9.61948 35.8302 10.2593L35.5048 11.8888C35.3969 12.4301 34.9731 12.8539 34.4317 12.9619L32.8022 13.2872C32.1624 13.4157 31.7031 13.9762 31.7031 14.6283C31.7031 15.2804 32.1624 15.8409 32.8022 15.9694L34.4317 16.2947C34.9731 16.4027 35.3969 16.8265 35.5048 17.3678L35.8302 18.9973C35.9587 19.6371 36.5192 20.0964 37.1713 20.0964C37.8233 20.0964 38.3838 19.6371 38.5123 18.9973L38.8377 17.3678C38.9457 16.8265 39.3695 16.4027 39.9108 16.2947L41.5403 15.9694C42.1801 15.8409 42.6394 15.2804 42.6394 14.6283C42.6394 13.9762 42.1801 13.4157 41.5403 13.2872L39.9108 12.9619C39.3695 12.8539 38.9457 12.4301 38.8377 11.8888L38.5123 10.2593Z" fill="#4A00F8"/>
</g>
<defs>
<clipPath id="clip0_10265_64829">
<rect width="51.8" height="51.8" rx="17" fill="white"/>
</clipPath>
</defs>
</svg>
