<svg width="15" height="15" viewBox="0 0 15 15" fill="none" xmlns="http://www.w3.org/2000/svg">
<path d="M9.14369 6.81152L8.57875 7.64221M6.58175 6.81152L6.01685 7.64221M9.14369 9.66146L8.57875 10.4921M6.58175 9.66146L6.01685 10.4921" stroke="#0B3364" stroke-width="0.8125" stroke-linecap="round" stroke-linejoin="round"/>
<path d="M5.45654 2.91121C5.52891 2.26419 6.07559 1.875 6.72687 1.875H8.27331C8.92456 1.875 9.47125 2.26419 9.54362 2.91121L9.70112 4.17972" stroke="#0B3364" stroke-width="0.8125" stroke-linecap="round" stroke-linejoin="round"/>
<path d="M7.5 13.1249H4.49169C3.63061 13.1249 2.96047 12.3764 3.05595 11.5208L3.72851 5.46462C3.81 4.73306 4.42844 4.17969 5.16486 4.17969H9.83512C10.5716 4.17969 11.19 4.73306 11.2709 5.46462L11.9441 11.5208C12.0395 12.3764 11.3694 13.1249 10.5083 13.1249H9.75625" stroke="#0B3364" stroke-width="0.8125" stroke-linecap="round" stroke-linejoin="round"/>
</svg>
