<svg width="17" height="17" viewBox="0 0 17 17" fill="none" xmlns="http://www.w3.org/2000/svg">
<path d="M7.8041 5.36909C7.6577 4.92883 7.24543 4.63281 6.78256 4.63281C6.3197 4.63281 5.90742 4.92883 5.76103 5.36909L5.02582 7.57686C4.91818 7.89871 4.66629 8.1506 4.34444 8.25824L2.13667 8.99345C1.69641 9.13984 1.40039 9.55212 1.40039 10.015C1.40039 10.4779 1.69641 10.8901 2.13667 11.0365L4.34444 11.7728C4.66629 11.8794 4.91818 12.1313 5.02582 12.4531L5.76103 14.6609C5.90742 15.1011 6.3197 15.3972 6.78256 15.3972C7.24543 15.3972 7.6577 15.1011 7.8041 14.6609L8.5393 12.4531C8.64695 12.1313 8.89883 11.8794 9.22069 11.7728L11.4285 11.0365C11.8687 10.8901 12.1647 10.4779 12.1647 10.015C12.1647 9.55212 11.8687 9.13984 11.4285 8.99345L9.22069 8.25824C8.89883 8.1506 8.64695 7.89871 8.5393 7.57686L7.8041 5.36909Z" fill="#4A00F8"/>
<path d="M13.2751 1.96428C13.2089 1.63491 12.9204 1.39844 12.5846 1.39844C12.2489 1.39844 11.9604 1.63491 11.8942 1.96428L11.7267 2.80318C11.6711 3.08188 11.453 3.30005 11.1743 3.35565L10.3354 3.52315C10.006 3.5893 9.76953 3.87785 9.76953 4.21356C9.76953 4.54926 10.006 4.83781 10.3354 4.90396L11.1743 5.07146C11.453 5.12706 11.6711 5.34523 11.7267 5.62393L11.8942 6.46283C11.9604 6.7922 12.2489 7.02867 12.5846 7.02867C12.9204 7.02867 13.2089 6.7922 13.2751 6.46283L13.4426 5.62393C13.4982 5.34523 13.7163 5.12706 13.995 5.07146L14.8339 4.90396C15.1633 4.83781 15.3998 4.54926 15.3998 4.21356C15.3998 3.87785 15.1633 3.5893 14.8339 3.52315L13.995 3.35565C13.7163 3.30005 13.4982 3.08188 13.4426 2.80318L13.2751 1.96428Z" fill="#A47FFB"/>
</svg>
