<svg width="77" height="45" viewBox="0 0 77 45" fill="none" xmlns="http://www.w3.org/2000/svg">
<path fill-rule="evenodd" clip-rule="evenodd" d="M11.9441 3.05749C12.1991 3.1428 12.3988 3.34361 12.4827 3.59907C12.5667 3.85457 12.5249 4.13466 12.3702 4.35459C12.292 4.46427 12.2201 4.57863 12.1544 4.69697C11.9907 4.98883 11.6712 5.15775 11.3379 5.1287C11.0154 5.10144 10.6902 5.08806 10.3672 5.08806C9.44708 5.08806 8.50816 5.19638 7.66947 5.42528C6.85052 5.64876 6.02574 6.01472 5.43822 6.60233C4.85071 7.18985 4.48474 8.01462 4.26122 8.83362C4.03236 9.67236 3.92399 10.6113 3.92399 11.5315C3.92399 12.4517 4.03236 13.3906 4.26122 14.2294C4.48474 15.0484 4.85071 15.8731 5.43822 16.4607L5.43836 16.4608C5.98746 17.0098 6.76503 17.3775 7.57773 17.611C8.40863 17.8498 9.36702 17.9744 10.3672 17.9744C11.3673 17.9744 12.3257 17.8498 13.1566 17.6111C13.9693 17.3776 14.747 17.0099 15.2961 16.4607C15.8837 15.8731 16.2496 15.0483 16.4731 14.2293C16.702 13.3906 16.8104 12.4516 16.8104 11.5314C16.8104 11.2084 16.797 10.883 16.7698 10.5605C16.7407 10.2272 16.9096 9.90773 17.2015 9.74406C17.3198 9.67835 17.4342 9.60647 17.5441 9.52872C17.7639 9.37407 18.0438 9.33237 18.2991 9.41624C18.5544 9.50011 18.7551 9.6997 18.8404 9.95454C19.0127 10.4708 19.1171 11.0027 19.1172 11.5309C19.1172 12.5739 18.71 13.6309 18.1815 14.5561C17.6402 15.5037 16.903 16.4333 16.0862 17.2501C15.2694 18.0668 14.3398 18.8041 13.3922 19.3454C12.4669 19.874 11.41 20.2812 10.367 20.2812C9.39209 20.2813 8.37542 19.9175 7.44679 19.4033C6.49741 18.8777 5.53618 18.1376 4.64849 17.2499C3.76076 16.3622 3.02077 15.4009 2.49521 14.4515C1.9811 13.5229 1.61732 12.5063 1.61719 11.5317C1.61723 10.4887 2.02446 9.43156 2.553 8.50624C3.09432 7.55866 3.83151 6.62911 4.64827 5.81234C5.46504 4.99557 6.3946 4.25838 7.34218 3.71706C8.26749 3.18852 9.32441 2.78129 10.3674 2.78125C10.8957 2.78125 11.4276 2.88568 11.9441 3.05749Z" fill="white"/>
<path d="M11.1976 7.75475C11.0786 7.39688 10.7434 7.15625 10.3672 7.15625C9.99094 7.15625 9.65581 7.39688 9.53681 7.75475L8.93919 9.54938C8.85169 9.811 8.64694 10.0157 8.38531 10.1033L6.59069 10.7009C6.23281 10.8199 5.99219 11.155 5.99219 11.5312C5.99219 11.9075 6.23281 12.2426 6.59069 12.3616L8.38531 12.9601C8.64694 13.0468 8.85169 13.2515 8.93919 13.5131L9.53681 15.3077C9.65581 15.6656 9.99094 15.9062 10.3672 15.9062C10.7434 15.9062 11.0786 15.6656 11.1976 15.3077L11.7952 13.5131C11.8827 13.2515 12.0874 13.0468 12.3491 12.9601L14.1437 12.3616C14.5016 12.2426 14.7422 11.9075 14.7422 11.5312C14.7422 11.155 14.5016 10.8199 14.1437 10.7009L12.3491 10.1033C12.0874 10.0157 11.8827 9.811 11.7952 9.54938L11.1976 7.75475Z" fill="white"/>
<path d="M16.261 4.18388C16.1993 3.87675 15.9302 3.65625 15.6172 3.65625C15.3042 3.65625 15.0351 3.87675 14.9734 4.18388L14.8172 4.96613C14.7654 5.226 14.5619 5.42944 14.3021 5.48128L13.5198 5.63747C13.2127 5.69916 12.9922 5.96822 12.9922 6.28125C12.9922 6.59428 13.2127 6.86334 13.5198 6.92503L14.3021 7.08122C14.5619 7.13306 14.7654 7.3365 14.8172 7.59638L14.9734 8.37862C15.0351 8.68575 15.3042 8.90625 15.6172 8.90625C15.9302 8.90625 16.1993 8.68575 16.261 8.37862L16.4172 7.59638C16.469 7.3365 16.6724 7.13306 16.9323 7.08122L17.7146 6.92503C18.0217 6.86334 18.2422 6.59428 18.2422 6.28125C18.2422 5.96822 18.0217 5.69916 17.7146 5.63747L16.9323 5.48128C16.6724 5.42944 16.469 5.226 16.4172 4.96613L16.261 4.18388Z" fill="white"/>
<g filter="url(#filter0_dd_9906_157636)">
<path d="M32.4131 5.33984C33.3927 5.33984 34.3923 5.46347 35.2852 5.72461C36.128 5.97105 36.9763 6.36958 37.5967 7.00098V5.6543H39.8906V19.7373H37.5967V18.3779C37.0168 18.9675 36.2181 19.3673 35.3838 19.624C34.4995 19.8963 33.4787 20.039 32.4141 20.0391C31.2631 20.0391 30.16 19.8964 29.2041 19.624C28.269 19.3579 27.3738 18.9382 26.7422 18.3115C26.0661 17.6412 25.6448 16.7007 25.3877 15.7666C25.1243 14.8102 25 13.739 25 12.6895C25 11.6399 25.1243 10.5692 25.3877 9.6123C25.6448 8.67819 26.0661 7.73773 26.7422 7.06738C27.4184 6.39747 28.3672 5.97956 29.3096 5.72461C30.2743 5.46347 31.3544 5.33987 32.4131 5.33984ZM45.7354 7.00098C46.3562 6.36943 47.2043 5.97011 48.0469 5.72363C48.9396 5.46253 49.9389 5.33987 50.918 5.33984C51.9766 5.33984 53.0577 5.46251 54.0225 5.72363C54.9648 5.97857 55.9137 6.39656 56.5898 7.06641C57.2655 7.73628 57.6872 8.67716 57.9443 9.61133C58.2078 10.5677 58.332 11.6394 58.332 12.6885C58.332 13.7375 58.2077 14.8088 57.9443 15.7656C57.6872 16.6999 57.266 17.6412 56.5898 18.3115C55.9577 18.9377 55.0631 19.3579 54.1279 19.624C53.1716 19.8963 52.0685 20.0381 50.918 20.0381C49.8534 20.0381 48.833 19.8963 47.9482 19.624C47.1145 19.3673 46.3157 18.9674 45.7354 18.3779V19.7363H43.4414V0.0625H45.7354V7.00098ZM63.5244 19.7305H61.2305V5.64844H63.5244V19.7305ZM32.4775 7.61426C31.5785 7.61426 30.7134 7.71979 29.9775 7.91895C29.2803 8.10747 28.7299 8.37629 28.4277 8.67578C28.1256 8.9753 27.8542 9.52105 27.6641 10.2119C27.4631 10.9415 27.3574 11.7991 27.3574 12.6904C27.3574 13.5817 27.4631 14.4389 27.6641 15.1689C27.8542 15.8598 28.1256 16.4055 28.4277 16.7051C28.715 16.9903 29.2383 17.2509 29.9004 17.4395C30.6493 17.6525 31.5402 17.7656 32.4766 17.7656C33.4129 17.7656 34.3038 17.6529 35.0527 17.4395C35.7153 17.251 36.2386 16.9898 36.5264 16.7051L36.5303 16.7002C36.793 16.4374 37.0323 15.9886 37.2148 15.4199L37.29 15.1689C37.491 14.4393 37.5977 13.5818 37.5977 12.6904C37.5976 11.799 37.491 10.942 37.29 10.2119C37.0999 9.52107 36.8285 8.9753 36.5264 8.67578C36.2242 8.37639 35.6742 8.10742 34.9775 7.91895C34.2412 7.71973 33.3766 7.61428 32.4775 7.61426ZM50.8545 7.61328C49.955 7.61328 49.0904 7.71782 48.3545 7.91699C47.6572 8.10551 47.1068 8.37435 46.8047 8.67383C46.5026 8.97334 46.2312 9.51914 46.041 10.21C45.8401 10.94 45.7344 11.7972 45.7344 12.6885C45.7344 13.5797 45.8401 14.437 46.041 15.167C46.2303 15.8547 46.5005 16.3988 46.8008 16.6992L46.8047 16.7031C47.0924 16.9879 47.6161 17.249 48.2783 17.4375C49.0274 17.651 49.918 17.7646 50.8545 17.7646C51.791 17.7646 52.6816 17.652 53.4307 17.4385C54.0927 17.25 54.616 16.9888 54.9033 16.7041C55.2054 16.4046 55.4768 15.8588 55.667 15.168V15.167C55.8679 14.4374 55.9746 13.5802 55.9746 12.6885C55.9746 11.7967 55.8679 10.9395 55.667 10.21C55.4768 9.5188 55.2064 8.97331 54.9043 8.67383C54.6022 8.37432 54.0513 8.10552 53.3545 7.91699C52.6181 7.7178 51.7536 7.61329 50.8545 7.61328ZM62.3779 0C62.6284 1.19099e-06 62.8839 0.0293124 63.1123 0.0908203C63.3353 0.150996 63.5597 0.250008 63.7197 0.408203C63.8797 0.566875 63.9789 0.789695 64.04 1.01074C64.1025 1.23709 64.1318 1.49012 64.1318 1.73828C64.1318 1.98643 64.102 2.23947 64.04 2.46582C63.9794 2.68686 63.8797 2.90969 63.7197 3.06836C63.5705 3.21628 63.3588 3.31606 63.1377 3.37891C62.9116 3.44309 62.6504 3.47656 62.3779 3.47656C62.1055 3.47656 61.8443 3.44354 61.6182 3.37891C61.3971 3.31606 61.1853 3.21628 61.0361 3.06836C60.8761 2.90969 60.777 2.68686 60.7158 2.46582C60.6534 2.23947 60.624 1.98644 60.624 1.73828C60.624 1.49012 60.6538 1.2371 60.7158 1.01074C60.7765 0.78969 60.8761 0.566876 61.0361 0.408203C61.1961 0.249585 61.4206 0.151444 61.6436 0.0908203C61.872 0.0297568 62.1275 0 62.3779 0Z" fill="white"/>
</g>
<defs>
<filter id="filter0_dd_9906_157636" x="13" y="0" width="63.1318" height="44.0391" filterUnits="userSpaceOnUse" color-interpolation-filters="sRGB">
<feFlood flood-opacity="0" result="BackgroundImageFix"/>
<feColorMatrix in="SourceAlpha" type="matrix" values="0 0 0 0 0 0 0 0 0 0 0 0 0 0 0 0 0 0 127 0" result="hardAlpha"/>
<feMorphology radius="2" operator="erode" in="SourceAlpha" result="effect1_dropShadow_9906_157636"/>
<feOffset dy="4"/>
<feGaussianBlur stdDeviation="3"/>
<feComposite in2="hardAlpha" operator="out"/>
<feColorMatrix type="matrix" values="0 0 0 0 0.0627451 0 0 0 0 0.0941176 0 0 0 0 0.156863 0 0 0 0.03 0"/>
<feBlend mode="normal" in2="BackgroundImageFix" result="effect1_dropShadow_9906_157636"/>
<feColorMatrix in="SourceAlpha" type="matrix" values="0 0 0 0 0 0 0 0 0 0 0 0 0 0 0 0 0 0 127 0" result="hardAlpha"/>
<feMorphology radius="4" operator="erode" in="SourceAlpha" result="effect2_dropShadow_9906_157636"/>
<feOffset dy="12"/>
<feGaussianBlur stdDeviation="8"/>
<feComposite in2="hardAlpha" operator="out"/>
<feColorMatrix type="matrix" values="0 0 0 0 0 0 0 0 0 0.0666667 0 0 0 0 0.215686 0 0 0 0.08 0"/>
<feBlend mode="normal" in2="effect1_dropShadow_9906_157636" result="effect2_dropShadow_9906_157636"/>
<feBlend mode="normal" in="SourceGraphic" in2="effect2_dropShadow_9906_157636" result="shape"/>
</filter>
</defs>
</svg>
