<svg width="65" height="23" viewBox="0 0 65 23" fill="none" xmlns="http://www.w3.org/2000/svg">
<path fill-rule="evenodd" clip-rule="evenodd" d="M12.0769 3.05505C12.3319 3.14036 12.5316 3.34117 12.6155 3.59663C12.6995 3.85213 12.6578 4.13221 12.503 4.35215C12.4248 4.46183 12.3529 4.57619 12.2872 4.69453C12.1236 4.98639 11.8041 5.15531 11.4707 5.12626C11.1482 5.099 10.823 5.08561 10.5 5.08561C9.57989 5.08561 8.64097 5.19394 7.80229 5.42284C6.98333 5.64631 6.15856 6.01228 5.57104 6.59989C4.98352 7.18741 4.61755 8.01218 4.39403 8.83118C4.16517 9.66991 4.05681 10.6089 4.05681 11.5291C4.05681 12.4493 4.16517 13.3882 4.39403 14.2269C4.61755 15.0459 4.98352 15.8707 5.57104 16.4583L5.57117 16.4584C6.12028 17.0074 6.89784 17.3751 7.71054 17.6086C8.54144 17.8473 9.49983 17.972 10.5 17.972C11.5001 17.972 12.4585 17.8474 13.2894 17.6087C14.1021 17.3752 14.8798 17.0074 15.429 16.4583C16.0165 15.8707 16.3824 15.0459 16.6059 14.2269C16.8348 13.3881 16.9432 12.4492 16.9432 11.5289C16.9432 11.2059 16.9298 10.8806 16.9026 10.5581C16.8735 10.2248 17.0425 9.90529 17.3343 9.74162C17.4526 9.67591 17.567 9.60403 17.6769 9.52628C17.8967 9.37163 18.1766 9.32993 18.4319 9.4138C18.6872 9.49767 18.8879 9.69726 18.9732 9.9521C19.1455 10.4684 19.25 11.0002 19.25 11.5285C19.25 12.5715 18.8428 13.6284 18.3143 14.5537C17.773 15.5013 17.0358 16.4309 16.219 17.2476C15.4022 18.0644 14.4726 18.8016 13.5251 19.343C12.5997 19.8715 11.5428 20.2788 10.4998 20.2788C9.5249 20.2789 8.50824 19.915 7.5796 19.4009C6.63022 18.8752 5.66899 18.1352 4.78131 17.2475C3.89357 16.3598 3.15359 15.3985 2.62802 14.4491C2.11391 13.5204 1.75013 12.5039 1.75 11.5292C1.75004 10.4863 2.15727 9.42911 2.68581 8.5038C3.22713 7.55622 3.96432 6.62666 4.78109 5.8099C5.59786 4.99313 6.52741 4.25594 7.47499 3.71462C8.40031 3.18608 9.45722 2.77885 10.5002 2.77881C11.0285 2.77881 11.5604 2.88324 12.0769 3.05505Z" fill="#001137"/>
<path d="M11.3304 7.75329C11.2114 7.39541 10.8762 7.15479 10.5 7.15479C10.1237 7.15479 9.78863 7.39541 9.66963 7.75329L9.072 9.54791C8.9845 9.80954 8.77975 10.0143 8.51812 10.1018L6.7235 10.6994C6.36563 10.8184 6.125 11.1535 6.125 11.5298C6.125 11.906 6.36563 12.2412 6.7235 12.3602L8.51812 12.9587C8.77975 13.0453 8.9845 13.25 9.072 13.5117L9.66963 15.3063C9.78863 15.6642 10.1237 15.9048 10.5 15.9048C10.8762 15.9048 11.2114 15.6642 11.3304 15.3063L11.928 13.5117C12.0155 13.25 12.2203 13.0453 12.4819 12.9587L14.2765 12.3602C14.6344 12.2412 14.875 11.906 14.875 11.5298C14.875 11.1535 14.6344 10.8184 14.2765 10.6994L12.4819 10.1018C12.2203 10.0143 12.0155 9.80954 11.928 9.54791L11.3304 7.75329Z" fill="#001137"/>
<path d="M16.3938 4.18192C16.3321 3.8748 16.063 3.6543 15.75 3.6543C15.437 3.6543 15.1679 3.8748 15.1062 4.18192L14.95 4.96417C14.8982 5.22405 14.6948 5.42748 14.4349 5.47933L13.6526 5.63552C13.3455 5.6972 13.125 5.96627 13.125 6.2793C13.125 6.59233 13.3455 6.86139 13.6526 6.92308L14.4349 7.07927C14.6948 7.13111 14.8982 7.33455 14.95 7.59442L15.1062 8.37667C15.1679 8.6838 15.437 8.9043 15.75 8.9043C16.063 8.9043 16.3321 8.6838 16.3938 8.37667L16.55 7.59442C16.6018 7.33455 16.8052 7.13111 17.0651 7.07927L17.8474 6.92308C18.1545 6.86139 18.375 6.59233 18.375 6.2793C18.375 5.96627 18.1545 5.6972 17.8474 5.63552L17.0651 5.47933C16.8052 5.42748 16.6018 5.22405 16.55 4.96417L16.3938 4.18192Z" fill="#001137"/>
<path d="M32.4131 5.33984C33.3927 5.33984 34.3923 5.46347 35.2852 5.72461C36.128 5.97105 36.9763 6.36958 37.5967 7.00098V5.6543H39.8906V19.7373H37.5967V18.3779C37.0168 18.9675 36.2181 19.3673 35.3838 19.624C34.4995 19.8963 33.4787 20.039 32.4141 20.0391C31.2631 20.0391 30.16 19.8964 29.2041 19.624C28.269 19.3579 27.3738 18.9382 26.7422 18.3115C26.0661 17.6412 25.6448 16.7007 25.3877 15.7666C25.1243 14.8102 25 13.739 25 12.6895C25 11.6399 25.1243 10.5692 25.3877 9.6123C25.6448 8.67819 26.0661 7.73773 26.7422 7.06738C27.4184 6.39747 28.3672 5.97956 29.3096 5.72461C30.2743 5.46347 31.3544 5.33987 32.4131 5.33984ZM45.7354 7.00098C46.3562 6.36943 47.2043 5.97011 48.0469 5.72363C48.9396 5.46253 49.9389 5.33987 50.918 5.33984C51.9766 5.33984 53.0577 5.46251 54.0225 5.72363C54.9648 5.97857 55.9137 6.39656 56.5898 7.06641C57.2655 7.73628 57.6872 8.67716 57.9443 9.61133C58.2078 10.5677 58.332 11.6394 58.332 12.6885C58.332 13.7375 58.2077 14.8088 57.9443 15.7656C57.6872 16.6999 57.266 17.6412 56.5898 18.3115C55.9577 18.9377 55.0631 19.3579 54.1279 19.624C53.1716 19.8963 52.0685 20.0381 50.918 20.0381C49.8534 20.0381 48.833 19.8963 47.9482 19.624C47.1145 19.3673 46.3157 18.9674 45.7354 18.3779V19.7363H43.4414V0.0625H45.7354V7.00098ZM63.5244 19.7305H61.2305V5.64844H63.5244V19.7305ZM32.4775 7.61426C31.5785 7.61426 30.7134 7.71979 29.9775 7.91895C29.2803 8.10747 28.7299 8.37629 28.4277 8.67578C28.1256 8.9753 27.8542 9.52105 27.6641 10.2119C27.4631 10.9415 27.3574 11.7991 27.3574 12.6904C27.3574 13.5817 27.4631 14.4389 27.6641 15.1689C27.8542 15.8598 28.1256 16.4055 28.4277 16.7051C28.715 16.9903 29.2383 17.2509 29.9004 17.4395C30.6493 17.6525 31.5402 17.7656 32.4766 17.7656C33.4129 17.7656 34.3038 17.6529 35.0527 17.4395C35.7153 17.251 36.2386 16.9898 36.5264 16.7051L36.5303 16.7002C36.793 16.4374 37.0323 15.9886 37.2148 15.4199L37.29 15.1689C37.491 14.4393 37.5977 13.5818 37.5977 12.6904C37.5976 11.799 37.491 10.942 37.29 10.2119C37.0999 9.52107 36.8285 8.9753 36.5264 8.67578C36.2242 8.37639 35.6742 8.10742 34.9775 7.91895C34.2412 7.71973 33.3766 7.61428 32.4775 7.61426ZM50.8545 7.61328C49.955 7.61328 49.0904 7.71782 48.3545 7.91699C47.6572 8.10551 47.1068 8.37435 46.8047 8.67383C46.5026 8.97334 46.2312 9.51914 46.041 10.21C45.8401 10.94 45.7344 11.7972 45.7344 12.6885C45.7344 13.5797 45.8401 14.437 46.041 15.167C46.2303 15.8547 46.5005 16.3988 46.8008 16.6992L46.8047 16.7031C47.0924 16.9879 47.6161 17.249 48.2783 17.4375C49.0274 17.651 49.918 17.7646 50.8545 17.7646C51.791 17.7646 52.6816 17.652 53.4307 17.4385C54.0927 17.25 54.616 16.9888 54.9033 16.7041C55.2054 16.4046 55.4768 15.8588 55.667 15.168V15.167C55.8679 14.4374 55.9746 13.5802 55.9746 12.6885C55.9746 11.7967 55.8679 10.9395 55.667 10.21C55.4768 9.5188 55.2064 8.97331 54.9043 8.67383C54.6022 8.37432 54.0513 8.10552 53.3545 7.91699C52.6181 7.7178 51.7536 7.61329 50.8545 7.61328ZM62.3779 0C62.6284 1.19099e-06 62.8839 0.0293124 63.1123 0.0908203C63.3353 0.150996 63.5597 0.250008 63.7197 0.408203C63.8797 0.566875 63.9789 0.789695 64.04 1.01074C64.1025 1.23709 64.1318 1.49012 64.1318 1.73828C64.1318 1.98643 64.102 2.23947 64.04 2.46582C63.9794 2.68686 63.8797 2.90969 63.7197 3.06836C63.5705 3.21628 63.3588 3.31606 63.1377 3.37891C62.9116 3.44309 62.6504 3.47656 62.3779 3.47656C62.1055 3.47656 61.8443 3.44354 61.6182 3.37891C61.3971 3.31606 61.1853 3.21628 61.0361 3.06836C60.8761 2.90969 60.777 2.68686 60.7158 2.46582C60.6534 2.23947 60.624 1.98644 60.624 1.73828C60.624 1.49012 60.6538 1.2371 60.7158 1.01074C60.7765 0.78969 60.8761 0.566876 61.0361 0.408203C61.1961 0.249585 61.4206 0.151444 61.6436 0.0908203C61.872 0.0297568 62.1275 0 62.3779 0Z" fill="#001137"/>
</svg>
