<svg width="114" height="34" viewBox="0 0 114 34" fill="none" xmlns="http://www.w3.org/2000/svg">
<g clip-path="url(#clip0_399_18316)">
<g clip-path="url(#clip1_399_18316)">
<path fill-rule="evenodd" clip-rule="evenodd" d="M20.6135 4.52017C20.9905 4.64628 21.2857 4.94313 21.4097 5.32077C21.5339 5.69846 21.4721 6.11251 21.2434 6.43762C21.1278 6.59976 21.0215 6.76881 20.9244 6.94375C20.6824 7.3752 20.2101 7.6249 19.7174 7.58196C19.2407 7.54166 18.7599 7.52188 18.2825 7.52188C16.9223 7.52188 15.5343 7.68201 14.2945 8.02038C13.0839 8.35074 11.8646 8.89173 10.9961 9.76037C10.1276 10.6289 9.58664 11.8481 9.25622 13.0588C8.91791 14.2987 8.75771 15.6867 8.75771 17.047C8.75771 18.4073 8.91791 19.7952 9.25622 21.0352C9.58664 22.2459 10.1276 23.465 10.9961 24.3336C11.8078 25.1452 12.9575 25.6889 14.1589 26.0341C15.3872 26.3871 16.8039 26.5713 18.2825 26.5713C19.7609 26.5713 21.1776 26.3871 22.4059 26.0342C23.6073 25.689 24.7569 25.1455 25.5687 24.3336C26.4373 23.465 26.9782 22.2457 27.3086 21.035C27.6469 19.7952 27.8072 18.4071 27.8072 17.0468C27.8072 16.5693 27.7874 16.0883 27.7472 15.6116C27.7041 15.1189 27.9538 14.6466 28.3853 14.4047C28.5602 14.3075 28.7293 14.2013 28.8918 14.0863C29.2167 13.8577 29.6305 13.7961 30.0079 13.9201C30.3853 14.044 30.682 14.3391 30.8081 14.7158C31.0628 15.479 31.2171 16.2653 31.2172 17.0461C31.2172 18.5879 30.6153 20.1504 29.834 21.5181C29.0338 22.9189 27.9441 24.2931 26.7366 25.5005C25.5292 26.7078 24.155 27.7978 22.7542 28.5979C21.3864 29.3794 19.824 29.9813 18.2822 29.9813C16.841 29.9815 15.3381 29.4437 13.9653 28.6835C12.5619 27.9066 11.1409 26.8125 9.82871 25.5003C8.51641 24.188 7.42251 22.7669 6.6456 21.3635C5.88561 19.9908 5.34785 18.488 5.34766 17.0473C5.34772 15.5054 5.94971 13.9427 6.73103 12.5748C7.53124 11.1741 8.621 9.79996 9.82838 8.59256C11.0358 7.38516 12.4099 6.2954 13.8107 5.49519C15.1785 4.71387 16.7409 4.11188 18.2827 4.11182C19.0637 4.11182 19.85 4.26619 20.6135 4.52017Z" fill="#4A00F8"/>
<path d="M19.5094 11.4636C19.3335 10.9346 18.838 10.5789 18.2819 10.5789C17.7256 10.5789 17.2302 10.9346 17.0543 11.4636L16.1709 14.1165C16.0415 14.5033 15.7389 14.8059 15.3521 14.9354L12.6992 15.8188C12.1702 15.9947 11.8145 16.4901 11.8145 17.0462C11.8145 17.6024 12.1702 18.0978 12.6992 18.2737L15.3521 19.1585C15.7389 19.2866 16.0415 19.5892 16.1709 19.9759L17.0543 22.6288C17.2302 23.1579 17.7256 23.5136 18.2819 23.5136C18.838 23.5136 19.3335 23.1579 19.5094 22.6288L20.3928 19.9759C20.5222 19.5892 20.8248 19.2866 21.2116 19.1585L23.8645 18.2737C24.3936 18.0978 24.7492 17.6024 24.7492 17.0462C24.7492 16.4901 24.3936 15.9947 23.8645 15.8188L21.2116 14.9354C20.8248 14.8059 20.5222 14.5033 20.3928 14.1165L19.5094 11.4636Z" fill="#4A00F8"/>
<path d="M26.9942 6.18452C26.903 5.7305 26.5052 5.40454 26.0425 5.40454C25.5798 5.40454 25.182 5.7305 25.0908 6.18452L24.8599 7.34088C24.7834 7.72504 24.4825 8.02578 24.0985 8.10241L22.942 8.3333C22.4881 8.42449 22.1621 8.82224 22.1621 9.28498C22.1621 9.74772 22.4881 10.1455 22.942 10.2367L24.0985 10.4675C24.4825 10.5442 24.7834 10.8449 24.8599 11.2291L25.0908 12.3854C25.182 12.8395 25.5798 13.1654 26.0425 13.1654C26.5052 13.1654 26.903 12.8395 26.9942 12.3854L27.2252 11.2291C27.3017 10.8449 27.6024 10.5442 27.9866 10.4675L29.143 10.2367C29.597 10.1455 29.923 9.74772 29.923 9.28498C29.923 8.82224 29.597 8.42449 29.143 8.3333L27.9866 8.10241C27.6024 8.02578 27.3017 7.72504 27.2252 7.34088L26.9942 6.18452Z" fill="#4A00F8"/>
<g filter="url(#filter0_dd_399_18316)">
<path d="M50.8716 7.89368C52.3197 7.89368 53.7974 8.07643 55.1173 8.46247C56.3632 8.82677 57.6172 9.4159 58.5343 10.3493V8.35853H61.9253V29.1769H58.5343V27.1673C57.677 28.0389 56.4964 28.6299 55.2631 29.0094C53.9558 29.4119 52.4468 29.6229 50.8731 29.623C49.1716 29.623 47.5409 29.4121 46.1278 29.0094C44.7455 28.616 43.4222 27.9956 42.4885 27.0692C41.4891 26.0783 40.8663 24.688 40.4862 23.3071C40.0968 21.8933 39.9131 20.3098 39.9131 18.7584C39.9131 17.2068 40.0968 15.624 40.4862 14.2095C40.8663 12.8286 41.4891 11.4384 42.4885 10.4474C43.4881 9.45713 44.8907 8.83935 46.2838 8.46247C47.7099 8.07643 49.3065 7.89372 50.8716 7.89368ZM70.5654 10.3493C71.4831 9.41568 72.7368 8.82538 73.9824 8.46102C75.3021 8.07504 76.7793 7.89372 78.2266 7.89368C79.7915 7.89368 81.3897 8.07501 82.8159 8.46102C84.2089 8.83788 85.6116 9.45578 86.6111 10.446C87.6099 11.4362 88.2333 12.8271 88.6134 14.2081C89.0029 15.6218 89.1865 17.2061 89.1865 18.7569C89.1865 20.3076 89.0027 21.8913 88.6134 23.3057C88.2333 24.6868 87.6107 26.0783 86.6111 27.0692C85.6766 27.9949 84.3542 28.616 82.9717 29.0094C81.5581 29.4119 79.9274 29.6215 78.2266 29.6215C76.6529 29.6215 75.1445 29.4119 73.8365 29.0094C72.6041 28.6299 71.4233 28.0388 70.5654 27.1673V29.1754H67.1743V0.0923913H70.5654V10.3493ZM96.8622 29.1668H93.4712V8.34987H96.8622V29.1668ZM50.9668 11.2559C49.6378 11.2559 48.359 11.4119 47.2711 11.7063C46.2405 11.985 45.4269 12.3823 44.9801 12.8251C44.5335 13.2678 44.1323 14.0746 43.8513 15.0958C43.5542 16.1744 43.3979 17.4421 43.3979 18.7597C43.3979 20.0773 43.5542 21.3445 43.8513 22.4236C44.1323 23.4449 44.5335 24.2516 44.9801 24.6945C45.4048 25.1161 46.1784 25.5013 47.1572 25.7801C48.2642 26.095 49.5812 26.2622 50.9655 26.2622C52.3495 26.2622 53.6665 26.0956 54.7736 25.7801C55.7531 25.5015 56.5267 25.1154 56.9521 24.6945L56.9579 24.6872C57.3462 24.2988 57.7 23.6353 57.9697 22.7946L58.0809 22.4236C58.378 21.345 58.5358 20.0774 58.5358 18.7597C58.5356 17.442 58.378 16.1751 58.0809 15.0958C57.7999 14.0746 57.3987 13.2678 56.9521 12.8251C56.5054 12.3825 55.6923 11.9849 54.6624 11.7063C53.574 11.4118 52.2959 11.2559 50.9668 11.2559ZM78.1328 11.2544C76.8031 11.2544 75.525 11.4089 74.4371 11.7034C73.4063 11.9821 72.5927 12.3795 72.1461 12.8222C71.6995 13.2649 71.2983 14.0718 71.0172 15.093C70.7202 16.1722 70.5639 17.4393 70.5639 18.7569C70.5639 20.0743 70.7202 21.3416 71.0172 22.4208C71.297 23.4374 71.6964 24.2417 72.1404 24.6858L72.1461 24.6915C72.5714 25.1125 73.3456 25.4985 74.3245 25.7772C75.4319 26.0928 76.7484 26.2607 78.1328 26.2607C79.5172 26.2607 80.8337 26.0943 81.9411 25.7786C82.9197 25.5 83.6933 25.1139 84.118 24.693C84.5645 24.2503 84.9657 23.4434 85.2469 22.4223V22.4208C85.5439 21.3422 85.7016 20.0751 85.7016 18.7569C85.7016 17.4386 85.5439 16.1714 85.2469 15.093C84.9657 14.0713 84.566 13.2649 84.1194 12.8222C83.6729 12.3794 82.8585 11.9821 81.8284 11.7034C80.7398 11.4089 79.4619 11.2544 78.1328 11.2544ZM95.1674 0C95.5377 1.76059e-06 95.9154 0.0433314 96.253 0.134256C96.5827 0.223211 96.9144 0.369577 97.1509 0.60343C97.3874 0.837989 97.5341 1.16738 97.6244 1.49414C97.7168 1.82874 97.7601 2.20279 97.7601 2.56963C97.7601 2.93646 97.716 3.31052 97.6244 3.64512C97.5348 3.97188 97.3874 4.30128 97.1509 4.53584C96.9303 4.7545 96.6174 4.902 96.2905 4.99491C95.9563 5.08978 95.5702 5.13926 95.1674 5.13926C94.7647 5.13926 94.3786 5.09045 94.0443 4.99491C93.7175 4.902 93.4044 4.7545 93.1838 4.53584C92.9473 4.30128 92.8008 3.97188 92.7104 3.64512C92.6181 3.31052 92.5746 2.93648 92.5746 2.56963C92.5746 2.20279 92.6187 1.82876 92.7104 1.49414C92.8001 1.16737 92.9473 0.83799 93.1838 0.60343C93.4204 0.368952 93.7522 0.223874 94.0819 0.134256C94.4195 0.0439883 94.7972 0 95.1674 0Z" fill="#333333"/>
</g>
</g>
</g>
<defs>
<filter id="filter0_dd_399_18316" x="16.2609" y="-5.91304" width="105.151" height="76.9274" filterUnits="userSpaceOnUse" color-interpolation-filters="sRGB">
<feFlood flood-opacity="0" result="BackgroundImageFix"/>
<feColorMatrix in="SourceAlpha" type="matrix" values="0 0 0 0 0 0 0 0 0 0 0 0 0 0 0 0 0 0 127 0" result="hardAlpha"/>
<feOffset dy="5.91304"/>
<feGaussianBlur stdDeviation="4.43478"/>
<feComposite in2="hardAlpha" operator="out"/>
<feColorMatrix type="matrix" values="0 0 0 0 0.0627451 0 0 0 0 0.0941176 0 0 0 0 0.156863 0 0 0 0.03 0"/>
<feBlend mode="normal" in2="BackgroundImageFix" result="effect1_dropShadow_399_18316"/>
<feColorMatrix in="SourceAlpha" type="matrix" values="0 0 0 0 0 0 0 0 0 0 0 0 0 0 0 0 0 0 127 0" result="hardAlpha"/>
<feOffset dy="17.7391"/>
<feGaussianBlur stdDeviation="11.8261"/>
<feComposite in2="hardAlpha" operator="out"/>
<feColorMatrix type="matrix" values="0 0 0 0 0 0 0 0 0 0.0666667 0 0 0 0 0.215686 0 0 0 0.08 0"/>
<feBlend mode="normal" in2="effect1_dropShadow_399_18316" result="effect2_dropShadow_399_18316"/>
<feBlend mode="normal" in="SourceGraphic" in2="effect2_dropShadow_399_18316" result="shape"/>
</filter>
<clipPath id="clip0_399_18316">
<rect width="113.826" height="34" fill="white"/>
</clipPath>
<clipPath id="clip1_399_18316">
<rect width="113.826" height="34" fill="white"/>
</clipPath>
</defs>
</svg>
