<svg width="50" height="53" viewBox="0 0 50 53" fill="none" xmlns="http://www.w3.org/2000/svg">
<mask id="path-1-outside-1_10221_57703" maskUnits="userSpaceOnUse" x="0" y="0" width="50" height="53" fill="black">
<rect fill="white" width="50" height="53"/>
<path d="M0 8.74286C0 3.91431 3.91431 0 8.74286 0H40.8C45.6285 0 49.5429 3.91431 49.5429 8.74286V42.2571C49.5429 47.0857 45.6285 51 40.8 51H8.74286C3.91431 51 0 47.0857 0 42.2571V8.74286Z"/>
</mask>
<path d="M0 8.74286C0 3.91431 3.91431 0 8.74286 0H40.8C45.6285 0 49.5429 3.91431 49.5429 8.74286V42.2571C49.5429 47.0857 45.6285 51 40.8 51H8.74286C3.91431 51 0 47.0857 0 42.2571V8.74286Z" fill="#4A01F7"/>
<path d="M0 0H49.5429H0ZM49.5429 42.2571C49.5429 47.8904 44.9762 52.4571 39.3429 52.4571H10.2C4.5667 52.4571 0 47.8904 0 42.2571V42.2571C0 46.2809 3.91431 49.5429 8.74286 49.5429H40.8C45.6285 49.5429 49.5429 46.2809 49.5429 42.2571V42.2571ZM0 51V0V51ZM49.5429 0V51V0Z" fill="#D7DCE0" mask="url(#path-1-outside-1_10221_57703)"/>
<path fill-rule="evenodd" clip-rule="evenodd" d="M27.2294 12.2919C27.6268 12.4249 27.9381 12.7379 28.0689 13.1361C28.1997 13.5343 28.1347 13.9709 27.8935 14.3137C27.7716 14.4846 27.6595 14.6629 27.5572 14.8474C27.3021 15.3023 26.804 15.5656 26.2845 15.5203C25.7818 15.4778 25.2748 15.4569 24.7714 15.4569C23.3372 15.4569 21.8738 15.6258 20.5665 15.9826C19.29 16.3309 18.0044 16.9013 17.0887 17.8172C16.1729 18.733 15.6025 20.0186 15.2541 21.2951C14.8973 22.6025 14.7284 24.066 14.7284 25.5003C14.7284 26.9346 14.8973 28.3981 15.2541 29.7055C15.6025 30.982 16.1729 32.2676 17.0887 33.1834L17.0889 33.1836C17.9447 34.0393 19.1567 34.6125 20.4235 34.9764C21.7186 35.3486 23.2125 35.5429 24.7714 35.5429C26.3302 35.5429 27.8241 35.3486 29.1192 34.9766C30.386 34.6127 31.5981 34.0395 32.4542 33.1834C33.3699 32.2676 33.9404 30.982 34.2887 29.7054C34.6455 28.3981 34.8144 26.9345 34.8144 25.5001C34.8144 24.9967 34.7936 24.4895 34.7511 23.9869C34.7058 23.4673 34.9691 22.9694 35.424 22.7142C35.6084 22.6118 35.7867 22.4998 35.9581 22.3786C36.3007 22.1375 36.737 22.0725 37.1349 22.2033C37.5328 22.334 37.8456 22.6451 37.9786 23.0423C38.2471 23.8471 38.4099 24.676 38.41 25.4995C38.4101 27.1252 37.7753 28.7726 36.9515 30.2148C36.1078 31.6918 34.9587 33.1408 33.6856 34.4138C32.4125 35.6869 30.9635 36.8361 29.4866 37.6798C28.0442 38.5037 26.3968 39.1385 24.7711 39.1385C23.2515 39.1386 21.6669 38.5715 20.2194 37.7701C18.7396 36.9508 17.2413 35.7973 15.8577 34.4136C14.474 33.0299 13.3206 31.5315 12.5014 30.0517C11.7 28.6043 11.133 27.0198 11.1328 25.5006C11.1329 23.875 11.7676 22.2271 12.5915 20.7849C13.4352 19.3079 14.5843 17.859 15.8574 16.5859C17.1305 15.3128 18.5794 14.1637 20.0563 13.32C21.4986 12.4961 23.146 11.8614 24.7718 11.8613C25.5953 11.8613 26.4242 12.0241 27.2294 12.2919Z" fill="white"/>
<path d="M26.1524 19.2149C25.9543 18.6193 25.3965 18.2188 24.7702 18.2188C24.144 18.2188 23.5862 18.6193 23.3881 19.2149L22.3934 22.202C22.2478 22.6374 21.907 22.9782 21.4715 23.1239L18.4845 24.1186C17.8888 24.3167 17.4883 24.8745 17.4883 25.5007C17.4883 26.127 17.8888 26.6848 18.4845 26.8828L21.4715 27.879C21.907 28.0232 22.2478 28.364 22.3934 28.7994L23.3881 31.7865C23.5862 32.3822 24.144 32.7827 24.7702 32.7827C25.3965 32.7827 25.9543 32.3822 26.1524 31.7865L27.1471 28.7994C27.2927 28.364 27.6335 28.0232 28.069 27.879L31.056 26.8828C31.6517 26.6848 32.0522 26.127 32.0522 25.5007C32.0522 24.8745 31.6517 24.3167 31.056 24.1186L28.069 23.1239C27.6335 22.9782 27.2927 22.6374 27.1471 22.202L26.1524 19.2149Z" fill="white"/>
<path d="M33.5583 14.6054C33.4688 14.1598 33.0784 13.8398 32.6242 13.8398C32.17 13.8398 31.7796 14.1598 31.6901 14.6054L31.4635 15.7404C31.3883 16.1175 31.0931 16.4127 30.716 16.4879L29.581 16.7145C29.1354 16.804 28.8154 17.1944 28.8154 17.6486C28.8154 18.1028 29.1354 18.4932 29.581 18.5827L30.716 18.8094C31.0931 18.8846 31.3883 19.1798 31.4635 19.5568L31.6901 20.6919C31.7796 21.1375 32.17 21.4574 32.6242 21.4574C33.0784 21.4574 33.4688 21.1375 33.5583 20.6919L33.785 19.5568C33.8602 19.1798 34.1554 18.8846 34.5324 18.8094L35.6675 18.5827C36.1131 18.4932 36.433 18.1028 36.433 17.6486C36.433 17.1944 36.1131 16.804 35.6675 16.7145L34.5324 16.4879C34.1554 16.4127 33.8602 16.1175 33.785 15.7404L33.5583 14.6054Z" fill="white"/>
</svg>
