<svg width="20" height="20" viewBox="0 0 20 20" fill="none" xmlns="http://www.w3.org/2000/svg">
<path d="M17.2731 10.786C17.6085 10.6183 17.8203 10.2755 17.8203 9.90048C17.8203 9.52549 17.6085 9.18269 17.2731 9.015L3.41305 2.085C3.0619 1.90942 2.64017 1.95794 2.33806 2.20867C2.03595 2.45939 1.91055 2.86496 2.0184 3.24245L3.43269 8.19244C3.55412 8.61745 3.94258 8.91047 4.38459 8.91047H8.91031C9.45707 8.91047 9.90031 9.35371 9.90031 9.90047C9.90031 10.4472 9.45707 10.8905 8.91031 10.8905H4.3846C3.94258 10.8905 3.55412 11.1835 3.43269 11.6085L2.0184 16.5585C1.91055 16.936 2.03595 17.3416 2.33806 17.5923C2.64017 17.843 3.0619 17.8915 3.41305 17.716L17.2731 10.786Z" fill="#EEF0F1"/>
</svg>
