<svg width="544" height="420" viewBox="0 0 544 420" fill="none" xmlns="http://www.w3.org/2000/svg">
<path d="M0 16C0 7.16344 7.16344 0 16 0H528C536.837 0 544 7.16344 544 16V404C544 412.837 536.837 420 528 420H16C7.16346 420 0 412.837 0 404V16Z" fill="white"/>
<path d="M30.7891 47.0547H26.9922L26.0781 50H24.6328L28.3047 38.625H29.5156L33.125 50H31.6875L30.7891 47.0547ZM27.3828 45.7969H30.4062L28.9062 40.8594L27.3828 45.7969ZM42.5759 46.5781C42.5082 47.1042 42.3728 47.5885 42.1697 48.0312C41.9666 48.4688 41.7035 48.8438 41.3806 49.1562C41.0525 49.474 40.6645 49.7214 40.2166 49.8984C39.7739 50.0703 39.2791 50.1562 38.7322 50.1562C38.2634 50.1562 37.8364 50.0911 37.4509 49.9609C37.0707 49.8255 36.7322 49.6406 36.4353 49.4062C36.1332 49.1719 35.8728 48.8958 35.6541 48.5781C35.4405 48.2604 35.2634 47.9141 35.1228 47.5391C34.977 47.1641 34.8676 46.7708 34.7947 46.3594C34.727 45.9479 34.6905 45.5312 34.6853 45.1094V43.5234C34.6905 43.1016 34.727 42.6849 34.7947 42.2734C34.8676 41.862 34.977 41.4688 35.1228 41.0938C35.2634 40.7188 35.4405 40.3724 35.6541 40.0547C35.8728 39.7318 36.1332 39.4531 36.4353 39.2188C36.7322 38.9844 37.0707 38.8021 37.4509 38.6719C37.8311 38.5365 38.2582 38.4688 38.7322 38.4688C39.2999 38.4688 39.8077 38.5573 40.2556 38.7344C40.7035 38.9062 41.089 39.151 41.4119 39.4688C41.7348 39.7917 41.9926 40.1771 42.1853 40.625C42.3832 41.0729 42.5134 41.5677 42.5759 42.1094H41.1306C41.0837 41.7656 41.003 41.4453 40.8884 41.1484C40.7739 40.8516 40.6202 40.5911 40.4275 40.3672C40.2348 40.1432 39.9978 39.9688 39.7166 39.8438C39.4405 39.7135 39.1124 39.6484 38.7322 39.6484C38.3884 39.6484 38.0837 39.7057 37.8181 39.8203C37.5577 39.9297 37.3337 40.0807 37.1462 40.2734C36.9535 40.4661 36.7921 40.6901 36.6619 40.9453C36.5369 41.2005 36.4353 41.4714 36.3572 41.7578C36.2791 42.0443 36.2218 42.3385 36.1853 42.6406C36.1541 42.9375 36.1384 43.2266 36.1384 43.5078V45.1094C36.1384 45.3906 36.1541 45.6823 36.1853 45.9844C36.2218 46.2812 36.2791 46.5729 36.3572 46.8594C36.4353 47.151 36.5369 47.4245 36.6619 47.6797C36.7869 47.9349 36.9457 48.1589 37.1384 48.3516C37.3311 48.5495 37.5577 48.7057 37.8181 48.8203C38.0785 48.9297 38.3832 48.9844 38.7322 48.9844C39.1124 48.9844 39.4405 48.9245 39.7166 48.8047C39.9978 48.6849 40.2348 48.5156 40.4275 48.2969C40.6202 48.0833 40.7739 47.8307 40.8884 47.5391C41.003 47.2422 41.0837 46.9219 41.1306 46.5781H42.5759ZM52.73 39.8594H49.2144V50H47.8081V39.8594H44.2925V38.625H52.73V39.8594ZM54.9075 38.625H61.7825V39.8828H59.0559V48.75H61.7825V50H54.9075V48.75H57.5716V39.8828H54.9075V38.625ZM67.5459 50L63.9522 38.625H65.4991L67.9991 47.1172L68.1631 47.6719L68.335 47.1016L70.8506 38.625H72.3897L68.8037 50H67.5459ZM74.6063 38.625H81.4813V39.8828H78.7547V48.75H81.4813V50H74.6063V48.75H77.2703V39.8828H74.6063V38.625ZM92.1275 39.8594H88.6119V50H87.2056V39.8594H83.69V38.625H92.1275V39.8594ZM97.6566 44.3359L100.25 38.625H101.891L98.3519 45.7578L98.3284 50H96.9847L96.9613 45.7578L93.4222 38.625H95.0706L97.6566 44.3359Z" fill="#1F1F21" fill-opacity="0.74"/>
<path d="M390 44C390 32.9543 398.954 24 410 24H454C465.046 24 474 32.9543 474 44C474 55.0457 465.046 64 454 64H410C398.954 64 390 55.0457 390 44Z" fill="#1F1F21" fill-opacity="0.04"/>
<path d="M407.211 49V38.92H410.319C410.422 38.92 410.602 38.9223 410.858 38.927C411.115 38.9317 411.36 38.9503 411.593 38.983C412.373 39.0857 413.024 39.3703 413.546 39.837C414.074 40.299 414.47 40.887 414.736 41.601C415.002 42.315 415.135 43.1013 415.135 43.96C415.135 44.8187 415.002 45.605 414.736 46.319C414.47 47.033 414.074 47.6233 413.546 48.09C413.024 48.552 412.373 48.8343 411.593 48.937C411.36 48.965 411.113 48.9837 410.851 48.993C410.595 48.9977 410.417 49 410.319 49H407.211ZM408.492 47.81H410.319C410.497 47.81 410.695 47.8053 410.914 47.796C411.134 47.782 411.325 47.761 411.488 47.733C412.039 47.6303 412.485 47.3993 412.825 47.04C413.166 46.6807 413.416 46.2327 413.574 45.696C413.733 45.1593 413.812 44.5807 413.812 43.96C413.812 43.3253 413.731 42.7397 413.567 42.203C413.409 41.6663 413.159 41.2207 412.818 40.866C412.478 40.5113 412.034 40.285 411.488 40.187C411.325 40.1543 411.131 40.1333 410.907 40.124C410.683 40.1147 410.487 40.11 410.319 40.11H408.492V47.81ZM419.03 49.21C418.465 49.21 417.991 49.1073 417.609 48.902C417.231 48.692 416.944 48.4167 416.748 48.076C416.556 47.7353 416.461 47.362 416.461 46.956C416.461 46.5593 416.535 46.2163 416.685 45.927C416.839 45.633 417.053 45.3903 417.329 45.199C417.604 45.003 417.933 44.849 418.316 44.737C418.675 44.639 419.076 44.555 419.52 44.485C419.968 44.4103 420.42 44.3427 420.878 44.282C421.335 44.2213 421.762 44.163 422.159 44.107L421.711 44.366C421.725 43.694 421.589 43.197 421.305 42.875C421.025 42.553 420.539 42.392 419.849 42.392C419.391 42.392 418.99 42.497 418.645 42.707C418.304 42.9123 418.064 43.2483 417.924 43.715L416.741 43.358C416.923 42.6953 417.275 42.175 417.798 41.797C418.32 41.419 419.009 41.23 419.863 41.23C420.549 41.23 421.137 41.3537 421.627 41.601C422.121 41.8437 422.476 42.2123 422.691 42.707C422.798 42.9403 422.866 43.1947 422.894 43.47C422.922 43.7407 422.936 44.0253 422.936 44.324V49H421.83V47.187L422.089 47.355C421.804 47.9663 421.405 48.4283 420.892 48.741C420.383 49.0537 419.762 49.21 419.03 49.21ZM419.219 48.167C419.667 48.167 420.054 48.0877 420.381 47.929C420.712 47.7657 420.978 47.5533 421.179 47.292C421.379 47.026 421.51 46.7367 421.571 46.424C421.641 46.1907 421.678 45.9317 421.683 45.647C421.692 45.3577 421.697 45.136 421.697 44.982L422.131 45.171C421.725 45.227 421.326 45.2807 420.934 45.332C420.542 45.3833 420.171 45.4393 419.821 45.5C419.471 45.556 419.156 45.6237 418.876 45.703C418.67 45.7683 418.477 45.8523 418.295 45.955C418.117 46.0577 417.973 46.1907 417.861 46.354C417.753 46.5127 417.7 46.711 417.7 46.949C417.7 47.1543 417.751 47.3503 417.854 47.537C417.961 47.7237 418.124 47.8753 418.344 47.992C418.568 48.1087 418.859 48.167 419.219 48.167ZM429.117 49C428.669 49.0887 428.225 49.1237 427.787 49.105C427.353 49.091 426.965 49.0047 426.625 48.846C426.284 48.6827 426.025 48.4307 425.848 48.09C425.698 47.7913 425.617 47.4903 425.603 47.187C425.593 46.879 425.589 46.5313 425.589 46.144V39.34H426.835V46.088C426.835 46.396 426.837 46.6597 426.842 46.879C426.851 47.0983 426.9 47.2873 426.989 47.446C427.157 47.7447 427.423 47.9197 427.787 47.971C428.155 48.0223 428.599 48.0083 429.117 47.929V49ZM424.056 42.469V41.44H429.117V42.469H424.056ZM433.753 49.21C433.011 49.21 432.362 49.0467 431.807 48.72C431.256 48.3887 430.827 47.929 430.519 47.341C430.211 46.7483 430.057 46.0577 430.057 45.269C430.057 44.443 430.209 43.729 430.512 43.127C430.815 42.5203 431.238 42.0537 431.779 41.727C432.325 41.3957 432.964 41.23 433.697 41.23C434.458 41.23 435.104 41.405 435.636 41.755C436.173 42.105 436.574 42.6043 436.84 43.253C437.111 43.9017 437.227 44.674 437.19 45.57H435.93V45.122C435.916 44.1933 435.727 43.5003 435.363 43.043C434.999 42.581 434.458 42.35 433.739 42.35C432.969 42.35 432.383 42.5973 431.982 43.092C431.581 43.5867 431.38 44.296 431.38 45.22C431.38 46.1113 431.581 46.802 431.982 47.292C432.383 47.782 432.955 48.027 433.697 48.027C434.196 48.027 434.63 47.9127 434.999 47.684C435.368 47.4553 435.657 47.1263 435.867 46.697L437.064 47.11C436.77 47.7773 436.327 48.2953 435.734 48.664C435.146 49.028 434.486 49.21 433.753 49.21ZM430.96 45.57V44.569H436.546V45.57H430.96Z" fill="#1F1F21" fill-opacity="0.74"/>
<path d="M458.9 42L453.9 46.9L449 42" stroke="#1F1F21" stroke-opacity="0.74" stroke-width="1.5" stroke-linecap="round" stroke-linejoin="round"/>
<path d="M480 44C480 32.9543 488.954 24 500 24C511.046 24 520 32.9543 520 44C520 55.0457 511.046 64 500 64C488.954 64 480 55.0457 480 44Z" fill="#1F1F21" fill-opacity="0.04"/>
<path d="M500 45C500.552 45 501 44.5523 501 44C501 43.4477 500.552 43 500 43C499.448 43 499 43.4477 499 44C499 44.5523 499.448 45 500 45Z" fill="#1F1F21" fill-opacity="0.74"/>
<path d="M500 42.75C500.69 42.75 501.25 43.3096 501.25 44C501.25 44.6904 500.69 45.25 500 45.25C499.31 45.25 498.75 44.6904 498.75 44C498.75 43.3096 499.31 42.75 500 42.75Z" stroke="#1F1F21" stroke-opacity="0.74" stroke-width="0.5" stroke-linecap="round" stroke-linejoin="round"/>
<path d="M494 45C494.552 45 495 44.5523 495 44C495 43.4477 494.552 43 494 43C493.448 43 493 43.4477 493 44C493 44.5523 493.448 45 494 45Z" fill="#1F1F21" fill-opacity="0.74"/>
<path d="M494 42.75C494.69 42.75 495.25 43.3096 495.25 44C495.25 44.6904 494.69 45.25 494 45.25C493.31 45.25 492.75 44.6904 492.75 44C492.75 43.3096 493.31 42.75 494 42.75Z" stroke="#1F1F21" stroke-opacity="0.74" stroke-width="0.5" stroke-linecap="round" stroke-linejoin="round"/>
<path d="M506 45C506.552 45 507 44.5523 507 44C507 43.4477 506.552 43 506 43C505.448 43 505 43.4477 505 44C505 44.5523 505.448 45 506 45Z" fill="#1F1F21" fill-opacity="0.74"/>
<path d="M506 42.75C506.69 42.75 507.25 43.3096 507.25 44C507.25 44.6904 506.69 45.25 506 45.25C505.31 45.25 504.75 44.6904 504.75 44C504.75 43.3096 505.31 42.75 506 42.75Z" stroke="#1F1F21" stroke-opacity="0.74" stroke-width="0.5" stroke-linecap="round" stroke-linejoin="round"/>
<path d="M32.3686 112.184V108.44H35.7126V112.184H32.3686ZM32.3686 86.536V82.776H35.7126V86.536H32.3686ZM34.2086 109.48C32.6086 109.48 31.1793 109.192 29.9206 108.616C28.662 108.04 27.6273 107.224 26.8166 106.168C26.0166 105.101 25.494 103.843 25.2486 102.392L28.5606 101.864C28.8806 103.229 29.5633 104.317 30.6086 105.128C31.654 105.928 32.9073 106.328 34.3686 106.328C35.8193 106.328 36.998 105.981 37.9046 105.288C38.822 104.595 39.2806 103.709 39.2806 102.632C39.2806 101.864 39.046 101.24 38.5766 100.76C38.118 100.28 37.366 99.8747 36.3206 99.544L30.9126 97.88C27.7126 96.888 26.1126 94.968 26.1126 92.12C26.1126 90.776 26.4326 89.608 27.0726 88.616C27.7233 87.624 28.6353 86.856 29.8086 86.312C30.982 85.768 32.3526 85.496 33.9206 85.496C35.4246 85.5173 36.758 85.7947 37.9206 86.328C39.094 86.8613 40.0646 87.6293 40.8326 88.632C41.6113 89.6347 42.15 90.84 42.4486 92.248L39.0406 92.856C38.8913 92.0347 38.5766 91.3093 38.0966 90.68C37.6273 90.0507 37.03 89.56 36.3046 89.208C35.59 88.856 34.7846 88.6747 33.8886 88.664C33.046 88.6427 32.2886 88.776 31.6166 89.064C30.9553 89.3413 30.4273 89.736 30.0326 90.248C29.6486 90.7493 29.4566 91.32 29.4566 91.96C29.4566 92.664 29.7286 93.2613 30.2726 93.752C30.8166 94.2427 31.6753 94.664 32.8486 95.016L37.0886 96.248C39.03 96.824 40.4326 97.5973 41.2966 98.568C42.1606 99.5387 42.5926 100.829 42.5926 102.44C42.5926 103.848 42.2406 105.08 41.5366 106.136C40.8433 107.181 39.8673 108.003 38.6086 108.6C37.35 109.187 35.8833 109.48 34.2086 109.48ZM49.7041 109V89.64L45.3681 92.28V88.552L49.7041 85.96H53.1121V109H49.7041ZM68.6281 109V104.984H58.2281V101.816L65.7161 85.96H69.5401L62.0521 101.816H68.6281V95.576H72.0201V101.816H74.3081V104.984H72.0201V109H68.6281ZM76.8844 112.824L77.0924 111.336C77.551 111.368 77.9084 111.283 78.1644 111.08C78.4204 110.877 78.591 110.595 78.6764 110.232C78.7617 109.869 78.7777 109.459 78.7244 109H76.8844V105.144H80.4204V109.32C80.4204 110.579 80.1164 111.528 79.5084 112.168C78.911 112.808 78.0364 113.027 76.8844 112.824ZM92.6136 109.432C91.4723 109.432 90.4003 109.219 89.3976 108.792C88.395 108.355 87.5256 107.736 86.7896 106.936C86.0643 106.136 85.5363 105.192 85.2056 104.104L88.4376 103.208C88.747 104.2 89.2856 104.963 90.0536 105.496C90.8216 106.019 91.675 106.275 92.6136 106.264C93.4563 106.253 94.1976 106.056 94.8376 105.672C95.4776 105.288 95.979 104.771 96.3416 104.12C96.7043 103.459 96.8856 102.701 96.8856 101.848C96.8856 100.568 96.4856 99.512 95.6856 98.68C94.8963 97.848 93.8616 97.432 92.5816 97.432C92.219 97.432 91.8456 97.4853 91.4616 97.592C91.0883 97.6987 90.7363 97.8373 90.4056 98.008L88.8376 95.368L96.9656 88.184L97.3176 89.144H86.1176V85.96H99.9736V89.144L93.2216 95.64L93.1896 94.552C94.6403 94.552 95.899 94.8773 96.9656 95.528C98.0323 96.168 98.8536 97.0427 99.4296 98.152C100.016 99.2507 100.31 100.483 100.31 101.848C100.31 103.32 99.963 104.627 99.2696 105.768C98.587 106.909 97.6643 107.805 96.5016 108.456C95.3496 109.107 94.0536 109.432 92.6136 109.432ZM112.19 109.48C110.622 109.48 109.235 109.139 108.03 108.456C106.825 107.763 105.875 106.813 105.182 105.608C104.499 104.403 104.158 103.016 104.158 101.448V93.512C104.158 91.944 104.499 90.5573 105.182 89.352C105.875 88.1467 106.825 87.2027 108.03 86.52C109.235 85.8267 110.622 85.48 112.19 85.48C113.758 85.48 115.145 85.8267 116.35 86.52C117.555 87.2027 118.499 88.1467 119.182 89.352C119.875 90.5573 120.222 91.944 120.222 93.512V101.448C120.222 103.016 119.875 104.403 119.182 105.608C118.499 106.813 117.555 107.763 116.35 108.456C115.145 109.139 113.758 109.48 112.19 109.48ZM112.19 106.28C113.043 106.28 113.817 106.077 114.51 105.672C115.214 105.256 115.774 104.701 116.19 104.008C116.606 103.304 116.814 102.52 116.814 101.656V93.272C116.814 92.4187 116.606 91.6453 116.19 90.952C115.774 90.248 115.214 89.6933 114.51 89.288C113.817 88.872 113.043 88.664 112.19 88.664C111.337 88.664 110.558 88.872 109.854 89.288C109.161 89.6933 108.606 90.248 108.19 90.952C107.774 91.6453 107.566 92.4187 107.566 93.272V101.656C107.566 102.52 107.774 103.304 108.19 104.008C108.606 104.701 109.161 105.256 109.854 105.672C110.558 106.077 111.337 106.28 112.19 106.28ZM132.401 109.48C130.833 109.48 129.447 109.139 128.241 108.456C127.036 107.763 126.087 106.813 125.393 105.608C124.711 104.403 124.369 103.016 124.369 101.448V93.512C124.369 91.944 124.711 90.5573 125.393 89.352C126.087 88.1467 127.036 87.2027 128.241 86.52C129.447 85.8267 130.833 85.48 132.401 85.48C133.969 85.48 135.356 85.8267 136.561 86.52C137.767 87.2027 138.711 88.1467 139.393 89.352C140.087 90.5573 140.433 91.944 140.433 93.512V101.448C140.433 103.016 140.087 104.403 139.393 105.608C138.711 106.813 137.767 107.763 136.561 108.456C135.356 109.139 133.969 109.48 132.401 109.48ZM132.401 106.28C133.255 106.28 134.028 106.077 134.721 105.672C135.425 105.256 135.985 104.701 136.401 104.008C136.817 103.304 137.025 102.52 137.025 101.656V93.272C137.025 92.4187 136.817 91.6453 136.401 90.952C135.985 90.248 135.425 89.6933 134.721 89.288C134.028 88.872 133.255 88.664 132.401 88.664C131.548 88.664 130.769 88.872 130.065 89.288C129.372 89.6933 128.817 90.248 128.401 90.952C127.985 91.6453 127.777 92.4187 127.777 93.272V101.656C127.777 102.52 127.985 103.304 128.401 104.008C128.817 104.701 129.372 105.256 130.065 105.672C130.769 106.077 131.548 106.28 132.401 106.28ZM145.157 109V105.464H148.693V109H145.157ZM161.449 109.48C159.881 109.48 158.494 109.139 157.289 108.456C156.084 107.763 155.134 106.813 154.441 105.608C153.758 104.403 153.417 103.016 153.417 101.448V93.512C153.417 91.944 153.758 90.5573 154.441 89.352C155.134 88.1467 156.084 87.2027 157.289 86.52C158.494 85.8267 159.881 85.48 161.449 85.48C163.017 85.48 164.404 85.8267 165.609 86.52C166.814 87.2027 167.758 88.1467 168.441 89.352C169.134 90.5573 169.481 91.944 169.481 93.512V101.448C169.481 103.016 169.134 104.403 168.441 105.608C167.758 106.813 166.814 107.763 165.609 108.456C164.404 109.139 163.017 109.48 161.449 109.48ZM161.449 106.28C162.302 106.28 163.076 106.077 163.769 105.672C164.473 105.256 165.033 104.701 165.449 104.008C165.865 103.304 166.073 102.52 166.073 101.656V93.272C166.073 92.4187 165.865 91.6453 165.449 90.952C165.033 90.248 164.473 89.6933 163.769 89.288C163.076 88.872 162.302 88.664 161.449 88.664C160.596 88.664 159.817 88.872 159.113 89.288C158.42 89.6933 157.865 90.248 157.449 90.952C157.033 91.6453 156.825 92.4187 156.825 93.272V101.656C156.825 102.52 157.033 103.304 157.449 104.008C157.865 104.701 158.42 105.256 159.113 105.672C159.817 106.077 160.596 106.28 161.449 106.28ZM181.66 109.48C180.092 109.48 178.705 109.139 177.5 108.456C176.295 107.763 175.345 106.813 174.652 105.608C173.969 104.403 173.628 103.016 173.628 101.448V93.512C173.628 91.944 173.969 90.5573 174.652 89.352C175.345 88.1467 176.295 87.2027 177.5 86.52C178.705 85.8267 180.092 85.48 181.66 85.48C183.228 85.48 184.615 85.8267 185.82 86.52C187.025 87.2027 187.969 88.1467 188.652 89.352C189.345 90.5573 189.692 91.944 189.692 93.512V101.448C189.692 103.016 189.345 104.403 188.652 105.608C187.969 106.813 187.025 107.763 185.82 108.456C184.615 109.139 183.228 109.48 181.66 109.48ZM181.66 106.28C182.513 106.28 183.287 106.077 183.98 105.672C184.684 105.256 185.244 104.701 185.66 104.008C186.076 103.304 186.284 102.52 186.284 101.656V93.272C186.284 92.4187 186.076 91.6453 185.66 90.952C185.244 90.248 184.684 89.6933 183.98 89.288C183.287 88.872 182.513 88.664 181.66 88.664C180.807 88.664 180.028 88.872 179.324 89.288C178.631 89.6933 178.076 90.248 177.66 90.952C177.244 91.6453 177.036 92.4187 177.036 93.272V101.656C177.036 102.52 177.244 103.304 177.66 104.008C178.076 104.701 178.631 105.256 179.324 105.672C180.028 106.077 180.807 106.28 181.66 106.28Z" fill="#1F1F21"/>
<path d="M24.98 135V124.92H28.963C29.061 124.92 29.1777 124.925 29.313 124.934C29.4483 124.939 29.579 124.953 29.705 124.976C30.251 125.06 30.7083 125.247 31.077 125.536C31.4503 125.825 31.7303 126.192 31.917 126.635C32.1037 127.074 32.197 127.561 32.197 128.098C32.197 128.877 31.994 129.554 31.588 130.128C31.182 130.697 30.587 131.054 29.803 131.199L29.327 131.276H26.226V135H24.98ZM30.979 135L28.991 130.898L30.223 130.52L32.407 135H30.979ZM26.226 130.093H28.921C29.0097 130.093 29.11 130.088 29.222 130.079C29.3387 130.07 29.4483 130.053 29.551 130.03C29.873 129.955 30.1343 129.82 30.335 129.624C30.5403 129.423 30.6897 129.19 30.783 128.924C30.8763 128.653 30.923 128.378 30.923 128.098C30.923 127.818 30.8763 127.545 30.783 127.279C30.6897 127.008 30.5403 126.773 30.335 126.572C30.1343 126.371 29.873 126.236 29.551 126.166C29.4483 126.138 29.3387 126.122 29.222 126.117C29.11 126.108 29.0097 126.103 28.921 126.103H26.226V130.093ZM37.3648 135.21C36.6228 135.21 35.9741 135.047 35.4188 134.72C34.8681 134.389 34.4388 133.929 34.1308 133.341C33.8228 132.748 33.6688 132.058 33.6688 131.269C33.6688 130.443 33.8204 129.729 34.1238 129.127C34.4271 128.52 34.8494 128.054 35.3908 127.727C35.9368 127.396 36.5761 127.23 37.3088 127.23C38.0694 127.23 38.7158 127.405 39.2478 127.755C39.7844 128.105 40.1858 128.604 40.4518 129.253C40.7224 129.902 40.8391 130.674 40.8018 131.57H39.5418V131.122C39.5278 130.193 39.3388 129.5 38.9748 129.043C38.6108 128.581 38.0694 128.35 37.3508 128.35C36.5808 128.35 35.9951 128.597 35.5938 129.092C35.1924 129.587 34.9918 130.296 34.9918 131.22C34.9918 132.111 35.1924 132.802 35.5938 133.292C35.9951 133.782 36.5668 134.027 37.3088 134.027C37.8081 134.027 38.2421 133.913 38.6108 133.684C38.9794 133.455 39.2688 133.126 39.4788 132.697L40.6758 133.11C40.3818 133.777 39.9384 134.295 39.3458 134.664C38.7578 135.028 38.0974 135.21 37.3648 135.21ZM34.5718 131.57V130.569H40.1578V131.57H34.5718ZM45.6852 135.21C44.9199 135.21 44.2689 135.04 43.7322 134.699C43.2002 134.354 42.7942 133.88 42.5142 133.278C42.2342 132.676 42.0896 131.99 42.0802 131.22C42.0896 130.431 42.2366 129.738 42.5212 129.141C42.8106 128.539 43.2236 128.07 43.7602 127.734C44.2969 127.398 44.9432 127.23 45.6992 127.23C46.4972 127.23 47.1832 127.426 47.7572 127.818C48.3359 128.21 48.7232 128.747 48.9192 129.428L47.6872 129.799C47.5286 129.36 47.2696 129.02 46.9102 128.777C46.5556 128.534 46.1472 128.413 45.6852 128.413C45.1672 128.413 44.7402 128.534 44.4042 128.777C44.0682 129.015 43.8186 129.346 43.6552 129.771C43.4919 130.191 43.4079 130.674 43.4032 131.22C43.4126 132.06 43.6062 132.739 43.9842 133.257C44.3669 133.77 44.9339 134.027 45.6852 134.027C46.1799 134.027 46.5906 133.915 46.9172 133.691C47.2439 133.462 47.4912 133.133 47.6592 132.704L48.9192 133.033C48.6579 133.738 48.2496 134.277 47.6942 134.65C47.1389 135.023 46.4692 135.21 45.6852 135.21ZM53.5588 135.21C52.8168 135.21 52.1681 135.047 51.6128 134.72C51.0621 134.389 50.6328 133.929 50.3248 133.341C50.0168 132.748 49.8628 132.058 49.8628 131.269C49.8628 130.443 50.0145 129.729 50.3178 129.127C50.6211 128.52 51.0435 128.054 51.5848 127.727C52.1308 127.396 52.7701 127.23 53.5028 127.23C54.2635 127.23 54.9098 127.405 55.4418 127.755C55.9785 128.105 56.3798 128.604 56.6458 129.253C56.9165 129.902 57.0331 130.674 56.9958 131.57H55.7358V131.122C55.7218 130.193 55.5328 129.5 55.1688 129.043C54.8048 128.581 54.2635 128.35 53.5448 128.35C52.7748 128.35 52.1891 128.597 51.7878 129.092C51.3865 129.587 51.1858 130.296 51.1858 131.22C51.1858 132.111 51.3865 132.802 51.7878 133.292C52.1891 133.782 52.7608 134.027 53.5028 134.027C54.0021 134.027 54.4361 133.913 54.8048 133.684C55.1735 133.455 55.4628 133.126 55.6728 132.697L56.8698 133.11C56.5758 133.777 56.1325 134.295 55.5398 134.664C54.9518 135.028 54.2915 135.21 53.5588 135.21ZM50.7658 131.57V130.569H56.3518V131.57H50.7658ZM63.8722 135V131.213C63.8722 130.854 63.8396 130.508 63.7742 130.177C63.7136 129.846 63.6039 129.549 63.4452 129.288C63.2912 129.022 63.0812 128.812 62.8152 128.658C62.5539 128.504 62.2226 128.427 61.8212 128.427C61.5086 128.427 61.2239 128.481 60.9672 128.588C60.7152 128.691 60.4982 128.849 60.3162 129.064C60.1342 129.279 59.9919 129.549 59.8892 129.876C59.7912 130.198 59.7422 130.578 59.7422 131.017L58.9232 130.765C58.9232 130.032 59.0539 129.405 59.3152 128.882C59.5812 128.355 59.9522 127.951 60.4282 127.671C60.9089 127.386 61.4736 127.244 62.1222 127.244C62.6122 127.244 63.0299 127.321 63.3752 127.475C63.7206 127.629 64.0076 127.834 64.2362 128.091C64.4649 128.343 64.6446 128.628 64.7752 128.945C64.9059 129.258 64.9969 129.577 65.0482 129.904C65.1042 130.226 65.1322 130.532 65.1322 130.821V135H63.8722ZM58.4822 135V127.44H59.6022V129.463H59.7422V135H58.4822ZM71.3131 135C70.8651 135.089 70.4218 135.124 69.9831 135.105C69.5491 135.091 69.1618 135.005 68.8211 134.846C68.4804 134.683 68.2214 134.431 68.0441 134.09C67.8948 133.791 67.8131 133.49 67.7991 133.187C67.7898 132.879 67.7851 132.531 67.7851 132.144V125.34H69.0311V132.088C69.0311 132.396 69.0334 132.66 69.0381 132.879C69.0474 133.098 69.0964 133.287 69.1851 133.446C69.3531 133.745 69.6191 133.92 69.9831 133.971C70.3518 134.022 70.7951 134.008 71.3131 133.929V135ZM66.2521 128.469V127.44H71.3131V128.469H66.2521ZM78.0797 135.21C77.515 135.21 77.0414 135.107 76.6587 134.902C76.2807 134.692 75.9937 134.417 75.7977 134.076C75.6064 133.735 75.5107 133.362 75.5107 132.956C75.5107 132.559 75.5854 132.216 75.7347 131.927C75.8887 131.633 76.1034 131.39 76.3787 131.199C76.654 131.003 76.983 130.849 77.3657 130.737C77.725 130.639 78.1264 130.555 78.5697 130.485C79.0177 130.41 79.4704 130.343 79.9277 130.282C80.385 130.221 80.812 130.163 81.2087 130.107L80.7607 130.366C80.7747 129.694 80.6394 129.197 80.3547 128.875C80.0747 128.553 79.5894 128.392 78.8987 128.392C78.4414 128.392 78.04 128.497 77.6947 128.707C77.354 128.912 77.1137 129.248 76.9737 129.715L75.7907 129.358C75.9727 128.695 76.325 128.175 76.8477 127.797C77.3704 127.419 78.0587 127.23 78.9127 127.23C79.5987 127.23 80.1867 127.354 80.6767 127.601C81.1714 127.844 81.526 128.212 81.7407 128.707C81.848 128.94 81.9157 129.195 81.9437 129.47C81.9717 129.741 81.9857 130.025 81.9857 130.324V135H80.8797V133.187L81.1387 133.355C80.854 133.966 80.455 134.428 79.9417 134.741C79.433 135.054 78.8124 135.21 78.0797 135.21ZM78.2687 134.167C78.7167 134.167 79.104 134.088 79.4307 133.929C79.762 133.766 80.028 133.553 80.2287 133.292C80.4294 133.026 80.56 132.737 80.6207 132.424C80.6907 132.191 80.728 131.932 80.7327 131.647C80.742 131.358 80.7467 131.136 80.7467 130.982L81.1807 131.171C80.7747 131.227 80.3757 131.281 79.9837 131.332C79.5917 131.383 79.2207 131.439 78.8707 131.5C78.5207 131.556 78.2057 131.624 77.9257 131.703C77.7204 131.768 77.5267 131.852 77.3447 131.955C77.1674 132.058 77.0227 132.191 76.9107 132.354C76.8034 132.513 76.7497 132.711 76.7497 132.949C76.7497 133.154 76.801 133.35 76.9037 133.537C77.011 133.724 77.1744 133.875 77.3937 133.992C77.6177 134.109 77.9094 134.167 78.2687 134.167ZM87.1307 135.21C86.3654 135.21 85.7144 135.04 85.1777 134.699C84.6457 134.354 84.2397 133.88 83.9597 133.278C83.6797 132.676 83.535 131.99 83.5257 131.22C83.535 130.431 83.682 129.738 83.9667 129.141C84.256 128.539 84.669 128.07 85.2057 127.734C85.7424 127.398 86.3887 127.23 87.1447 127.23C87.9427 127.23 88.6287 127.426 89.2027 127.818C89.7814 128.21 90.1687 128.747 90.3647 129.428L89.1327 129.799C88.974 129.36 88.715 129.02 88.3557 128.777C88.001 128.534 87.5927 128.413 87.1307 128.413C86.6127 128.413 86.1857 128.534 85.8497 128.777C85.5137 129.015 85.264 129.346 85.1007 129.771C84.9374 130.191 84.8534 130.674 84.8487 131.22C84.858 132.06 85.0517 132.739 85.4297 133.257C85.8124 133.77 86.3794 134.027 87.1307 134.027C87.6254 134.027 88.036 133.915 88.3627 133.691C88.6894 133.462 88.9367 133.133 89.1047 132.704L90.3647 133.033C90.1034 133.738 89.695 134.277 89.1397 134.65C88.5844 135.023 87.9147 135.21 87.1307 135.21ZM94.9133 135.21C94.148 135.21 93.497 135.04 92.9603 134.699C92.4283 134.354 92.0223 133.88 91.7423 133.278C91.4623 132.676 91.3176 131.99 91.3083 131.22C91.3176 130.431 91.4646 129.738 91.7493 129.141C92.0386 128.539 92.4516 128.07 92.9883 127.734C93.525 127.398 94.1713 127.23 94.9273 127.23C95.7253 127.23 96.4113 127.426 96.9853 127.818C97.564 128.21 97.9513 128.747 98.1473 129.428L96.9153 129.799C96.7566 129.36 96.4976 129.02 96.1383 128.777C95.7836 128.534 95.3753 128.413 94.9133 128.413C94.3953 128.413 93.9683 128.534 93.6323 128.777C93.2963 129.015 93.0466 129.346 92.8833 129.771C92.72 130.191 92.636 130.674 92.6313 131.22C92.6406 132.06 92.8343 132.739 93.2123 133.257C93.595 133.77 94.162 134.027 94.9133 134.027C95.408 134.027 95.8186 133.915 96.1453 133.691C96.472 133.462 96.7193 133.133 96.8873 132.704L98.1473 133.033C97.886 133.738 97.4776 134.277 96.9223 134.65C96.367 135.023 95.6973 135.21 94.9133 135.21ZM102.731 135.21C101.98 135.21 101.331 135.04 100.785 134.699C100.244 134.358 99.8259 133.887 99.5319 133.285C99.2379 132.683 99.0909 131.992 99.0909 131.213C99.0909 130.42 99.2402 129.724 99.5389 129.127C99.8375 128.53 100.26 128.065 100.806 127.734C101.352 127.398 101.994 127.23 102.731 127.23C103.487 127.23 104.138 127.4 104.684 127.741C105.23 128.077 105.648 128.546 105.937 129.148C106.231 129.745 106.378 130.434 106.378 131.213C106.378 132.002 106.231 132.697 105.937 133.299C105.643 133.896 105.223 134.365 104.677 134.706C104.131 135.042 103.482 135.21 102.731 135.21ZM102.731 134.027C103.515 134.027 104.098 133.766 104.481 133.243C104.864 132.72 105.055 132.044 105.055 131.213C105.055 130.359 104.861 129.68 104.474 129.176C104.087 128.667 103.506 128.413 102.731 128.413C102.204 128.413 101.77 128.532 101.429 128.77C101.088 129.008 100.834 129.337 100.666 129.757C100.498 130.177 100.414 130.662 100.414 131.213C100.414 132.062 100.61 132.744 101.002 133.257C101.394 133.77 101.97 134.027 102.731 134.027ZM110.929 135.196C110.444 135.196 110.026 135.119 109.676 134.965C109.331 134.811 109.044 134.606 108.815 134.349C108.586 134.092 108.407 133.808 108.276 133.495C108.145 133.182 108.052 132.863 107.996 132.536C107.945 132.209 107.919 131.904 107.919 131.619V127.44H109.179V131.227C109.179 131.582 109.212 131.925 109.277 132.256C109.342 132.587 109.452 132.886 109.606 133.152C109.765 133.418 109.975 133.628 110.236 133.782C110.502 133.936 110.833 134.013 111.23 134.013C111.543 134.013 111.827 133.959 112.084 133.852C112.341 133.745 112.56 133.586 112.742 133.376C112.924 133.161 113.064 132.891 113.162 132.564C113.26 132.237 113.309 131.857 113.309 131.423L114.128 131.675C114.128 132.403 113.995 133.031 113.729 133.558C113.468 134.085 113.097 134.491 112.616 134.776C112.14 135.056 111.578 135.196 110.929 135.196ZM113.449 135V132.977H113.309V127.44H114.562V135H113.449ZM122.045 135V131.213C122.045 130.854 122.012 130.508 121.947 130.177C121.886 129.846 121.777 129.549 121.618 129.288C121.464 129.022 121.254 128.812 120.988 128.658C120.727 128.504 120.395 128.427 119.994 128.427C119.681 128.427 119.397 128.481 119.14 128.588C118.888 128.691 118.671 128.849 118.489 129.064C118.307 129.279 118.165 129.549 118.062 129.876C117.964 130.198 117.915 130.578 117.915 131.017L117.096 130.765C117.096 130.032 117.227 129.405 117.488 128.882C117.754 128.355 118.125 127.951 118.601 127.671C119.082 127.386 119.646 127.244 120.295 127.244C120.785 127.244 121.203 127.321 121.548 127.475C121.893 127.629 122.18 127.834 122.409 128.091C122.638 128.343 122.817 128.628 122.948 128.945C123.079 129.258 123.17 129.577 123.221 129.904C123.277 130.226 123.305 130.532 123.305 130.821V135H122.045ZM116.655 135V127.44H117.775V129.463H117.915V135H116.655ZM129.486 135C129.038 135.089 128.595 135.124 128.156 135.105C127.722 135.091 127.335 135.005 126.994 134.846C126.653 134.683 126.394 134.431 126.217 134.09C126.068 133.791 125.986 133.49 125.972 133.187C125.963 132.879 125.958 132.531 125.958 132.144V125.34H127.204V132.088C127.204 132.396 127.206 132.66 127.211 132.879C127.22 133.098 127.269 133.287 127.358 133.446C127.526 133.745 127.792 133.92 128.156 133.971C128.525 134.022 128.968 134.008 129.486 133.929V135ZM124.425 128.469V127.44H129.486V128.469H124.425ZM136.252 135.21C135.688 135.21 135.214 135.107 134.831 134.902C134.453 134.692 134.166 134.417 133.97 134.076C133.779 133.735 133.683 133.362 133.683 132.956C133.683 132.559 133.758 132.216 133.907 131.927C134.061 131.633 134.276 131.39 134.551 131.199C134.827 131.003 135.156 130.849 135.538 130.737C135.898 130.639 136.299 130.555 136.742 130.485C137.19 130.41 137.643 130.343 138.1 130.282C138.558 130.221 138.985 130.163 139.381 130.107L138.933 130.366C138.947 129.694 138.812 129.197 138.527 128.875C138.247 128.553 137.762 128.392 137.071 128.392C136.614 128.392 136.213 128.497 135.867 128.707C135.527 128.912 135.286 129.248 135.146 129.715L133.963 129.358C134.145 128.695 134.498 128.175 135.02 127.797C135.543 127.419 136.231 127.23 137.085 127.23C137.771 127.23 138.359 127.354 138.849 127.601C139.344 127.844 139.699 128.212 139.913 128.707C140.021 128.94 140.088 129.195 140.116 129.47C140.144 129.741 140.158 130.025 140.158 130.324V135H139.052V133.187L139.311 133.355C139.027 133.966 138.628 134.428 138.114 134.741C137.606 135.054 136.985 135.21 136.252 135.21ZM136.441 134.167C136.889 134.167 137.277 134.088 137.603 133.929C137.935 133.766 138.201 133.553 138.401 133.292C138.602 133.026 138.733 132.737 138.793 132.424C138.863 132.191 138.901 131.932 138.905 131.647C138.915 131.358 138.919 131.136 138.919 130.982L139.353 131.171C138.947 131.227 138.548 131.281 138.156 131.332C137.764 131.383 137.393 131.439 137.043 131.5C136.693 131.556 136.378 131.624 136.098 131.703C135.893 131.768 135.699 131.852 135.517 131.955C135.34 132.058 135.195 132.191 135.083 132.354C134.976 132.513 134.922 132.711 134.922 132.949C134.922 133.154 134.974 133.35 135.076 133.537C135.184 133.724 135.347 133.875 135.566 133.992C135.79 134.109 136.082 134.167 136.441 134.167ZM145.303 135.21C144.538 135.21 143.887 135.04 143.35 134.699C142.818 134.354 142.412 133.88 142.132 133.278C141.852 132.676 141.708 131.99 141.698 131.22C141.708 130.431 141.855 129.738 142.139 129.141C142.429 128.539 142.842 128.07 143.378 127.734C143.915 127.398 144.561 127.23 145.317 127.23C146.115 127.23 146.801 127.426 147.375 127.818C147.954 128.21 148.341 128.747 148.537 129.428L147.305 129.799C147.147 129.36 146.888 129.02 146.528 128.777C146.174 128.534 145.765 128.413 145.303 128.413C144.785 128.413 144.358 128.534 144.022 128.777C143.686 129.015 143.437 129.346 143.273 129.771C143.11 130.191 143.026 130.674 143.021 131.22C143.031 132.06 143.224 132.739 143.602 133.257C143.985 133.77 144.552 134.027 145.303 134.027C145.798 134.027 146.209 133.915 146.535 133.691C146.862 133.462 147.109 133.133 147.277 132.704L148.537 133.033C148.276 133.738 147.868 134.277 147.312 134.65C146.757 135.023 146.087 135.21 145.303 135.21ZM154.327 135C153.879 135.089 153.436 135.124 152.997 135.105C152.563 135.091 152.176 135.005 151.835 134.846C151.494 134.683 151.235 134.431 151.058 134.09C150.909 133.791 150.827 133.49 150.813 133.187C150.804 132.879 150.799 132.531 150.799 132.144V125.34H152.045V132.088C152.045 132.396 152.047 132.66 152.052 132.879C152.061 133.098 152.11 133.287 152.199 133.446C152.367 133.745 152.633 133.92 152.997 133.971C153.366 134.022 153.809 134.008 154.327 133.929V135ZM149.266 128.469V127.44H154.327V128.469H149.266ZM156.142 126.103V124.815H157.388V126.103H156.142ZM156.142 135V127.44H157.388V135H156.142ZM161.672 135L158.928 127.44H160.188L162.309 133.411L164.423 127.44H165.69L162.946 135H161.672ZM167.236 126.103V124.815H168.482V126.103H167.236ZM167.236 135V127.44H168.482V135H167.236ZM174.944 135C174.496 135.089 174.052 135.124 173.614 135.105C173.18 135.091 172.792 135.005 172.452 134.846C172.111 134.683 171.852 134.431 171.675 134.09C171.525 133.791 171.444 133.49 171.43 133.187C171.42 132.879 171.416 132.531 171.416 132.144V125.34H172.662V132.088C172.662 132.396 172.664 132.66 172.669 132.879C172.678 133.098 172.727 133.287 172.816 133.446C172.984 133.745 173.25 133.92 173.614 133.971C173.982 134.022 174.426 134.008 174.944 133.929V135ZM169.883 128.469V127.44H174.944V128.469H169.883ZM177.464 138.36L178.927 134.384L178.948 135.56L175.644 127.44H176.953L179.543 133.971H179.095L181.524 127.44H182.791L178.675 138.36H177.464Z" fill="#1F1F21" fill-opacity="0.56"/>
<path d="M420 108C420 98.8873 427.387 91.5 436.5 91.5H503.5C512.613 91.5 520 98.8873 520 108C520 117.113 512.613 124.5 503.5 124.5H436.5C427.387 124.5 420 117.113 420 108Z" fill="#F7F7F7"/>
<path d="M444.78 103.78L435.96 112.6M444.78 103.78V111.34M444.78 103.78H437.22" stroke="#5906E2" stroke-width="1.33643" stroke-linecap="round" stroke-linejoin="round"/>
<path d="M456.463 114.491L456.472 113.051L462.223 107.876C462.703 107.444 463.024 107.036 463.186 106.652C463.354 106.262 463.438 105.863 463.438 105.455C463.438 104.957 463.324 104.507 463.096 104.105C462.868 103.703 462.556 103.385 462.16 103.151C461.77 102.917 461.326 102.8 460.828 102.8C460.312 102.8 459.853 102.923 459.451 103.169C459.049 103.409 458.731 103.73 458.497 104.132C458.269 104.534 458.158 104.972 458.164 105.446H456.526C456.526 104.63 456.715 103.91 457.093 103.286C457.471 102.656 457.984 102.164 458.632 101.81C459.286 101.45 460.027 101.27 460.854 101.27C461.659 101.27 462.379 101.456 463.015 101.828C463.651 102.194 464.152 102.695 464.518 103.331C464.89 103.961 465.076 104.675 465.076 105.473C465.076 106.037 465.004 106.526 464.859 106.94C464.721 107.354 464.506 107.738 464.212 108.092C463.918 108.44 463.549 108.812 463.105 109.208L458.326 113.501L458.119 112.961H465.076V114.491H456.463ZM467.517 114.5V112.736H469.281V114.5H467.517ZM476.454 114.77C475.614 114.77 474.864 114.581 474.204 114.203C473.55 113.819 473.031 113.3 472.647 112.646C472.269 111.986 472.08 111.236 472.08 110.396V105.644C472.08 104.804 472.269 104.054 472.647 103.394C473.031 102.734 473.55 102.215 474.204 101.837C474.864 101.459 475.614 101.27 476.454 101.27C477.294 101.27 478.044 101.459 478.704 101.837C479.364 102.215 479.883 102.734 480.261 103.394C480.639 104.054 480.828 104.804 480.828 105.644V110.396C480.828 111.236 480.639 111.986 480.261 112.646C479.883 113.3 479.364 113.819 478.704 114.203C478.044 114.581 477.294 114.77 476.454 114.77ZM476.454 113.231C476.964 113.231 477.426 113.108 477.84 112.862C478.254 112.616 478.584 112.286 478.83 111.872C479.076 111.452 479.199 110.99 479.199 110.486V105.545C479.199 105.035 479.076 104.573 478.83 104.159C478.584 103.745 478.254 103.415 477.84 103.169C477.426 102.923 476.964 102.8 476.454 102.8C475.95 102.8 475.488 102.923 475.068 103.169C474.654 103.415 474.324 103.745 474.078 104.159C473.832 104.573 473.709 105.035 473.709 105.545V110.486C473.709 110.99 473.832 111.452 474.078 111.872C474.324 112.286 474.654 112.616 475.068 112.862C475.488 113.108 475.95 113.231 476.454 113.231ZM486.903 114.752C486.261 114.752 485.664 114.635 485.112 114.401C484.56 114.161 484.083 113.825 483.681 113.393C483.285 112.955 482.994 112.436 482.808 111.836L484.347 111.395C484.545 111.995 484.875 112.451 485.337 112.763C485.799 113.075 486.318 113.228 486.894 113.222C487.422 113.21 487.878 113.09 488.262 112.862C488.652 112.628 488.952 112.31 489.162 111.908C489.378 111.506 489.486 111.041 489.486 110.513C489.486 109.709 489.246 109.058 488.766 108.56C488.286 108.056 487.656 107.804 486.876 107.804C486.66 107.804 486.432 107.834 486.192 107.894C485.958 107.954 485.739 108.038 485.535 108.146L484.761 106.877L489.567 102.53L489.774 103.07H483.321V101.54H490.962V103.079L486.867 107.003L486.849 106.436C487.707 106.376 488.457 106.517 489.099 106.859C489.741 107.201 490.239 107.69 490.593 108.326C490.953 108.962 491.133 109.691 491.133 110.513C491.133 111.341 490.947 112.073 490.575 112.709C490.203 113.345 489.699 113.846 489.063 114.212C488.427 114.572 487.707 114.752 486.903 114.752ZM494.913 114.5L493.833 113.42L505.731 101.54L506.811 102.62L494.913 114.5ZM504.111 114.77C503.517 114.77 502.974 114.626 502.482 114.338C501.996 114.044 501.606 113.654 501.312 113.168C501.018 112.676 500.871 112.13 500.871 111.53C500.871 110.942 501.021 110.402 501.321 109.91C501.621 109.418 502.017 109.025 502.509 108.731C503.001 108.437 503.535 108.29 504.111 108.29C504.705 108.29 505.248 108.437 505.74 108.731C506.232 109.019 506.622 109.409 506.91 109.901C507.204 110.387 507.351 110.93 507.351 111.53C507.351 112.13 507.204 112.676 506.91 113.168C506.622 113.654 506.232 114.044 505.74 114.338C505.248 114.626 504.705 114.77 504.111 114.77ZM504.111 113.357C504.441 113.357 504.744 113.273 505.02 113.105C505.302 112.937 505.524 112.715 505.686 112.439C505.854 112.163 505.938 111.86 505.938 111.53C505.938 111.2 505.854 110.897 505.686 110.621C505.524 110.339 505.302 110.117 505.02 109.955C504.744 109.787 504.441 109.703 504.111 109.703C503.781 109.703 503.478 109.787 503.202 109.955C502.926 110.117 502.704 110.339 502.536 110.621C502.368 110.897 502.284 111.2 502.284 111.53C502.284 111.86 502.368 112.163 502.536 112.439C502.704 112.715 502.926 112.937 503.202 113.105C503.478 113.273 503.781 113.357 504.111 113.357ZM496.533 107.75C495.939 107.75 495.396 107.606 494.904 107.318C494.412 107.024 494.019 106.634 493.725 106.148C493.437 105.656 493.293 105.11 493.293 104.51C493.293 103.922 493.443 103.382 493.743 102.89C494.043 102.398 494.439 102.005 494.931 101.711C495.423 101.417 495.957 101.27 496.533 101.27C497.127 101.27 497.667 101.417 498.153 101.711C498.645 101.999 499.038 102.389 499.332 102.881C499.626 103.367 499.773 103.91 499.773 104.51C499.773 105.11 499.626 105.656 499.332 106.148C499.038 106.634 498.645 107.024 498.153 107.318C497.667 107.606 497.127 107.75 496.533 107.75ZM496.533 106.337C496.863 106.337 497.166 106.253 497.442 106.085C497.724 105.917 497.946 105.695 498.108 105.419C498.276 105.143 498.36 104.84 498.36 104.51C498.36 104.18 498.276 103.877 498.108 103.601C497.946 103.319 497.724 103.097 497.442 102.935C497.166 102.767 496.863 102.683 496.533 102.683C496.203 102.683 495.9 102.767 495.624 102.935C495.348 103.097 495.126 103.319 494.958 103.601C494.79 103.877 494.706 104.18 494.706 104.51C494.706 104.84 494.79 105.143 494.958 105.419C495.126 105.695 495.348 105.917 495.624 106.085C495.9 106.253 496.203 106.337 496.533 106.337Z" fill="#5906E2"/>
<path d="M27.54 186.18C26.988 186.18 26.5 186.07 26.076 185.85C25.652 185.626 25.32 185.316 25.08 184.92C24.84 184.524 24.72 184.062 24.72 183.534C24.72 183.018 24.842 182.552 25.086 182.136C25.334 181.72 25.706 181.4 26.202 181.176L26.184 181.566C25.78 181.37 25.47 181.094 25.254 180.738C25.038 180.378 24.93 179.98 24.93 179.544C24.93 179.056 25.042 178.636 25.266 178.284C25.49 177.932 25.798 177.66 26.19 177.468C26.582 177.276 27.032 177.18 27.54 177.18C28.048 177.18 28.498 177.276 28.89 177.468C29.282 177.66 29.59 177.932 29.814 178.284C30.038 178.636 30.15 179.056 30.15 179.544C30.15 179.98 30.048 180.376 29.844 180.732C29.64 181.084 29.326 181.362 28.902 181.566L28.878 181.182C29.374 181.398 29.746 181.716 29.994 182.136C30.246 182.552 30.372 183.018 30.372 183.534C30.372 184.062 30.25 184.524 30.006 184.92C29.766 185.316 29.432 185.626 29.004 185.85C28.58 186.07 28.092 186.18 27.54 186.18ZM27.54 185.16C28.044 185.16 28.452 185.022 28.764 184.746C29.08 184.466 29.238 184.062 29.238 183.534C29.238 183.002 29.082 182.598 28.77 182.322C28.462 182.042 28.052 181.902 27.54 181.902C27.032 181.902 26.622 182.042 26.31 182.322C26.002 182.598 25.848 183.002 25.848 183.534C25.848 184.062 26.004 184.466 26.316 184.746C26.628 185.022 27.036 185.16 27.54 185.16ZM27.54 180.876C27.98 180.876 28.336 180.766 28.608 180.546C28.88 180.322 29.016 179.988 29.016 179.544C29.016 179.1 28.88 178.768 28.608 178.548C28.336 178.324 27.98 178.212 27.54 178.212C27.104 178.212 26.748 178.324 26.472 178.548C26.2 178.768 26.064 179.1 26.064 179.544C26.064 179.988 26.2 180.322 26.472 180.546C26.748 180.766 27.104 180.876 27.54 180.876ZM34.9658 186.18C34.4058 186.18 33.9058 186.054 33.4658 185.802C33.0298 185.546 32.6838 185.2 32.4278 184.764C32.1758 184.324 32.0498 183.824 32.0498 183.264V180.096C32.0498 179.536 32.1758 179.036 32.4278 178.596C32.6838 178.156 33.0298 177.81 33.4658 177.558C33.9058 177.306 34.4058 177.18 34.9658 177.18C35.5258 177.18 36.0258 177.306 36.4658 177.558C36.9058 177.81 37.2518 178.156 37.5038 178.596C37.7558 179.036 37.8818 179.536 37.8818 180.096V183.264C37.8818 183.824 37.7558 184.324 37.5038 184.764C37.2518 185.2 36.9058 185.546 36.4658 185.802C36.0258 186.054 35.5258 186.18 34.9658 186.18ZM34.9658 185.154C35.3058 185.154 35.6138 185.072 35.8898 184.908C36.1658 184.744 36.3858 184.524 36.5498 184.248C36.7138 183.968 36.7958 183.66 36.7958 183.324V180.03C36.7958 179.69 36.7138 179.382 36.5498 179.106C36.3858 178.83 36.1658 178.61 35.8898 178.446C35.6138 178.282 35.3058 178.2 34.9658 178.2C34.6298 178.2 34.3218 178.282 34.0418 178.446C33.7658 178.61 33.5458 178.83 33.3818 179.106C33.2178 179.382 33.1358 179.69 33.1358 180.03V183.324C33.1358 183.66 33.2178 183.968 33.3818 184.248C33.5458 184.524 33.7658 184.744 34.0418 184.908C34.3218 185.072 34.6298 185.154 34.9658 185.154ZM39.6816 186V177.36H40.7496V181.416L44.5296 177.36H45.8736L41.9496 181.554L46.1796 186H44.7996L40.7496 181.776V186H39.6816Z" fill="#1F1F21" fill-opacity="0.56"/>
<path d="M27.396 240.848C26.952 240.848 26.538 240.756 26.154 240.572C25.774 240.388 25.448 240.136 25.176 239.816C24.908 239.492 24.716 239.12 24.6 238.7L25.626 238.424C25.698 238.708 25.826 238.954 26.01 239.162C26.194 239.366 26.408 239.526 26.652 239.642C26.9 239.754 27.158 239.81 27.426 239.81C27.778 239.81 28.094 239.726 28.374 239.558C28.658 239.386 28.882 239.16 29.046 238.88C29.21 238.596 29.292 238.286 29.292 237.95C29.292 237.602 29.206 237.288 29.034 237.008C28.866 236.724 28.64 236.5 28.356 236.336C28.072 236.172 27.762 236.09 27.426 236.09C27.046 236.09 26.72 236.17 26.448 236.33C26.18 236.486 25.968 236.678 25.812 236.906L24.864 236.546L25.128 232.028H29.766V233.042H25.644L26.118 232.598L25.896 236.216L25.662 235.91C25.902 235.654 26.188 235.456 26.52 235.316C26.856 235.176 27.198 235.106 27.546 235.106C28.082 235.106 28.562 235.232 28.986 235.484C29.41 235.732 29.746 236.072 29.994 236.504C30.242 236.932 30.366 237.414 30.366 237.95C30.366 238.482 30.23 238.968 29.958 239.408C29.686 239.844 29.324 240.194 28.872 240.458C28.424 240.718 27.932 240.848 27.396 240.848ZM34.8369 240.848C34.2769 240.848 33.7769 240.722 33.3369 240.47C32.9009 240.214 32.5549 239.868 32.2989 239.432C32.0469 238.992 31.9209 238.492 31.9209 237.932V234.764C31.9209 234.204 32.0469 233.704 32.2989 233.264C32.5549 232.824 32.9009 232.478 33.3369 232.226C33.7769 231.974 34.2769 231.848 34.8369 231.848C35.3969 231.848 35.8969 231.974 36.3369 232.226C36.7769 232.478 37.1229 232.824 37.3749 233.264C37.6269 233.704 37.7529 234.204 37.7529 234.764V237.932C37.7529 238.492 37.6269 238.992 37.3749 239.432C37.1229 239.868 36.7769 240.214 36.3369 240.47C35.8969 240.722 35.3969 240.848 34.8369 240.848ZM34.8369 239.822C35.1769 239.822 35.4849 239.74 35.7609 239.576C36.0369 239.412 36.2569 239.192 36.4209 238.916C36.5849 238.636 36.6669 238.328 36.6669 237.992V234.698C36.6669 234.358 36.5849 234.05 36.4209 233.774C36.2569 233.498 36.0369 233.278 35.7609 233.114C35.4849 232.95 35.1769 232.868 34.8369 232.868C34.5009 232.868 34.1929 232.95 33.9129 233.114C33.6369 233.278 33.4169 233.498 33.2529 233.774C33.0889 234.05 33.0069 234.358 33.0069 234.698V237.992C33.0069 238.328 33.0889 238.636 33.2529 238.916C33.4169 239.192 33.6369 239.412 33.9129 239.576C34.1929 239.74 34.5009 239.822 34.8369 239.822ZM39.5527 240.668V232.028H40.6207V236.084L44.4007 232.028H45.7447L41.8207 236.222L46.0507 240.668H44.6707L40.6207 236.444V240.668H39.5527Z" fill="#1F1F21" fill-opacity="0.56"/>
<path d="M24.6 295.326L24.606 294.366L28.44 290.916C28.76 290.628 28.974 290.356 29.082 290.1C29.194 289.84 29.25 289.574 29.25 289.302C29.25 288.97 29.174 288.67 29.022 288.402C28.87 288.134 28.662 287.922 28.398 287.766C28.138 287.61 27.842 287.532 27.51 287.532C27.166 287.532 26.86 287.614 26.592 287.778C26.324 287.938 26.112 288.152 25.956 288.42C25.804 288.688 25.73 288.98 25.734 289.296H24.642C24.642 288.752 24.768 288.272 25.02 287.856C25.272 287.436 25.614 287.108 26.046 286.872C26.482 286.632 26.976 286.512 27.528 286.512C28.064 286.512 28.544 286.636 28.968 286.884C29.392 287.128 29.726 287.462 29.97 287.886C30.218 288.306 30.342 288.782 30.342 289.314C30.342 289.69 30.294 290.016 30.198 290.292C30.106 290.568 29.962 290.824 29.766 291.06C29.57 291.292 29.324 291.54 29.028 291.804L25.842 294.666L25.704 294.306H30.342V295.326H24.6ZM34.4535 295.512C34.0095 295.512 33.5955 295.42 33.2115 295.236C32.8315 295.052 32.5055 294.8 32.2335 294.48C31.9655 294.156 31.7735 293.784 31.6575 293.364L32.6835 293.088C32.7555 293.372 32.8835 293.618 33.0675 293.826C33.2515 294.03 33.4655 294.19 33.7095 294.306C33.9575 294.418 34.2155 294.474 34.4835 294.474C34.8355 294.474 35.1515 294.39 35.4315 294.222C35.7155 294.05 35.9395 293.824 36.1035 293.544C36.2675 293.26 36.3495 292.95 36.3495 292.614C36.3495 292.266 36.2635 291.952 36.0915 291.672C35.9235 291.388 35.6975 291.164 35.4135 291C35.1295 290.836 34.8195 290.754 34.4835 290.754C34.1035 290.754 33.7775 290.834 33.5055 290.994C33.2375 291.15 33.0255 291.342 32.8695 291.57L31.9215 291.21L32.1855 286.692H36.8235V287.706H32.7015L33.1755 287.262L32.9535 290.88L32.7195 290.574C32.9595 290.318 33.2455 290.12 33.5775 289.98C33.9135 289.84 34.2555 289.77 34.6035 289.77C35.1395 289.77 35.6195 289.896 36.0435 290.148C36.4675 290.396 36.8035 290.736 37.0515 291.168C37.2995 291.596 37.4235 292.078 37.4235 292.614C37.4235 293.146 37.2875 293.632 37.0155 294.072C36.7435 294.508 36.3815 294.858 35.9295 295.122C35.4815 295.382 34.9895 295.512 34.4535 295.512ZM38.9784 295.332V286.692H40.0464V290.748L43.8264 286.692H45.1704L41.2464 290.886L45.4764 295.332H44.0964L40.0464 291.108V295.332H38.9784Z" fill="#1F1F21" fill-opacity="0.56"/>
<path d="M27.756 350.18C27.196 350.18 26.696 350.054 26.256 349.802C25.82 349.546 25.474 349.2 25.218 348.764C24.966 348.324 24.84 347.824 24.84 347.264V344.096C24.84 343.536 24.966 343.036 25.218 342.596C25.474 342.156 25.82 341.81 26.256 341.558C26.696 341.306 27.196 341.18 27.756 341.18C28.316 341.18 28.816 341.306 29.256 341.558C29.696 341.81 30.042 342.156 30.294 342.596C30.546 343.036 30.672 343.536 30.672 344.096V347.264C30.672 347.824 30.546 348.324 30.294 348.764C30.042 349.2 29.696 349.546 29.256 349.802C28.816 350.054 28.316 350.18 27.756 350.18ZM27.756 349.154C28.096 349.154 28.404 349.072 28.68 348.908C28.956 348.744 29.176 348.524 29.34 348.248C29.504 347.968 29.586 347.66 29.586 347.324V344.03C29.586 343.69 29.504 343.382 29.34 343.106C29.176 342.83 28.956 342.61 28.68 342.446C28.404 342.282 28.096 342.2 27.756 342.2C27.42 342.2 27.112 342.282 26.832 342.446C26.556 342.61 26.336 342.83 26.172 343.106C26.008 343.382 25.926 343.69 25.926 344.03V347.324C25.926 347.66 26.008 347.968 26.172 348.248C26.336 348.524 26.556 348.744 26.832 348.908C27.112 349.072 27.42 349.154 27.756 349.154ZM32.4717 350V341.36H33.5397V345.416L37.3197 341.36H38.6637L34.7397 345.554L38.9697 350H37.5897L33.5397 345.776V350H32.4717Z" fill="#1F1F21" fill-opacity="0.56"/>
<path d="M69.9277 164V350C69.9277 356.627 75.3003 362 81.9277 362H505.071C511.699 362 517.071 356.627 517.071 350V164" stroke="#E6E6EA"/>
<path d="M145.102 241.34L69.9277 260.418V292.902L144.126 291.871L218.325 277.949L292.523 305.277L369.162 296.512L442.873 302.184L517.071 258.871V215.559L442.873 253.715L369.162 230.512L292.523 249.59L218.325 217.621L145.102 241.34Z" fill="#F0E8FF"/>
<path d="M70.416 246.754L144.126 227.676L215.946 203.876C217.793 203.264 219.801 203.346 221.593 204.108L291.531 233.85C293.126 234.528 294.897 234.67 296.579 234.255L367.01 216.863C368.418 216.516 369.895 216.557 371.281 216.984L439.857 238.091C441.795 238.688 443.887 238.526 445.71 237.639L517.071 202.926" stroke="#E6E6EA"/>
<ellipse cx="218" cy="202.984" rx="3" ry="3" fill="#711BFE"/>
<ellipse cx="443" cy="238.996" rx="3" ry="3" fill="#711BFE"/>
<ellipse cx="517" cy="202.984" rx="3" ry="3" fill="#711BFE"/>
<path d="M69.9277 314.496L143.492 313.474C143.914 313.468 144.335 313.429 144.751 313.356L216.285 300.929C217.623 300.696 218.998 300.808 220.28 301.254L292.304 326.286C293.413 326.671 294.593 326.808 295.76 326.686L367.469 319.211C367.946 319.162 368.427 319.155 368.905 319.191L440.387 324.62C442.006 324.743 443.624 324.37 445.026 323.552L517.071 281.496" stroke="#E6E6EA"/>
<ellipse cx="517" cy="282" rx="3" ry="3" fill="#711BFE"/>
<ellipse cx="443" cy="325" rx="3" ry="3" fill="#711BFE"/>
<ellipse cx="218" cy="301.004" rx="3" ry="3" fill="#711BFE"/>
<ellipse cx="70" cy="315.008" rx="3" ry="3" fill="#711BFE"/>
<ellipse cx="294.5" cy="234.973" rx="3" ry="3" fill="#1F1F21"/>
<ellipse cx="294.5" cy="326.973" rx="3" ry="3" fill="#1F1F21"/>
<path d="M294.25 237.977V323.982" stroke="#2A2A2A"/>
<path d="M261.998 273.148C261.998 265.416 268.266 259.148 275.998 259.148H313.998C321.73 259.148 327.998 265.416 327.998 273.148C327.998 280.88 321.73 287.148 313.998 287.148H275.998C268.266 287.148 261.998 280.88 261.998 273.148Z" fill="#1F1F21"/>
<path d="M277.779 276.293V273.619H275.105V272.59H277.779V269.923H278.808V272.59H281.475V273.619H278.808V276.293H277.779ZM287.792 278.148V276.293H283.158V275.11L286.483 268.068H287.897L284.572 275.11H287.792V272.275H289.052V275.11H290.102V276.293H289.052V278.148H287.792ZM291.504 279.716L291.581 279.135C291.777 279.149 291.924 279.112 292.022 279.023C292.12 278.935 292.183 278.813 292.211 278.659C292.239 278.505 292.244 278.335 292.225 278.148H291.504V276.566H292.876V278.358C292.876 278.848 292.755 279.217 292.512 279.464C292.274 279.712 291.938 279.796 291.504 279.716ZM298.831 278.358C298.187 278.358 297.617 278.23 297.123 277.973C296.628 277.712 296.241 277.35 295.961 276.888C295.681 276.426 295.541 275.887 295.541 275.271C295.541 274.669 295.683 274.126 295.968 273.64C296.257 273.155 296.691 272.782 297.27 272.52L297.249 272.975C296.777 272.747 296.416 272.425 296.164 272.009C295.912 271.589 295.786 271.125 295.786 270.616C295.786 270.047 295.916 269.557 296.178 269.146C296.439 268.736 296.798 268.418 297.256 268.194C297.713 267.97 298.238 267.858 298.831 267.858C299.423 267.858 299.948 267.97 300.406 268.194C300.863 268.418 301.222 268.736 301.484 269.146C301.745 269.557 301.876 270.047 301.876 270.616C301.876 271.125 301.757 271.587 301.519 272.002C301.281 272.413 300.914 272.737 300.42 272.975L300.392 272.527C300.97 272.779 301.404 273.15 301.694 273.64C301.988 274.126 302.135 274.669 302.135 275.271C302.135 275.887 301.992 276.426 301.708 276.888C301.428 277.35 301.038 277.712 300.539 277.973C300.044 278.23 299.475 278.358 298.831 278.358ZM298.831 277.168C299.419 277.168 299.895 277.007 300.259 276.685C300.627 276.359 300.812 275.887 300.812 275.271C300.812 274.651 300.63 274.179 300.266 273.857C299.906 273.531 299.428 273.367 298.831 273.367C298.238 273.367 297.76 273.531 297.396 273.857C297.036 274.179 296.857 274.651 296.857 275.271C296.857 275.887 297.039 276.359 297.403 276.685C297.767 277.007 298.243 277.168 298.831 277.168ZM298.831 272.17C299.344 272.17 299.759 272.042 300.077 271.785C300.394 271.524 300.553 271.134 300.553 270.616C300.553 270.098 300.394 269.711 300.077 269.454C299.759 269.193 299.344 269.062 298.831 269.062C298.322 269.062 297.907 269.193 297.585 269.454C297.267 269.711 297.109 270.098 297.109 270.616C297.109 271.134 297.267 271.524 297.585 271.785C297.907 272.042 298.322 272.17 298.831 272.17ZM305.212 278.148L304.372 277.308L313.626 268.068L314.466 268.908L305.212 278.148ZM312.366 278.358C311.904 278.358 311.482 278.246 311.099 278.022C310.721 277.794 310.418 277.49 310.189 277.112C309.96 276.73 309.846 276.305 309.846 275.838C309.846 275.381 309.963 274.961 310.196 274.578C310.429 274.196 310.737 273.89 311.12 273.661C311.503 273.433 311.918 273.318 312.366 273.318C312.828 273.318 313.25 273.433 313.633 273.661C314.016 273.885 314.319 274.189 314.543 274.571C314.772 274.949 314.886 275.372 314.886 275.838C314.886 276.305 314.772 276.73 314.543 277.112C314.319 277.49 314.016 277.794 313.633 278.022C313.25 278.246 312.828 278.358 312.366 278.358ZM312.366 277.259C312.623 277.259 312.858 277.194 313.073 277.063C313.292 276.933 313.465 276.76 313.591 276.545C313.722 276.331 313.787 276.095 313.787 275.838C313.787 275.582 313.722 275.346 313.591 275.131C313.465 274.912 313.292 274.739 313.073 274.613C312.858 274.483 312.623 274.417 312.366 274.417C312.109 274.417 311.874 274.483 311.659 274.613C311.444 274.739 311.272 274.912 311.141 275.131C311.01 275.346 310.945 275.582 310.945 275.838C310.945 276.095 311.01 276.331 311.141 276.545C311.272 276.76 311.444 276.933 311.659 277.063C311.874 277.194 312.109 277.259 312.366 277.259ZM306.472 272.898C306.01 272.898 305.588 272.786 305.205 272.562C304.822 272.334 304.517 272.03 304.288 271.652C304.064 271.27 303.952 270.845 303.952 270.378C303.952 269.921 304.069 269.501 304.302 269.118C304.535 268.736 304.843 268.43 305.226 268.201C305.609 267.973 306.024 267.858 306.472 267.858C306.934 267.858 307.354 267.973 307.732 268.201C308.115 268.425 308.42 268.729 308.649 269.111C308.878 269.489 308.992 269.912 308.992 270.378C308.992 270.845 308.878 271.27 308.649 271.652C308.42 272.03 308.115 272.334 307.732 272.562C307.354 272.786 306.934 272.898 306.472 272.898ZM306.472 271.799C306.729 271.799 306.964 271.734 307.179 271.603C307.398 271.473 307.571 271.3 307.697 271.085C307.828 270.871 307.893 270.635 307.893 270.378C307.893 270.122 307.828 269.886 307.697 269.671C307.571 269.452 307.398 269.279 307.179 269.153C306.964 269.023 306.729 268.957 306.472 268.957C306.215 268.957 305.98 269.023 305.765 269.153C305.55 269.279 305.378 269.452 305.247 269.671C305.116 269.886 305.051 270.122 305.051 270.378C305.051 270.635 305.116 270.871 305.247 271.085C305.378 271.3 305.55 271.473 305.765 271.603C305.98 271.734 306.215 271.799 306.472 271.799Z" fill="white"/>
<ellipse cx="70" cy="246.996" rx="3" ry="3" fill="#711BFE"/>
<ellipse cx="144" cy="227.996" rx="3" ry="3" fill="#711BFE"/>
<ellipse cx="144" cy="314.004" rx="3" ry="3" fill="#711BFE"/>
<ellipse cx="369" cy="217" rx="3" ry="3" fill="#711BFE"/>
<ellipse cx="369" cy="318.992" rx="3" ry="3" fill="#711BFE"/>
<path d="M85.4 390.174C84.796 390.174 84.284 390.01 83.864 389.682C83.444 389.354 83.156 388.914 83 388.362L84.062 388.11C84.126 388.402 84.28 388.65 84.524 388.854C84.772 389.058 85.056 389.16 85.376 389.16C85.584 389.16 85.796 389.11 86.012 389.01C86.228 388.906 86.394 388.738 86.51 388.506C86.59 388.346 86.636 388.17 86.648 387.978C86.66 387.782 86.666 387.552 86.666 387.288V381.36H87.746V387.288C87.746 387.536 87.744 387.758 87.74 387.954C87.74 388.15 87.72 388.338 87.68 388.518C87.644 388.694 87.572 388.874 87.464 389.058C87.248 389.438 86.958 389.72 86.594 389.904C86.234 390.084 85.836 390.174 85.4 390.174ZM91.509 390.18C91.025 390.18 90.619 390.092 90.291 389.916C89.967 389.736 89.721 389.5 89.553 389.208C89.389 388.916 89.307 388.596 89.307 388.248C89.307 387.908 89.371 387.614 89.499 387.366C89.631 387.114 89.815 386.906 90.051 386.742C90.287 386.574 90.569 386.442 90.897 386.346C91.205 386.262 91.549 386.19 91.929 386.13C92.313 386.066 92.701 386.008 93.093 385.956C93.485 385.904 93.851 385.854 94.191 385.806L93.807 386.028C93.819 385.452 93.703 385.026 93.459 384.75C93.219 384.474 92.803 384.336 92.211 384.336C91.819 384.336 91.475 384.426 91.179 384.606C90.887 384.782 90.681 385.07 90.561 385.47L89.547 385.164C89.703 384.596 90.005 384.15 90.453 383.826C90.901 383.502 91.491 383.34 92.223 383.34C92.811 383.34 93.315 383.446 93.735 383.658C94.159 383.866 94.463 384.182 94.647 384.606C94.739 384.806 94.797 385.024 94.821 385.26C94.845 385.492 94.857 385.736 94.857 385.992V390H93.909V388.446L94.131 388.59C93.887 389.114 93.545 389.51 93.105 389.778C92.669 390.046 92.137 390.18 91.509 390.18ZM91.671 389.286C92.055 389.286 92.387 389.218 92.667 389.082C92.951 388.942 93.179 388.76 93.351 388.536C93.523 388.308 93.635 388.06 93.687 387.792C93.747 387.592 93.779 387.37 93.783 387.126C93.791 386.878 93.795 386.688 93.795 386.556L94.167 386.718C93.819 386.766 93.477 386.812 93.141 386.856C92.805 386.9 92.487 386.948 92.187 387C91.887 387.048 91.617 387.106 91.377 387.174C91.201 387.23 91.035 387.302 90.879 387.39C90.727 387.478 90.603 387.592 90.507 387.732C90.415 387.868 90.369 388.038 90.369 388.242C90.369 388.418 90.413 388.586 90.501 388.746C90.593 388.906 90.733 389.036 90.921 389.136C91.113 389.236 91.363 389.286 91.671 389.286ZM101.151 390V386.754C101.151 386.446 101.123 386.15 101.067 385.866C101.015 385.582 100.921 385.328 100.785 385.104C100.653 384.876 100.473 384.696 100.245 384.564C100.021 384.432 99.737 384.366 99.393 384.366C99.125 384.366 98.881 384.412 98.661 384.504C98.445 384.592 98.259 384.728 98.103 384.912C97.947 385.096 97.825 385.328 97.737 385.608C97.653 385.884 97.611 386.21 97.611 386.586L96.909 386.37C96.909 385.742 97.021 385.204 97.245 384.756C97.473 384.304 97.791 383.958 98.199 383.718C98.611 383.474 99.095 383.352 99.651 383.352C100.071 383.352 100.429 383.418 100.725 383.55C101.021 383.682 101.267 383.858 101.463 384.078C101.659 384.294 101.813 384.538 101.925 384.81C102.037 385.078 102.115 385.352 102.159 385.632C102.207 385.908 102.231 386.17 102.231 386.418V390H101.151ZM96.531 390V383.52H97.491V385.254H97.611V390H96.531Z" fill="#1F1F21" fill-opacity="0.56"/>
<path d="M182.34 390V381.36H187.38V382.428H183.408V385.146H186.66V386.214H183.408V390H182.34ZM191.209 390.18C190.573 390.18 190.017 390.04 189.541 389.76C189.069 389.476 188.701 389.082 188.437 388.578C188.173 388.07 188.041 387.478 188.041 386.802C188.041 386.094 188.171 385.482 188.431 384.966C188.691 384.446 189.053 384.046 189.517 383.766C189.985 383.482 190.533 383.34 191.161 383.34C191.813 383.34 192.367 383.49 192.823 383.79C193.283 384.09 193.627 384.518 193.855 385.074C194.087 385.63 194.187 386.292 194.155 387.06H193.075V386.676C193.063 385.88 192.901 385.286 192.589 384.894C192.277 384.498 191.813 384.3 191.197 384.3C190.537 384.3 190.035 384.512 189.691 384.936C189.347 385.36 189.175 385.968 189.175 386.76C189.175 387.524 189.347 388.116 189.691 388.536C190.035 388.956 190.525 389.166 191.161 389.166C191.589 389.166 191.961 389.068 192.277 388.872C192.593 388.676 192.841 388.394 193.021 388.026L194.047 388.38C193.795 388.952 193.415 389.396 192.907 389.712C192.403 390.024 191.837 390.18 191.209 390.18ZM188.815 387.06V386.202H193.603V387.06H188.815ZM198.587 390.18C197.979 390.18 197.467 390.03 197.051 389.73C196.635 389.426 196.319 389.016 196.103 388.5C195.891 387.98 195.785 387.398 195.785 386.754C195.785 386.102 195.891 385.518 196.103 385.002C196.319 384.486 196.635 384.08 197.051 383.784C197.471 383.488 197.985 383.34 198.593 383.34C199.193 383.34 199.709 383.49 200.141 383.79C200.577 384.086 200.911 384.492 201.143 385.008C201.375 385.524 201.491 386.106 201.491 386.754C201.491 387.402 201.375 387.984 201.143 388.5C200.911 389.016 200.577 389.426 200.141 389.73C199.709 390.03 199.191 390.18 198.587 390.18ZM195.605 390V381.36H196.679V385.23H196.559V390H195.605ZM198.455 389.202C198.883 389.202 199.237 389.094 199.517 388.878C199.797 388.662 200.007 388.37 200.147 388.002C200.287 387.63 200.357 387.214 200.357 386.754C200.357 386.298 200.287 385.886 200.147 385.518C200.011 385.15 199.799 384.858 199.511 384.642C199.227 384.426 198.865 384.318 198.425 384.318C198.005 384.318 197.657 384.422 197.381 384.63C197.105 384.834 196.899 385.12 196.763 385.488C196.627 385.852 196.559 386.274 196.559 386.754C196.559 387.226 196.625 387.648 196.757 388.02C196.893 388.388 197.101 388.678 197.381 388.89C197.661 389.098 198.019 389.202 198.455 389.202Z" fill="#1F1F21" fill-opacity="0.56"/>
<path d="M281.84 390V381.36H282.812L286.076 388.242L289.322 381.36H290.306V389.994H289.292V383.706L286.358 390H285.788L282.854 383.706V390H281.84ZM293.95 390.18C293.466 390.18 293.06 390.092 292.732 389.916C292.408 389.736 292.162 389.5 291.994 389.208C291.83 388.916 291.748 388.596 291.748 388.248C291.748 387.908 291.812 387.614 291.94 387.366C292.072 387.114 292.256 386.906 292.492 386.742C292.728 386.574 293.01 386.442 293.338 386.346C293.646 386.262 293.99 386.19 294.37 386.13C294.754 386.066 295.142 386.008 295.534 385.956C295.926 385.904 296.292 385.854 296.632 385.806L296.248 386.028C296.26 385.452 296.144 385.026 295.9 384.75C295.66 384.474 295.244 384.336 294.652 384.336C294.26 384.336 293.916 384.426 293.62 384.606C293.328 384.782 293.122 385.07 293.002 385.47L291.988 385.164C292.144 384.596 292.446 384.15 292.894 383.826C293.342 383.502 293.932 383.34 294.664 383.34C295.252 383.34 295.756 383.446 296.176 383.658C296.6 383.866 296.904 384.182 297.088 384.606C297.18 384.806 297.238 385.024 297.262 385.26C297.286 385.492 297.298 385.736 297.298 385.992V390H296.35V388.446L296.572 388.59C296.328 389.114 295.986 389.51 295.546 389.778C295.11 390.046 294.578 390.18 293.95 390.18ZM294.112 389.286C294.496 389.286 294.828 389.218 295.108 389.082C295.392 388.942 295.62 388.76 295.792 388.536C295.964 388.308 296.076 388.06 296.128 387.792C296.188 387.592 296.22 387.37 296.224 387.126C296.232 386.878 296.236 386.688 296.236 386.556L296.608 386.718C296.26 386.766 295.918 386.812 295.582 386.856C295.246 386.9 294.928 386.948 294.628 387C294.328 387.048 294.058 387.106 293.818 387.174C293.642 387.23 293.476 387.302 293.32 387.39C293.168 387.478 293.044 387.592 292.948 387.732C292.856 387.868 292.81 388.038 292.81 388.242C292.81 388.418 292.854 388.586 292.942 388.746C293.034 388.906 293.174 389.036 293.362 389.136C293.554 389.236 293.804 389.286 294.112 389.286ZM298.978 390V383.52H299.932V385.086L299.776 384.882C299.852 384.682 299.95 384.498 300.07 384.33C300.194 384.162 300.332 384.024 300.484 383.916C300.652 383.78 300.842 383.676 301.054 383.604C301.266 383.532 301.482 383.49 301.702 383.478C301.922 383.462 302.128 383.476 302.32 383.52V384.522C302.096 384.462 301.85 384.446 301.582 384.474C301.314 384.502 301.066 384.6 300.838 384.768C300.63 384.916 300.468 385.096 300.352 385.308C300.24 385.52 300.162 385.75 300.118 385.998C300.074 386.242 300.052 386.492 300.052 386.748V390H298.978Z" fill="#1F1F21" fill-opacity="0.56"/>
<path d="M381.74 390L384.632 381.36H386.12L389.012 390H387.902L385.196 381.984H385.532L382.85 390H381.74ZM383.132 387.978V386.976H387.62V387.978H383.132ZM393.182 390.18C392.574 390.18 392.062 390.03 391.646 389.73C391.23 389.426 390.914 389.016 390.698 388.5C390.486 387.98 390.38 387.398 390.38 386.754C390.38 386.102 390.486 385.518 390.698 385.002C390.914 384.486 391.23 384.08 391.646 383.784C392.066 383.488 392.58 383.34 393.188 383.34C393.788 383.34 394.304 383.49 394.736 383.79C395.172 384.086 395.506 384.492 395.738 385.008C395.97 385.524 396.086 386.106 396.086 386.754C396.086 387.402 395.97 387.984 395.738 388.5C395.506 389.016 395.172 389.426 394.736 389.73C394.304 390.03 393.786 390.18 393.182 390.18ZM390.2 392.88V383.52H391.154V388.29H391.274V392.88H390.2ZM393.05 389.202C393.478 389.202 393.832 389.094 394.112 388.878C394.392 388.662 394.602 388.37 394.742 388.002C394.882 387.63 394.952 387.214 394.952 386.754C394.952 386.298 394.882 385.886 394.742 385.518C394.606 385.15 394.394 384.858 394.106 384.642C393.822 384.426 393.46 384.318 393.02 384.318C392.6 384.318 392.252 384.422 391.976 384.63C391.7 384.834 391.494 385.12 391.358 385.488C391.222 385.852 391.154 386.274 391.154 386.754C391.154 387.226 391.22 387.648 391.352 388.02C391.488 388.388 391.696 388.678 391.976 388.89C392.256 389.098 392.614 389.202 393.05 389.202ZM397.521 390V383.52H398.475V385.086L398.319 384.882C398.395 384.682 398.493 384.498 398.613 384.33C398.737 384.162 398.875 384.024 399.027 383.916C399.195 383.78 399.385 383.676 399.597 383.604C399.809 383.532 400.025 383.49 400.245 383.478C400.465 383.462 400.671 383.476 400.863 383.52V384.522C400.639 384.462 400.393 384.446 400.125 384.474C399.857 384.502 399.609 384.6 399.381 384.768C399.173 384.916 399.011 385.096 398.895 385.308C398.783 385.52 398.705 385.75 398.661 385.998C398.617 386.242 398.595 386.492 398.595 386.748V390H397.521Z" fill="#1F1F21" fill-opacity="0.56"/>
<path d="M480.84 390V381.36H481.812L485.076 388.242L488.322 381.36H489.306V389.994H488.292V383.706L485.358 390H484.788L481.854 383.706V390H480.84ZM492.95 390.18C492.466 390.18 492.06 390.092 491.732 389.916C491.408 389.736 491.162 389.5 490.994 389.208C490.83 388.916 490.748 388.596 490.748 388.248C490.748 387.908 490.812 387.614 490.94 387.366C491.072 387.114 491.256 386.906 491.492 386.742C491.728 386.574 492.01 386.442 492.338 386.346C492.646 386.262 492.99 386.19 493.37 386.13C493.754 386.066 494.142 386.008 494.534 385.956C494.926 385.904 495.292 385.854 495.632 385.806L495.248 386.028C495.26 385.452 495.144 385.026 494.9 384.75C494.66 384.474 494.244 384.336 493.652 384.336C493.26 384.336 492.916 384.426 492.62 384.606C492.328 384.782 492.122 385.07 492.002 385.47L490.988 385.164C491.144 384.596 491.446 384.15 491.894 383.826C492.342 383.502 492.932 383.34 493.664 383.34C494.252 383.34 494.756 383.446 495.176 383.658C495.6 383.866 495.904 384.182 496.088 384.606C496.18 384.806 496.238 385.024 496.262 385.26C496.286 385.492 496.298 385.736 496.298 385.992V390H495.35V388.446L495.572 388.59C495.328 389.114 494.986 389.51 494.546 389.778C494.11 390.046 493.578 390.18 492.95 390.18ZM493.112 389.286C493.496 389.286 493.828 389.218 494.108 389.082C494.392 388.942 494.62 388.76 494.792 388.536C494.964 388.308 495.076 388.06 495.128 387.792C495.188 387.592 495.22 387.37 495.224 387.126C495.232 386.878 495.236 386.688 495.236 386.556L495.608 386.718C495.26 386.766 494.918 386.812 494.582 386.856C494.246 386.9 493.928 386.948 493.628 387C493.328 387.048 493.058 387.106 492.818 387.174C492.642 387.23 492.476 387.302 492.32 387.39C492.168 387.478 492.044 387.592 491.948 387.732C491.856 387.868 491.81 388.038 491.81 388.242C491.81 388.418 491.854 388.586 491.942 388.746C492.034 388.906 492.174 389.036 492.362 389.136C492.554 389.236 492.804 389.286 493.112 389.286ZM498.515 392.88L499.769 389.472L499.787 390.48L496.955 383.52H498.077L500.297 389.118H499.913L501.995 383.52H503.081L499.553 392.88H498.515Z" fill="#1F1F21" fill-opacity="0.56"/>
</svg>
