<svg width="544" height="420" viewBox="0 0 544 420" fill="none" xmlns="http://www.w3.org/2000/svg">
<path d="M0 16C0 7.16344 7.16344 0 16 0H528C536.837 0 544 7.16344 544 16V404C544 412.837 536.837 420 528 420H16C7.16346 420 0 412.837 0 404V16Z" fill="white"/>
<path d="M30.7891 47.0547H26.9922L26.0781 50H24.6328L28.3047 38.625H29.5156L33.125 50H31.6875L30.7891 47.0547ZM27.3828 45.7969H30.4062L28.9062 40.8594L27.3828 45.7969ZM37.9978 50L34.4041 38.625H35.9509L38.4509 47.1172L38.615 47.6719L38.7869 47.1016L41.3025 38.625H42.8416L39.2556 50H37.9978ZM50.4878 47.0547H46.6909L45.7769 50H44.3316L48.0034 38.625H49.2144L52.8237 50H51.3862L50.4878 47.0547ZM47.0816 45.7969H50.105L48.605 40.8594L47.0816 45.7969ZM58.6731 45.3594H56.3997V50H54.9622V38.625H58.2981C58.8294 38.6354 59.3294 38.7109 59.7981 38.8516C60.2669 38.9922 60.6783 39.2031 61.0325 39.4844C61.3815 39.7656 61.6549 40.1198 61.8528 40.5469C62.0559 40.9688 62.1575 41.4661 62.1575 42.0391C62.1575 42.4089 62.1028 42.7474 61.9934 43.0547C61.8893 43.362 61.7434 43.6406 61.5559 43.8906C61.3684 44.1406 61.1445 44.362 60.8841 44.5547C60.6236 44.7474 60.3372 44.9115 60.0247 45.0469L62.4387 49.9062L62.4309 50H60.9075L58.6731 45.3594ZM56.3997 44.1719H58.3372C58.6601 44.1667 58.9648 44.1172 59.2512 44.0234C59.5377 43.9245 59.7903 43.7839 60.0091 43.6016C60.2226 43.4193 60.3919 43.1979 60.5169 42.9375C60.6419 42.6719 60.7044 42.3672 60.7044 42.0234C60.7044 41.6589 60.6445 41.3411 60.5247 41.0703C60.4049 40.7943 60.2382 40.5625 60.0247 40.375C59.8111 40.1927 59.5559 40.0547 59.2591 39.9609C58.9674 39.8672 58.6471 39.8177 58.2981 39.8125H56.3997V44.1719ZM70.1866 47.0547H66.3897L65.4756 50H64.0303L67.7022 38.625H68.9131L72.5225 50H71.085L70.1866 47.0547ZM66.7803 45.7969H69.8037L68.3037 40.8594L66.7803 45.7969ZM81.9656 48.5078C81.7885 48.7161 81.601 48.9062 81.4031 49.0781C81.2052 49.2448 80.9995 49.3906 80.7859 49.5156C80.4214 49.7344 80.0281 49.8958 79.6063 50C79.1844 50.1094 78.7417 50.1615 78.2781 50.1562C77.8094 50.151 77.3771 50.0807 76.9813 49.9453C76.5906 49.8047 76.2391 49.612 75.9266 49.3672C75.6141 49.1276 75.3406 48.8438 75.1063 48.5156C74.8719 48.1875 74.6766 47.8307 74.5203 47.4453C74.3589 47.0651 74.2365 46.6667 74.1531 46.25C74.075 45.8281 74.0333 45.4036 74.0281 44.9766V43.6562C74.0333 43.2344 74.0698 42.8151 74.1375 42.3984C74.2104 41.9766 74.3198 41.5729 74.4656 41.1875C74.6115 40.8021 74.7938 40.4453 75.0125 40.1172C75.2313 39.7839 75.4943 39.4948 75.8016 39.25C76.1036 39.0104 76.4474 38.8203 76.8328 38.6797C77.2182 38.5391 77.6505 38.4688 78.1297 38.4688C78.6609 38.4688 79.1505 38.5521 79.5984 38.7188C80.0464 38.8802 80.437 39.112 80.7703 39.4141C81.1036 39.7214 81.3719 40.0911 81.575 40.5234C81.7781 40.9505 81.9031 41.4297 81.95 41.9609H80.5203C80.463 41.6328 80.3745 41.3307 80.2547 41.0547C80.1349 40.7734 79.9786 40.5339 79.7859 40.3359C79.588 40.138 79.3536 39.9844 79.0828 39.875C78.812 39.7604 78.4969 39.7031 78.1375 39.7031C77.7938 39.7031 77.4891 39.763 77.2234 39.8828C76.9578 39.9974 76.726 40.1536 76.5281 40.3516C76.3302 40.5495 76.1661 40.7812 76.0359 41.0469C75.9057 41.3073 75.799 41.5833 75.7156 41.875C75.6323 42.1667 75.5724 42.4635 75.5359 42.7656C75.4995 43.0677 75.4813 43.3594 75.4813 43.6406V44.9766C75.4865 45.263 75.5099 45.5599 75.5516 45.8672C75.5984 46.1693 75.6688 46.4661 75.7625 46.7578C75.8563 47.0495 75.976 47.3255 76.1219 47.5859C76.2677 47.8464 76.4448 48.0755 76.6531 48.2734C76.8563 48.4714 77.0932 48.6302 77.3641 48.75C77.6349 48.8646 77.9422 48.9245 78.2859 48.9297C78.4839 48.9349 78.6896 48.9271 78.9031 48.9062C79.1219 48.8854 79.3328 48.8438 79.5359 48.7812C79.7391 48.7188 79.9292 48.6354 80.1063 48.5312C80.2833 48.4219 80.4318 48.2812 80.5516 48.1094L80.5672 45.5547H78.2547V44.3359H81.9422L81.9656 48.5078ZM90.7134 44.7422H85.9634V48.7734H91.5025V50H84.5181V38.625H91.4322V39.8594H85.9634V43.5156H90.7134V44.7422ZM110.412 44.7422H105.662V48.7734H111.201V50H104.217V38.625H111.131V39.8594H105.662V43.5156H110.412V44.7422ZM117.527 43.0859L119.98 38.625H121.683L118.379 44.2656L121.762 50H120.074L117.558 45.4531L115.035 50H113.324L116.715 44.2656L113.41 38.625H115.105L117.527 43.0859ZM125.431 45.4375V50H123.986V38.625H127.673C128.184 38.6354 128.666 38.7161 129.119 38.8672C129.577 39.0182 129.978 39.237 130.322 39.5234C130.666 39.8099 130.936 40.1641 131.134 40.5859C131.338 41.0078 131.439 41.4922 131.439 42.0391C131.439 42.5859 131.338 43.0703 131.134 43.4922C130.936 43.9089 130.666 44.2604 130.322 44.5469C129.978 44.8333 129.577 45.0521 129.119 45.2031C128.666 45.3542 128.184 45.4323 127.673 45.4375H125.431ZM125.431 44.25H127.673C128.007 44.2448 128.314 44.1927 128.595 44.0938C128.877 43.9896 129.121 43.8438 129.33 43.6562C129.538 43.4688 129.699 43.2422 129.814 42.9766C129.934 42.7057 129.994 42.3984 129.994 42.0547C129.994 41.7109 129.934 41.401 129.814 41.125C129.699 40.849 129.541 40.6146 129.338 40.4219C129.129 40.2292 128.882 40.0807 128.595 39.9766C128.314 39.8724 128.007 39.8177 127.673 39.8125H125.431V44.25ZM139.96 44.7422H135.21V48.7734H140.749V50H133.765V38.625H140.679V39.8594H135.21V43.5156H139.96V44.7422ZM150.677 50H149.208L144.794 41.5L144.771 50H143.31V38.625H144.778L149.192 47.1094L149.216 38.625H150.677V50ZM159.354 47.125C159.354 46.776 159.274 46.4818 159.112 46.2422C158.956 46.0026 158.753 45.7995 158.503 45.6328C158.253 45.4714 157.977 45.3359 157.675 45.2266C157.378 45.1172 157.091 45.0182 156.815 44.9297C156.414 44.7995 156.005 44.6432 155.589 44.4609C155.177 44.2734 154.802 44.0495 154.464 43.7891C154.12 43.5234 153.839 43.2109 153.62 42.8516C153.406 42.487 153.3 42.0599 153.3 41.5703C153.3 41.0807 153.406 40.6432 153.62 40.2578C153.839 39.8724 154.123 39.5469 154.472 39.2812C154.821 39.0156 155.216 38.8151 155.659 38.6797C156.102 38.5391 156.547 38.4688 156.995 38.4688C157.49 38.4688 157.966 38.5521 158.425 38.7188C158.883 38.8802 159.289 39.1094 159.643 39.4062C159.998 39.7031 160.281 40.0625 160.495 40.4844C160.709 40.9062 160.821 41.3776 160.831 41.8984H159.347C159.305 41.5703 159.224 41.2734 159.104 41.0078C158.985 40.737 158.826 40.5052 158.628 40.3125C158.43 40.1198 158.193 39.9714 157.917 39.8672C157.646 39.7578 157.339 39.7031 156.995 39.7031C156.719 39.7031 156.448 39.7422 156.182 39.8203C155.922 39.8984 155.69 40.0156 155.487 40.1719C155.279 40.3281 155.112 40.5208 154.987 40.75C154.867 40.9792 154.807 41.2448 154.807 41.5469C154.813 41.875 154.896 42.1536 155.057 42.3828C155.219 42.6068 155.425 42.7969 155.675 42.9531C155.919 43.1094 156.185 43.2396 156.472 43.3438C156.763 43.4479 157.037 43.5391 157.292 43.6172C157.714 43.7474 158.136 43.9062 158.557 44.0938C158.979 44.276 159.365 44.5104 159.714 44.7969C160.057 45.0625 160.334 45.388 160.542 45.7734C160.755 46.1589 160.862 46.6042 160.862 47.1094C160.862 47.6198 160.748 48.0651 160.518 48.4453C160.294 48.8255 160.003 49.1406 159.643 49.3906C159.284 49.6458 158.878 49.8385 158.425 49.9688C157.972 50.0938 157.518 50.1562 157.065 50.1562C156.524 50.1562 155.99 50.0651 155.464 49.8828C154.943 49.7005 154.49 49.4375 154.104 49.0938C153.761 48.7969 153.487 48.4505 153.284 48.0547C153.086 47.6536 152.979 47.2083 152.964 46.7188H154.44C154.487 47.0729 154.584 47.388 154.729 47.6641C154.875 47.9349 155.063 48.1641 155.292 48.3516C155.521 48.5443 155.784 48.6901 156.081 48.7891C156.383 48.8828 156.711 48.9297 157.065 48.9297C157.347 48.9297 157.623 48.8958 157.893 48.8281C158.169 48.7552 158.414 48.6432 158.628 48.4922C158.841 48.3464 159.016 48.1615 159.151 47.9375C159.287 47.7083 159.354 47.4375 159.354 47.125ZM169.508 44.7422H164.758V48.7734H170.298V50H163.313V38.625H170.227V39.8594H164.758V43.5156H169.508V44.7422ZM179.053 47.125C179.053 46.776 178.972 46.4818 178.811 46.2422C178.655 46.0026 178.452 45.7995 178.202 45.6328C177.952 45.4714 177.676 45.3359 177.373 45.2266C177.077 45.1172 176.79 45.0182 176.514 44.9297C176.113 44.7995 175.704 44.6432 175.288 44.4609C174.876 44.2734 174.501 44.0495 174.163 43.7891C173.819 43.5234 173.538 43.2109 173.319 42.8516C173.105 42.487 172.998 42.0599 172.998 41.5703C172.998 41.0807 173.105 40.6432 173.319 40.2578C173.538 39.8724 173.821 39.5469 174.17 39.2812C174.519 39.0156 174.915 38.8151 175.358 38.6797C175.801 38.5391 176.246 38.4688 176.694 38.4688C177.189 38.4688 177.665 38.5521 178.123 38.7188C178.582 38.8802 178.988 39.1094 179.342 39.4062C179.696 39.7031 179.98 40.0625 180.194 40.4844C180.407 40.9062 180.519 41.3776 180.53 41.8984H179.045C179.004 41.5703 178.923 41.2734 178.803 41.0078C178.683 40.737 178.524 40.5052 178.327 40.3125C178.129 40.1198 177.892 39.9714 177.616 39.8672C177.345 39.7578 177.038 39.7031 176.694 39.7031C176.418 39.7031 176.147 39.7422 175.881 39.8203C175.621 39.8984 175.389 40.0156 175.186 40.1719C174.978 40.3281 174.811 40.5208 174.686 40.75C174.566 40.9792 174.506 41.2448 174.506 41.5469C174.511 41.875 174.595 42.1536 174.756 42.3828C174.918 42.6068 175.123 42.7969 175.373 42.9531C175.618 43.1094 175.884 43.2396 176.17 43.3438C176.462 43.4479 176.735 43.5391 176.991 43.6172C177.413 43.7474 177.834 43.9062 178.256 44.0938C178.678 44.276 179.064 44.5104 179.413 44.7969C179.756 45.0625 180.032 45.388 180.241 45.7734C180.454 46.1589 180.561 46.6042 180.561 47.1094C180.561 47.6198 180.446 48.0651 180.217 48.4453C179.993 48.8255 179.702 49.1406 179.342 49.3906C178.983 49.6458 178.577 49.8385 178.123 49.9688C177.67 50.0938 177.217 50.1562 176.764 50.1562C176.222 50.1562 175.689 50.0651 175.163 49.8828C174.642 49.7005 174.189 49.4375 173.803 49.0938C173.459 48.7969 173.186 48.4505 172.983 48.0547C172.785 47.6536 172.678 47.2083 172.663 46.7188H174.139C174.186 47.0729 174.282 47.388 174.428 47.6641C174.574 47.9349 174.761 48.1641 174.991 48.3516C175.22 48.5443 175.483 48.6901 175.78 48.7891C176.082 48.8828 176.41 48.9297 176.764 48.9297C177.045 48.9297 177.321 48.8958 177.592 48.8281C177.868 48.7552 178.113 48.6432 178.327 48.4922C178.54 48.3464 178.715 48.1615 178.85 47.9375C178.985 47.7083 179.053 47.4375 179.053 47.125Z" fill="#1F1F21" fill-opacity="0.74"/>
<path d="M480 44C480 32.9543 488.954 24 500 24C511.046 24 520 32.9543 520 44C520 55.0457 511.046 64 500 64C488.954 64 480 55.0457 480 44Z" fill="#1F1F21" fill-opacity="0.04"/>
<path d="M500 45C500.552 45 501 44.5523 501 44C501 43.4477 500.552 43 500 43C499.448 43 499 43.4477 499 44C499 44.5523 499.448 45 500 45Z" fill="#1F1F21" fill-opacity="0.74"/>
<path d="M500 42.75C500.69 42.75 501.25 43.3096 501.25 44C501.25 44.6904 500.69 45.25 500 45.25C499.31 45.25 498.75 44.6904 498.75 44C498.75 43.3096 499.31 42.75 500 42.75Z" stroke="#1F1F21" stroke-opacity="0.74" stroke-width="0.5" stroke-linecap="round" stroke-linejoin="round"/>
<path d="M494 45C494.552 45 495 44.5523 495 44C495 43.4477 494.552 43 494 43C493.448 43 493 43.4477 493 44C493 44.5523 493.448 45 494 45Z" fill="#1F1F21" fill-opacity="0.74"/>
<path d="M494 42.75C494.69 42.75 495.25 43.3096 495.25 44C495.25 44.6904 494.69 45.25 494 45.25C493.31 45.25 492.75 44.6904 492.75 44C492.75 43.3096 493.31 42.75 494 42.75Z" stroke="#1F1F21" stroke-opacity="0.74" stroke-width="0.5" stroke-linecap="round" stroke-linejoin="round"/>
<path d="M506 45C506.552 45 507 44.5523 507 44C507 43.4477 506.552 43 506 43C505.448 43 505 43.4477 505 44C505 44.5523 505.448 45 506 45Z" fill="#1F1F21" fill-opacity="0.74"/>
<path d="M506 42.75C506.69 42.75 507.25 43.3096 507.25 44C507.25 44.6904 506.69 45.25 506 45.25C505.31 45.25 504.75 44.6904 504.75 44C504.75 43.3096 505.31 42.75 506 42.75Z" stroke="#1F1F21" stroke-opacity="0.74" stroke-width="0.5" stroke-linecap="round" stroke-linejoin="round"/>
<path d="M180.049 112H326.951M180.049 112L106 236.407M180.049 112L326.951 365M326.951 112L401 236.407M326.951 112L180.049 365M401 236.407L326.951 365M401 236.407H106M326.951 365H180.049M180.049 365L106 236.407" stroke="#E6E6EA" stroke-width="1.98431"/>
<path d="M305.837 149.68H199.971L146.608 237.023L199.971 331.505H305.837L359.199 237.023L305.837 149.68Z" stroke="#E6E6EA" stroke-width="1.79552" stroke-dasharray="5.99 5.99"/>
<path d="M284.425 185.57H221.381L189.604 237.287L221.381 293.23H284.425L316.203 237.287L284.425 185.57Z" stroke="#E6E6EA" stroke-width="2.39403"/>
<path opacity="0.6" d="M305.454 149.084L190.798 131.141L143.024 237.604L181.243 363.805L289.927 294.424L383.085 237.189L305.454 149.084Z" fill="#F0E8FF" stroke="#711BFE" stroke-width="1.19702"/>
<ellipse cx="190.798" cy="131.738" rx="4.77733" ry="4.78487" fill="#711BFE"/>
<ellipse cx="144.219" cy="237.004" rx="4.77733" ry="4.78487" fill="#711BFE"/>
<ellipse cx="181.243" cy="361.215" rx="4.77733" ry="4.78487" fill="#711BFE"/>
<ellipse cx="286.345" cy="296.621" rx="4.77733" ry="4.78487" fill="#711BFE"/>
<ellipse cx="305.454" cy="149.683" rx="4.77733" ry="4.78487" fill="#711BFE"/>
<path d="M180.049 364.795L381.891 237.996" stroke="#711BFE" stroke-width="1.19702"/>
<ellipse cx="383.086" cy="237.004" rx="4.77733" ry="4.78487" fill="#711BFE"/>
<rect x="423" y="216" width="41" height="21" rx="10.5" fill="#1F1F21"/>
<path d="M432.29 231L435.326 223.554H431.48V222.36H436.676V223.554L433.646 231H432.29ZM438.001 230.994L438.007 229.878L441.769 226.506C442.073 226.238 442.279 225.982 442.387 225.738C442.499 225.494 442.555 225.25 442.555 225.006C442.555 224.698 442.487 224.422 442.351 224.178C442.215 223.93 442.027 223.734 441.787 223.59C441.547 223.446 441.271 223.374 440.959 223.374C440.639 223.374 440.353 223.45 440.101 223.602C439.853 223.75 439.659 223.948 439.519 224.196C439.379 224.444 439.311 224.712 439.315 225H438.031C438.031 224.44 438.157 223.95 438.409 223.53C438.665 223.106 439.015 222.776 439.459 222.54C439.903 222.3 440.411 222.18 440.983 222.18C441.527 222.18 442.015 222.304 442.447 222.552C442.879 222.796 443.219 223.132 443.467 223.56C443.719 223.988 443.845 224.476 443.845 225.024C443.845 225.42 443.793 225.756 443.689 226.032C443.585 226.308 443.429 226.564 443.221 226.8C443.013 227.036 442.753 227.292 442.441 227.568L439.537 230.16L439.399 229.8H443.845V230.994H438.001ZM446.484 231L445.644 230.16L453.45 222.36L454.29 223.206L446.484 231ZM452.49 231.18C452.094 231.18 451.732 231.084 451.404 230.892C451.08 230.696 450.82 230.436 450.624 230.112C450.428 229.784 450.33 229.42 450.33 229.02C450.33 228.628 450.43 228.268 450.63 227.94C450.83 227.612 451.094 227.35 451.422 227.154C451.75 226.958 452.106 226.86 452.49 226.86C452.886 226.86 453.248 226.958 453.576 227.154C453.904 227.346 454.164 227.606 454.356 227.934C454.552 228.258 454.65 228.62 454.65 229.02C454.65 229.42 454.552 229.784 454.356 230.112C454.164 230.436 453.904 230.696 453.576 230.892C453.248 231.084 452.886 231.18 452.49 231.18ZM452.49 230.094C452.686 230.094 452.864 230.046 453.024 229.95C453.188 229.85 453.318 229.718 453.414 229.554C453.514 229.39 453.564 229.212 453.564 229.02C453.564 228.828 453.514 228.65 453.414 228.486C453.318 228.322 453.188 228.192 453.024 228.096C452.864 227.996 452.686 227.946 452.49 227.946C452.298 227.946 452.12 227.996 451.956 228.096C451.796 228.192 451.666 228.322 451.566 228.486C451.47 228.65 451.422 228.828 451.422 229.02C451.422 229.212 451.47 229.39 451.566 229.554C451.666 229.718 451.796 229.85 451.956 229.95C452.12 230.046 452.298 230.094 452.49 230.094ZM447.444 226.5C447.048 226.5 446.686 226.404 446.358 226.212C446.03 226.016 445.768 225.756 445.572 225.432C445.38 225.104 445.284 224.74 445.284 224.34C445.284 223.948 445.384 223.588 445.584 223.26C445.784 222.932 446.048 222.67 446.376 222.474C446.704 222.278 447.06 222.18 447.444 222.18C447.84 222.18 448.2 222.278 448.524 222.474C448.852 222.666 449.114 222.926 449.31 223.254C449.506 223.578 449.604 223.94 449.604 224.34C449.604 224.74 449.506 225.104 449.31 225.432C449.114 225.756 448.852 226.016 448.524 226.212C448.2 226.404 447.84 226.5 447.444 226.5ZM447.444 225.414C447.636 225.414 447.814 225.366 447.978 225.27C448.142 225.17 448.272 225.038 448.368 224.874C448.468 224.71 448.518 224.532 448.518 224.34C448.518 224.148 448.468 223.97 448.368 223.806C448.272 223.642 448.142 223.512 447.978 223.416C447.814 223.316 447.636 223.266 447.444 223.266C447.252 223.266 447.074 223.316 446.91 223.416C446.75 223.512 446.62 223.642 446.52 223.806C446.42 223.97 446.37 224.148 446.37 224.34C446.37 224.532 446.42 224.71 446.52 224.874C446.62 225.038 446.75 225.17 446.91 225.27C447.07 225.366 447.248 225.414 447.444 225.414Z" fill="white"/>
<path opacity="0.9" d="M415.34 254V245.36H418.832C418.916 245.36 419.02 245.364 419.144 245.372C419.268 245.376 419.386 245.388 419.498 245.408C419.978 245.484 420.378 245.648 420.698 245.9C421.022 246.152 421.264 246.47 421.424 246.854C421.584 247.238 421.664 247.662 421.664 248.126C421.664 248.594 421.584 249.02 421.424 249.404C421.264 249.788 421.022 250.106 420.698 250.358C420.378 250.61 419.978 250.774 419.498 250.85C419.386 250.866 419.266 250.878 419.138 250.886C419.014 250.894 418.912 250.898 418.832 250.898H416.594V254H415.34ZM416.594 249.71H418.784C418.864 249.71 418.952 249.706 419.048 249.698C419.148 249.69 419.242 249.676 419.33 249.656C419.586 249.596 419.792 249.486 419.948 249.326C420.104 249.162 420.216 248.974 420.284 248.762C420.352 248.55 420.386 248.338 420.386 248.126C420.386 247.914 420.352 247.704 420.284 247.496C420.216 247.284 420.104 247.098 419.948 246.938C419.792 246.774 419.586 246.662 419.33 246.602C419.242 246.578 419.148 246.562 419.048 246.554C418.952 246.546 418.864 246.542 418.784 246.542H416.594V249.71ZM424.614 254.18C424.134 254.18 423.732 254.092 423.408 253.916C423.084 253.736 422.838 253.5 422.67 253.208C422.506 252.912 422.424 252.588 422.424 252.236C422.424 251.908 422.482 251.62 422.598 251.372C422.714 251.124 422.886 250.914 423.114 250.742C423.342 250.566 423.622 250.424 423.954 250.316C424.242 250.232 424.568 250.158 424.932 250.094C425.296 250.03 425.678 249.97 426.078 249.914C426.482 249.858 426.882 249.802 427.278 249.746L426.822 249.998C426.83 249.49 426.722 249.114 426.498 248.87C426.278 248.622 425.898 248.498 425.358 248.498C425.018 248.498 424.706 248.578 424.422 248.738C424.138 248.894 423.94 249.154 423.828 249.518L422.658 249.158C422.818 248.602 423.122 248.16 423.57 247.832C424.022 247.504 424.622 247.34 425.37 247.34C425.95 247.34 426.454 247.44 426.882 247.64C427.314 247.836 427.63 248.148 427.83 248.576C427.934 248.788 427.998 249.012 428.022 249.248C428.046 249.484 428.058 249.738 428.058 250.01V254H426.948V252.518L427.164 252.71C426.896 253.206 426.554 253.576 426.138 253.82C425.726 254.06 425.218 254.18 424.614 254.18ZM424.836 253.154C425.192 253.154 425.498 253.092 425.754 252.968C426.01 252.84 426.216 252.678 426.372 252.482C426.528 252.286 426.63 252.082 426.678 251.87C426.746 251.678 426.784 251.462 426.792 251.222C426.804 250.982 426.81 250.79 426.81 250.646L427.218 250.796C426.822 250.856 426.462 250.91 426.138 250.958C425.814 251.006 425.52 251.054 425.256 251.102C424.996 251.146 424.764 251.2 424.56 251.264C424.388 251.324 424.234 251.396 424.098 251.48C423.966 251.564 423.86 251.666 423.78 251.786C423.704 251.906 423.666 252.052 423.666 252.224C423.666 252.392 423.708 252.548 423.792 252.692C423.876 252.832 424.004 252.944 424.176 253.028C424.348 253.112 424.568 253.154 424.836 253.154ZM430.249 256.88L431.503 253.466L431.521 254.474L428.695 247.52H430.003L432.115 252.89H431.731L433.747 247.52H435.019L431.443 256.88H430.249ZM443.843 254L443.849 249.962C443.849 249.494 443.729 249.13 443.489 248.87C443.249 248.606 442.933 248.474 442.541 248.474C442.301 248.474 442.081 248.53 441.881 248.642C441.685 248.75 441.525 248.914 441.401 249.134C441.281 249.35 441.221 249.622 441.221 249.95L440.615 249.644C440.607 249.188 440.703 248.788 440.903 248.444C441.107 248.1 441.383 247.834 441.731 247.646C442.079 247.454 442.469 247.358 442.901 247.358C443.601 247.358 444.143 247.568 444.527 247.988C444.911 248.408 445.103 248.966 445.103 249.662L445.097 254H443.843ZM436.073 254V247.52H437.189V249.392H437.333V254H436.073ZM439.961 254L439.967 249.986C439.967 249.514 439.847 249.144 439.607 248.876C439.371 248.608 439.053 248.474 438.653 248.474C438.257 248.474 437.937 248.61 437.693 248.882C437.453 249.154 437.333 249.51 437.333 249.95L436.733 249.566C436.733 249.142 436.835 248.764 437.039 248.432C437.243 248.1 437.519 247.838 437.867 247.646C438.215 247.454 438.609 247.358 439.049 247.358C439.509 247.358 439.901 247.456 440.225 247.652C440.549 247.844 440.795 248.114 440.963 248.462C441.135 248.81 441.221 249.214 441.221 249.674L441.215 254H439.961ZM449.573 254.18C448.929 254.18 448.363 254.04 447.875 253.76C447.391 253.476 447.013 253.082 446.741 252.578C446.473 252.07 446.339 251.482 446.339 250.814C446.339 250.106 446.471 249.492 446.735 248.972C447.003 248.452 447.375 248.05 447.851 247.766C448.327 247.482 448.881 247.34 449.513 247.34C450.173 247.34 450.735 247.494 451.199 247.802C451.663 248.106 452.009 248.54 452.237 249.104C452.469 249.668 452.561 250.338 452.513 251.114H451.259V250.658C451.251 249.906 451.107 249.35 450.827 248.99C450.551 248.63 450.129 248.45 449.561 248.45C448.933 248.45 448.461 248.648 448.145 249.044C447.829 249.44 447.671 250.012 447.671 250.76C447.671 251.472 447.829 252.024 448.145 252.416C448.461 252.804 448.917 252.998 449.513 252.998C449.905 252.998 450.243 252.91 450.527 252.734C450.815 252.554 451.039 252.298 451.199 251.966L452.429 252.356C452.177 252.936 451.795 253.386 451.283 253.706C450.771 254.022 450.201 254.18 449.573 254.18ZM447.263 251.114V250.136H451.889V251.114H447.263ZM458.351 254V250.814C458.351 250.562 458.329 250.304 458.285 250.04C458.245 249.772 458.165 249.524 458.045 249.296C457.929 249.068 457.763 248.884 457.547 248.744C457.335 248.604 457.057 248.534 456.713 248.534C456.489 248.534 456.277 248.572 456.077 248.648C455.877 248.72 455.701 248.838 455.549 249.002C455.401 249.166 455.283 249.382 455.195 249.65C455.111 249.918 455.069 250.244 455.069 250.628L454.289 250.334C454.289 249.746 454.399 249.228 454.619 248.78C454.839 248.328 455.155 247.976 455.567 247.724C455.979 247.472 456.477 247.346 457.061 247.346C457.509 247.346 457.885 247.418 458.189 247.562C458.493 247.706 458.739 247.896 458.927 248.132C459.119 248.364 459.265 248.618 459.365 248.894C459.465 249.17 459.533 249.44 459.569 249.704C459.605 249.968 459.623 250.2 459.623 250.4V254H458.351ZM453.797 254V247.52H454.919V249.392H455.069V254H453.797ZM465.014 254C464.606 254.08 464.206 254.114 463.814 254.102C463.422 254.09 463.072 254.014 462.764 253.874C462.456 253.734 462.224 253.514 462.068 253.214C461.928 252.946 461.852 252.674 461.84 252.398C461.832 252.118 461.828 251.802 461.828 251.45V245.72H463.088V251.39C463.088 251.65 463.09 251.876 463.094 252.068C463.102 252.26 463.144 252.422 463.22 252.554C463.364 252.802 463.592 252.944 463.904 252.98C464.22 253.012 464.59 252.998 465.014 252.938V254ZM460.586 248.528V247.52H465.014V248.528H460.586ZM468.978 254.174C468.19 254.174 467.548 254 467.052 253.652C466.556 253.304 466.252 252.814 466.14 252.182L467.424 251.984C467.504 252.32 467.688 252.586 467.976 252.782C468.268 252.974 468.63 253.07 469.062 253.07C469.454 253.07 469.76 252.99 469.98 252.83C470.204 252.67 470.316 252.45 470.316 252.17C470.316 252.006 470.276 251.874 470.196 251.774C470.12 251.67 469.958 251.572 469.71 251.48C469.462 251.388 469.084 251.274 468.576 251.138C468.02 250.994 467.578 250.84 467.25 250.676C466.926 250.508 466.694 250.314 466.554 250.094C466.418 249.87 466.35 249.6 466.35 249.284C466.35 248.892 466.454 248.55 466.662 248.258C466.87 247.966 467.162 247.74 467.538 247.58C467.918 247.42 468.362 247.34 468.87 247.34C469.366 247.34 469.808 247.418 470.196 247.574C470.584 247.73 470.898 247.952 471.138 248.24C471.378 248.524 471.522 248.858 471.57 249.242L470.286 249.476C470.242 249.164 470.096 248.918 469.848 248.738C469.6 248.558 469.278 248.46 468.882 248.444C468.502 248.428 468.194 248.492 467.958 248.636C467.722 248.776 467.604 248.97 467.604 249.218C467.604 249.362 467.648 249.484 467.736 249.584C467.828 249.684 468.004 249.78 468.264 249.872C468.524 249.964 468.908 250.074 469.416 250.202C469.96 250.342 470.392 250.498 470.712 250.67C471.032 250.838 471.26 251.04 471.396 251.276C471.536 251.508 471.606 251.79 471.606 252.122C471.606 252.762 471.372 253.264 470.904 253.628C470.44 253.992 469.798 254.174 468.978 254.174Z" fill="#1F1F21"/>
<rect x="105.5" y="354" width="42" height="21" rx="10.5" fill="#1F1F21"/>
<path d="M117.148 360.186C117.704 360.186 118.206 360.32 118.654 360.588C119.102 360.852 119.458 361.216 119.722 361.68C119.986 362.144 120.118 362.674 120.118 363.27V366.018C120.118 366.65 119.986 367.204 119.722 367.68C119.462 368.152 119.098 368.52 118.63 368.784C118.166 369.048 117.63 369.18 117.022 369.18C116.566 369.18 116.138 369.094 115.738 368.922C115.338 368.75 114.99 368.494 114.694 368.154L115.618 367.296C115.782 367.508 115.988 367.678 116.236 367.806C116.484 367.934 116.746 367.998 117.022 367.998C117.378 367.998 117.692 367.912 117.964 367.74C118.24 367.568 118.454 367.344 118.606 367.068C118.758 366.792 118.834 366.496 118.834 366.18V364.596L119.086 364.872C118.838 365.196 118.53 365.452 118.162 365.64C117.794 365.828 117.4 365.922 116.98 365.922C116.44 365.922 115.96 365.798 115.54 365.55C115.12 365.302 114.788 364.964 114.544 364.536C114.3 364.108 114.178 363.624 114.178 363.084C114.178 362.544 114.314 362.056 114.586 361.62C114.858 361.184 115.218 360.836 115.666 360.576C116.114 360.316 116.608 360.186 117.148 360.186ZM117.148 361.398C116.836 361.398 116.55 361.474 116.29 361.626C116.034 361.774 115.83 361.976 115.678 362.232C115.526 362.488 115.45 362.772 115.45 363.084C115.45 363.396 115.526 363.682 115.678 363.942C115.83 364.198 116.034 364.402 116.29 364.554C116.546 364.706 116.83 364.782 117.142 364.782C117.454 364.782 117.738 364.706 117.994 364.554C118.25 364.402 118.454 364.198 118.606 363.942C118.758 363.682 118.834 363.396 118.834 363.084C118.834 362.776 118.758 362.494 118.606 362.238C118.458 361.982 118.256 361.778 118 361.626C117.744 361.474 117.46 361.398 117.148 361.398ZM124.679 369.18C124.115 369.18 123.615 369.068 123.179 368.844C122.747 368.616 122.407 368.3 122.159 367.896C121.915 367.492 121.793 367.024 121.793 366.492C121.793 365.996 121.909 365.542 122.141 365.13C122.373 364.718 122.719 364.394 123.179 364.158L123.155 364.59C122.787 364.362 122.503 364.078 122.303 363.738C122.107 363.394 122.009 363.01 122.009 362.586C122.009 362.094 122.123 361.668 122.351 361.308C122.579 360.948 122.893 360.67 123.293 360.474C123.697 360.278 124.159 360.18 124.679 360.18C125.199 360.18 125.659 360.278 126.059 360.474C126.459 360.67 126.773 360.948 127.001 361.308C127.229 361.668 127.343 362.094 127.343 362.586C127.343 363.01 127.249 363.392 127.061 363.732C126.873 364.072 126.585 364.358 126.197 364.59L126.179 364.17C126.635 364.394 126.981 364.714 127.217 365.13C127.453 365.542 127.571 365.996 127.571 366.492C127.571 367.024 127.447 367.492 127.199 367.896C126.951 368.3 126.609 368.616 126.173 368.844C125.737 369.068 125.239 369.18 124.679 369.18ZM124.679 367.986C125.143 367.986 125.519 367.86 125.807 367.608C126.095 367.352 126.239 366.98 126.239 366.492C126.239 366.004 126.095 365.632 125.807 365.376C125.523 365.116 125.147 364.986 124.679 364.986C124.211 364.986 123.833 365.116 123.545 365.376C123.261 365.632 123.119 366.004 123.119 366.492C123.119 366.98 123.263 367.352 123.551 367.608C123.839 367.86 124.215 367.986 124.679 367.986ZM124.679 363.786C125.075 363.786 125.395 363.688 125.639 363.492C125.887 363.292 126.011 362.99 126.011 362.586C126.011 362.182 125.887 361.88 125.639 361.68C125.395 361.476 125.075 361.374 124.679 361.374C124.283 361.374 123.961 361.476 123.713 361.68C123.465 361.88 123.341 362.182 123.341 362.586C123.341 362.99 123.465 363.292 123.713 363.492C123.961 363.688 124.283 363.786 124.679 363.786ZM130.332 369L129.492 368.16L137.298 360.36L138.138 361.206L130.332 369ZM136.338 369.18C135.942 369.18 135.58 369.084 135.252 368.892C134.928 368.696 134.668 368.436 134.472 368.112C134.276 367.784 134.178 367.42 134.178 367.02C134.178 366.628 134.278 366.268 134.478 365.94C134.678 365.612 134.942 365.35 135.27 365.154C135.598 364.958 135.954 364.86 136.338 364.86C136.734 364.86 137.096 364.958 137.424 365.154C137.752 365.346 138.012 365.606 138.204 365.934C138.4 366.258 138.498 366.62 138.498 367.02C138.498 367.42 138.4 367.784 138.204 368.112C138.012 368.436 137.752 368.696 137.424 368.892C137.096 369.084 136.734 369.18 136.338 369.18ZM136.338 368.094C136.534 368.094 136.712 368.046 136.872 367.95C137.036 367.85 137.166 367.718 137.262 367.554C137.362 367.39 137.412 367.212 137.412 367.02C137.412 366.828 137.362 366.65 137.262 366.486C137.166 366.322 137.036 366.192 136.872 366.096C136.712 365.996 136.534 365.946 136.338 365.946C136.146 365.946 135.968 365.996 135.804 366.096C135.644 366.192 135.514 366.322 135.414 366.486C135.318 366.65 135.27 366.828 135.27 367.02C135.27 367.212 135.318 367.39 135.414 367.554C135.514 367.718 135.644 367.85 135.804 367.95C135.968 368.046 136.146 368.094 136.338 368.094ZM131.292 364.5C130.896 364.5 130.534 364.404 130.206 364.212C129.878 364.016 129.616 363.756 129.42 363.432C129.228 363.104 129.132 362.74 129.132 362.34C129.132 361.948 129.232 361.588 129.432 361.26C129.632 360.932 129.896 360.67 130.224 360.474C130.552 360.278 130.908 360.18 131.292 360.18C131.688 360.18 132.048 360.278 132.372 360.474C132.7 360.666 132.962 360.926 133.158 361.254C133.354 361.578 133.452 361.94 133.452 362.34C133.452 362.74 133.354 363.104 133.158 363.432C132.962 363.756 132.7 364.016 132.372 364.212C132.048 364.404 131.688 364.5 131.292 364.5ZM131.292 363.414C131.484 363.414 131.662 363.366 131.826 363.27C131.99 363.17 132.12 363.038 132.216 362.874C132.316 362.71 132.366 362.532 132.366 362.34C132.366 362.148 132.316 361.97 132.216 361.806C132.12 361.642 131.99 361.512 131.826 361.416C131.662 361.316 131.484 361.266 131.292 361.266C131.1 361.266 130.922 361.316 130.758 361.416C130.598 361.512 130.468 361.642 130.368 361.806C130.268 361.97 130.218 362.148 130.218 362.34C130.218 362.532 130.268 362.71 130.368 362.874C130.468 363.038 130.598 363.17 130.758 363.27C130.918 363.366 131.096 363.414 131.292 363.414Z" fill="white"/>
<path opacity="0.9" d="M100.494 392V384.542H97.62V383.36H104.622V384.542H101.748V392H100.494ZM105.105 392V385.52H106.221V387.092L106.065 386.888C106.145 386.68 106.249 386.49 106.377 386.318C106.505 386.142 106.653 385.998 106.821 385.886C106.985 385.766 107.167 385.674 107.367 385.61C107.571 385.542 107.779 385.502 107.991 385.49C108.203 385.474 108.407 385.484 108.603 385.52V386.696C108.391 386.64 108.155 386.624 107.895 386.648C107.639 386.672 107.403 386.754 107.187 386.894C106.983 387.026 106.821 387.186 106.701 387.374C106.585 387.562 106.501 387.772 106.449 388.004C106.397 388.232 106.371 388.474 106.371 388.73V392H105.105ZM111.508 392.18C111.028 392.18 110.626 392.092 110.302 391.916C109.978 391.736 109.732 391.5 109.564 391.208C109.4 390.912 109.318 390.588 109.318 390.236C109.318 389.908 109.376 389.62 109.492 389.372C109.608 389.124 109.78 388.914 110.008 388.742C110.236 388.566 110.516 388.424 110.848 388.316C111.136 388.232 111.462 388.158 111.826 388.094C112.19 388.03 112.572 387.97 112.972 387.914C113.376 387.858 113.776 387.802 114.172 387.746L113.716 387.998C113.724 387.49 113.616 387.114 113.392 386.87C113.172 386.622 112.792 386.498 112.252 386.498C111.912 386.498 111.6 386.578 111.316 386.738C111.032 386.894 110.834 387.154 110.722 387.518L109.552 387.158C109.712 386.602 110.016 386.16 110.464 385.832C110.916 385.504 111.516 385.34 112.264 385.34C112.844 385.34 113.348 385.44 113.776 385.64C114.208 385.836 114.524 386.148 114.724 386.576C114.828 386.788 114.892 387.012 114.916 387.248C114.94 387.484 114.952 387.738 114.952 388.01V392H113.842V390.518L114.058 390.71C113.79 391.206 113.448 391.576 113.032 391.82C112.62 392.06 112.112 392.18 111.508 392.18ZM111.73 391.154C112.086 391.154 112.392 391.092 112.648 390.968C112.904 390.84 113.11 390.678 113.266 390.482C113.422 390.286 113.524 390.082 113.572 389.87C113.64 389.678 113.678 389.462 113.686 389.222C113.698 388.982 113.704 388.79 113.704 388.646L114.112 388.796C113.716 388.856 113.356 388.91 113.032 388.958C112.708 389.006 112.414 389.054 112.15 389.102C111.89 389.146 111.658 389.2 111.454 389.264C111.282 389.324 111.128 389.396 110.992 389.48C110.86 389.564 110.754 389.666 110.674 389.786C110.598 389.906 110.56 390.052 110.56 390.224C110.56 390.392 110.602 390.548 110.686 390.692C110.77 390.832 110.898 390.944 111.07 391.028C111.242 391.112 111.462 391.154 111.73 391.154ZM121.178 392V388.814C121.178 388.562 121.156 388.304 121.112 388.04C121.072 387.772 120.992 387.524 120.872 387.296C120.756 387.068 120.59 386.884 120.374 386.744C120.162 386.604 119.884 386.534 119.54 386.534C119.316 386.534 119.104 386.572 118.904 386.648C118.704 386.72 118.528 386.838 118.376 387.002C118.228 387.166 118.11 387.382 118.022 387.65C117.938 387.918 117.896 388.244 117.896 388.628L117.116 388.334C117.116 387.746 117.226 387.228 117.446 386.78C117.666 386.328 117.982 385.976 118.394 385.724C118.806 385.472 119.304 385.346 119.888 385.346C120.336 385.346 120.712 385.418 121.016 385.562C121.32 385.706 121.566 385.896 121.754 386.132C121.946 386.364 122.092 386.618 122.192 386.894C122.292 387.17 122.36 387.44 122.396 387.704C122.432 387.968 122.45 388.2 122.45 388.4V392H121.178ZM116.624 392V385.52H117.746V387.392H117.896V392H116.624ZM126.61 392.174C125.822 392.174 125.18 392 124.684 391.652C124.188 391.304 123.884 390.814 123.772 390.182L125.056 389.984C125.136 390.32 125.32 390.586 125.608 390.782C125.9 390.974 126.262 391.07 126.694 391.07C127.086 391.07 127.392 390.99 127.612 390.83C127.836 390.67 127.948 390.45 127.948 390.17C127.948 390.006 127.908 389.874 127.828 389.774C127.752 389.67 127.59 389.572 127.342 389.48C127.094 389.388 126.716 389.274 126.208 389.138C125.652 388.994 125.21 388.84 124.882 388.676C124.558 388.508 124.326 388.314 124.186 388.094C124.05 387.87 123.982 387.6 123.982 387.284C123.982 386.892 124.086 386.55 124.294 386.258C124.502 385.966 124.794 385.74 125.17 385.58C125.55 385.42 125.994 385.34 126.502 385.34C126.998 385.34 127.44 385.418 127.828 385.574C128.216 385.73 128.53 385.952 128.77 386.24C129.01 386.524 129.154 386.858 129.202 387.242L127.918 387.476C127.874 387.164 127.728 386.918 127.48 386.738C127.232 386.558 126.91 386.46 126.514 386.444C126.134 386.428 125.826 386.492 125.59 386.636C125.354 386.776 125.236 386.97 125.236 387.218C125.236 387.362 125.28 387.484 125.368 387.584C125.46 387.684 125.636 387.78 125.896 387.872C126.156 387.964 126.54 388.074 127.048 388.202C127.592 388.342 128.024 388.498 128.344 388.67C128.664 388.838 128.892 389.04 129.028 389.276C129.168 389.508 129.238 389.79 129.238 390.122C129.238 390.762 129.004 391.264 128.536 391.628C128.072 391.992 127.43 392.174 126.61 392.174ZM133.728 392.18C133.108 392.18 132.588 392.03 132.168 391.73C131.748 391.426 131.43 391.016 131.214 390.5C130.998 389.984 130.89 389.402 130.89 388.754C130.89 388.106 130.996 387.524 131.208 387.008C131.424 386.492 131.74 386.086 132.156 385.79C132.576 385.49 133.092 385.34 133.704 385.34C134.312 385.34 134.836 385.49 135.276 385.79C135.72 386.086 136.062 386.492 136.302 387.008C136.542 387.52 136.662 388.102 136.662 388.754C136.662 389.402 136.542 389.986 136.302 390.506C136.066 391.022 135.728 391.43 135.288 391.73C134.852 392.03 134.332 392.18 133.728 392.18ZM130.68 394.88V385.52H131.796V390.182H131.94V394.88H130.68ZM133.554 391.046C133.954 391.046 134.284 390.944 134.544 390.74C134.808 390.536 135.004 390.262 135.132 389.918C135.264 389.57 135.33 389.182 135.33 388.754C135.33 388.33 135.264 387.946 135.132 387.602C135.004 387.258 134.806 386.984 134.538 386.78C134.27 386.576 133.928 386.474 133.512 386.474C133.12 386.474 132.796 386.57 132.54 386.762C132.288 386.954 132.1 387.222 131.976 387.566C131.856 387.91 131.796 388.306 131.796 388.754C131.796 389.202 131.856 389.598 131.976 389.942C132.096 390.286 132.286 390.556 132.546 390.752C132.806 390.948 133.142 391.046 133.554 391.046ZM140.921 392.18C140.273 392.18 139.711 392.034 139.235 391.742C138.759 391.45 138.391 391.048 138.131 390.536C137.875 390.02 137.747 389.426 137.747 388.754C137.747 388.078 137.879 387.484 138.143 386.972C138.407 386.456 138.777 386.056 139.253 385.772C139.729 385.484 140.285 385.34 140.921 385.34C141.569 385.34 142.131 385.486 142.607 385.778C143.083 386.07 143.451 386.472 143.711 386.984C143.971 387.496 144.101 388.086 144.101 388.754C144.101 389.43 143.969 390.026 143.705 390.542C143.445 391.054 143.077 391.456 142.601 391.748C142.125 392.036 141.565 392.18 140.921 392.18ZM140.921 390.998C141.541 390.998 142.003 390.79 142.307 390.374C142.615 389.954 142.769 389.414 142.769 388.754C142.769 388.078 142.613 387.538 142.301 387.134C141.993 386.726 141.533 386.522 140.921 386.522C140.501 386.522 140.155 386.618 139.883 386.81C139.611 386.998 139.409 387.26 139.277 387.596C139.145 387.928 139.079 388.314 139.079 388.754C139.079 389.434 139.235 389.978 139.547 390.386C139.859 390.794 140.317 390.998 140.921 390.998ZM145.539 392V385.52H146.655V387.092L146.499 386.888C146.579 386.68 146.683 386.49 146.811 386.318C146.939 386.142 147.087 385.998 147.255 385.886C147.419 385.766 147.601 385.674 147.801 385.61C148.005 385.542 148.213 385.502 148.425 385.49C148.637 385.474 148.841 385.484 149.037 385.52V386.696C148.825 386.64 148.589 386.624 148.329 386.648C148.073 386.672 147.837 386.754 147.621 386.894C147.417 387.026 147.255 387.186 147.135 387.374C147.019 387.562 146.935 387.772 146.883 388.004C146.831 388.232 146.805 388.474 146.805 388.73V392H145.539ZM154.008 392C153.6 392.08 153.2 392.114 152.808 392.102C152.416 392.09 152.066 392.014 151.758 391.874C151.45 391.734 151.218 391.514 151.062 391.214C150.922 390.946 150.846 390.674 150.834 390.398C150.826 390.118 150.822 389.802 150.822 389.45V383.72H152.082V389.39C152.082 389.65 152.084 389.876 152.088 390.068C152.096 390.26 152.138 390.422 152.214 390.554C152.358 390.802 152.586 390.944 152.898 390.98C153.214 391.012 153.584 390.998 154.008 390.938V392ZM149.58 386.528V385.52H154.008V386.528H149.58Z" fill="#1F1F21"/>
<rect x="116" y="84" width="42" height="21" rx="10.5" fill="#1F1F21"/>
<path d="M127.402 99.18C126.958 99.18 126.544 99.09 126.16 98.91C125.78 98.726 125.454 98.474 125.182 98.154C124.91 97.83 124.716 97.458 124.6 97.038L125.806 96.714C125.874 96.97 125.99 97.192 126.154 97.38C126.322 97.568 126.518 97.714 126.742 97.818C126.966 97.918 127.198 97.968 127.438 97.968C127.754 97.968 128.04 97.892 128.296 97.74C128.556 97.588 128.76 97.384 128.908 97.128C129.06 96.872 129.136 96.59 129.136 96.282C129.136 95.966 129.058 95.68 128.902 95.424C128.75 95.168 128.544 94.966 128.284 94.818C128.028 94.666 127.746 94.59 127.438 94.59C127.086 94.59 126.788 94.66 126.544 94.8C126.3 94.94 126.11 95.102 125.974 95.286L124.882 94.902L125.146 90.36H129.808V91.542H125.788L126.298 91.068L126.088 94.47L125.842 94.152C126.07 93.924 126.342 93.75 126.658 93.63C126.974 93.51 127.288 93.45 127.6 93.45C128.136 93.45 128.614 93.574 129.034 93.822C129.458 94.07 129.792 94.408 130.036 94.836C130.28 95.26 130.402 95.742 130.402 96.282C130.402 96.818 130.264 97.306 129.988 97.746C129.712 98.182 129.346 98.53 128.89 98.79C128.434 99.05 127.938 99.18 127.402 99.18ZM134.926 99.18C134.366 99.18 133.862 99.048 133.414 98.784C132.966 98.516 132.61 98.15 132.346 97.686C132.086 97.222 131.956 96.694 131.956 96.102V93.348C131.956 92.72 132.086 92.168 132.346 91.692C132.61 91.216 132.974 90.846 133.438 90.582C133.906 90.318 134.444 90.186 135.052 90.186C135.508 90.186 135.936 90.272 136.336 90.444C136.736 90.616 137.082 90.872 137.374 91.212L136.456 92.07C136.292 91.858 136.086 91.69 135.838 91.566C135.594 91.438 135.332 91.374 135.052 91.374C134.692 91.374 134.376 91.46 134.104 91.632C133.832 91.8 133.618 92.022 133.462 92.298C133.31 92.574 133.234 92.87 133.234 93.186V94.77L132.988 94.494C133.236 94.17 133.544 93.914 133.912 93.726C134.28 93.538 134.674 93.444 135.094 93.444C135.63 93.444 136.108 93.57 136.528 93.822C136.952 94.07 137.284 94.408 137.524 94.836C137.768 95.264 137.89 95.746 137.89 96.282C137.89 96.822 137.754 97.312 137.482 97.752C137.214 98.188 136.854 98.536 136.402 98.796C135.954 99.052 135.462 99.18 134.926 99.18ZM134.926 97.974C135.238 97.974 135.522 97.898 135.778 97.746C136.034 97.594 136.238 97.39 136.39 97.134C136.542 96.878 136.618 96.594 136.618 96.282C136.618 95.97 136.542 95.686 136.39 95.43C136.242 95.174 136.04 94.97 135.784 94.818C135.528 94.666 135.244 94.59 134.932 94.59C134.62 94.59 134.334 94.666 134.074 94.818C133.818 94.97 133.614 95.174 133.462 95.43C133.31 95.686 133.234 95.97 133.234 96.282C133.234 96.59 133.31 96.872 133.462 97.128C133.614 97.384 133.818 97.59 134.074 97.746C134.33 97.898 134.614 97.974 134.926 97.974ZM140.609 99L139.769 98.16L147.575 90.36L148.415 91.206L140.609 99ZM146.615 99.18C146.219 99.18 145.857 99.084 145.529 98.892C145.205 98.696 144.945 98.436 144.749 98.112C144.553 97.784 144.455 97.42 144.455 97.02C144.455 96.628 144.555 96.268 144.755 95.94C144.955 95.612 145.219 95.35 145.547 95.154C145.875 94.958 146.231 94.86 146.615 94.86C147.011 94.86 147.373 94.958 147.701 95.154C148.029 95.346 148.289 95.606 148.481 95.934C148.677 96.258 148.775 96.62 148.775 97.02C148.775 97.42 148.677 97.784 148.481 98.112C148.289 98.436 148.029 98.696 147.701 98.892C147.373 99.084 147.011 99.18 146.615 99.18ZM146.615 98.094C146.811 98.094 146.989 98.046 147.149 97.95C147.313 97.85 147.443 97.718 147.539 97.554C147.639 97.39 147.689 97.212 147.689 97.02C147.689 96.828 147.639 96.65 147.539 96.486C147.443 96.322 147.313 96.192 147.149 96.096C146.989 95.996 146.811 95.946 146.615 95.946C146.423 95.946 146.245 95.996 146.081 96.096C145.921 96.192 145.791 96.322 145.691 96.486C145.595 96.65 145.547 96.828 145.547 97.02C145.547 97.212 145.595 97.39 145.691 97.554C145.791 97.718 145.921 97.85 146.081 97.95C146.245 98.046 146.423 98.094 146.615 98.094ZM141.569 94.5C141.173 94.5 140.811 94.404 140.483 94.212C140.155 94.016 139.893 93.756 139.697 93.432C139.505 93.104 139.409 92.74 139.409 92.34C139.409 91.948 139.509 91.588 139.709 91.26C139.909 90.932 140.173 90.67 140.501 90.474C140.829 90.278 141.185 90.18 141.569 90.18C141.965 90.18 142.325 90.278 142.649 90.474C142.977 90.666 143.239 90.926 143.435 91.254C143.631 91.578 143.729 91.94 143.729 92.34C143.729 92.74 143.631 93.104 143.435 93.432C143.239 93.756 142.977 94.016 142.649 94.212C142.325 94.404 141.965 94.5 141.569 94.5ZM141.569 93.414C141.761 93.414 141.939 93.366 142.103 93.27C142.267 93.17 142.397 93.038 142.493 92.874C142.593 92.71 142.643 92.532 142.643 92.34C142.643 92.148 142.593 91.97 142.493 91.806C142.397 91.642 142.267 91.512 142.103 91.416C141.939 91.316 141.761 91.266 141.569 91.266C141.377 91.266 141.199 91.316 141.035 91.416C140.875 91.512 140.745 91.642 140.645 91.806C140.545 91.97 140.495 92.148 140.495 92.34C140.495 92.532 140.545 92.71 140.645 92.874C140.745 93.038 140.875 93.17 141.035 93.27C141.195 93.366 141.373 93.414 141.569 93.414Z" fill="white"/>
<path opacity="0.9" d="M125.84 122V113.36H129.236C129.784 113.36 130.244 113.472 130.616 113.696C130.988 113.92 131.268 114.21 131.456 114.566C131.644 114.918 131.738 115.29 131.738 115.682C131.738 116.158 131.62 116.566 131.384 116.906C131.152 117.246 130.838 117.478 130.442 117.602L130.43 117.308C130.982 117.444 131.406 117.71 131.702 118.106C131.998 118.498 132.146 118.956 132.146 119.48C132.146 119.988 132.044 120.43 131.84 120.806C131.64 121.182 131.346 121.476 130.958 121.688C130.574 121.896 130.108 122 129.56 122H125.84ZM127.112 120.806H129.368C129.652 120.806 129.906 120.752 130.13 120.644C130.358 120.536 130.536 120.382 130.664 120.182C130.796 119.978 130.862 119.736 130.862 119.456C130.862 119.196 130.804 118.962 130.688 118.754C130.576 118.542 130.412 118.376 130.196 118.256C129.984 118.132 129.734 118.07 129.446 118.07H127.112V120.806ZM127.112 116.888H129.218C129.45 116.888 129.658 116.842 129.842 116.75C130.03 116.654 130.178 116.518 130.286 116.342C130.398 116.162 130.454 115.946 130.454 115.694C130.454 115.358 130.342 115.082 130.118 114.866C129.894 114.65 129.594 114.542 129.218 114.542H127.112V116.888ZM133.58 114.458V113.24H134.834V114.458H133.58ZM133.58 122V115.52H134.834V122H133.58ZM136.876 122V113.18H138.13V122H136.876ZM140.172 122V113.18H141.426V122H140.172ZM145.825 122.174C145.037 122.174 144.395 122 143.899 121.652C143.403 121.304 143.099 120.814 142.987 120.182L144.271 119.984C144.351 120.32 144.535 120.586 144.823 120.782C145.115 120.974 145.477 121.07 145.909 121.07C146.301 121.07 146.607 120.99 146.827 120.83C147.051 120.67 147.163 120.45 147.163 120.17C147.163 120.006 147.123 119.874 147.043 119.774C146.967 119.67 146.805 119.572 146.557 119.48C146.309 119.388 145.931 119.274 145.423 119.138C144.867 118.994 144.425 118.84 144.097 118.676C143.773 118.508 143.541 118.314 143.401 118.094C143.265 117.87 143.197 117.6 143.197 117.284C143.197 116.892 143.301 116.55 143.509 116.258C143.717 115.966 144.009 115.74 144.385 115.58C144.765 115.42 145.209 115.34 145.717 115.34C146.213 115.34 146.655 115.418 147.043 115.574C147.431 115.73 147.745 115.952 147.985 116.24C148.225 116.524 148.369 116.858 148.417 117.242L147.133 117.476C147.089 117.164 146.943 116.918 146.695 116.738C146.447 116.558 146.125 116.46 145.729 116.444C145.349 116.428 145.041 116.492 144.805 116.636C144.569 116.776 144.451 116.97 144.451 117.218C144.451 117.362 144.495 117.484 144.583 117.584C144.675 117.684 144.851 117.78 145.111 117.872C145.371 117.964 145.755 118.074 146.263 118.202C146.807 118.342 147.239 118.498 147.559 118.67C147.879 118.838 148.107 119.04 148.243 119.276C148.383 119.508 148.453 119.79 148.453 120.122C148.453 120.762 148.219 121.264 147.751 121.628C147.287 121.992 146.645 122.174 145.825 122.174Z" fill="#1F1F21"/>
</svg>
