<svg width="20" height="20" viewBox="0 0 20 20" fill="none" xmlns="http://www.w3.org/2000/svg">
<g clip-path="url(#clip0_397_16109)">
<g clip-path="url(#clip1_397_16109)">
<path d="M9.18124 6.31659C9.009 5.79864 8.52398 5.45038 7.97942 5.45038C7.43488 5.45038 6.94985 5.79864 6.77763 6.31659L5.91267 8.91397C5.78604 9.29261 5.4897 9.58895 5.11105 9.71559L2.51367 10.5805C1.99572 10.7528 1.64746 11.2378 1.64746 11.7824C1.64746 12.327 1.99572 12.8119 2.51367 12.9841L5.11105 13.8504C5.4897 13.9758 5.78604 14.2721 5.91267 14.6507L6.77763 17.2481C6.94985 17.766 7.43488 18.1144 7.97942 18.1144C8.52398 18.1144 9.009 17.766 9.18124 17.2481L10.0462 14.6507C10.1728 14.2721 10.4692 13.9758 10.8478 13.8504L13.4452 12.9841C13.9631 12.8119 14.3114 12.327 14.3114 11.7824C14.3114 11.2378 13.9631 10.7528 13.4452 10.5805L10.8478 9.71559C10.4692 9.58895 10.1728 9.29261 10.0462 8.91397L9.18124 6.31659Z" fill="white"/>
<path d="M15.6177 2.3109C15.5398 1.9234 15.2004 1.6452 14.8054 1.6452C14.4104 1.6452 14.071 1.9234 13.9931 2.3109L13.7961 3.29784C13.7307 3.62572 13.4741 3.88239 13.1462 3.9478L12.1593 4.14486C11.7717 4.22268 11.4935 4.56216 11.4935 4.95711C11.4935 5.35205 11.7717 5.69152 12.1593 5.76934L13.1462 5.9664C13.4741 6.03181 13.7307 6.28848 13.7961 6.61637L13.9931 7.60331C14.071 7.9908 14.4104 8.269 14.8054 8.269C15.2004 8.269 15.5398 7.9908 15.6177 7.60331L15.8148 6.61637C15.8802 6.28848 16.1368 6.03181 16.4647 5.9664L17.4516 5.76934C17.8391 5.69152 18.1174 5.35205 18.1174 4.95711C18.1174 4.56216 17.8391 4.22268 17.4516 4.14486L16.4647 3.9478C16.1368 3.88239 15.8802 3.62572 15.8148 3.29784L15.6177 2.3109Z" fill="#A47FFB"/>
</g>
</g>
<defs>
<clipPath id="clip0_397_16109">
<rect width="20" height="20" fill="white"/>
</clipPath>
<clipPath id="clip1_397_16109">
<rect width="20" height="20" fill="white"/>
</clipPath>
</defs>
</svg>
