<svg width="808" height="811" viewBox="0 0 808 811" fill="none" xmlns="http://www.w3.org/2000/svg">
<path fill-rule="evenodd" clip-rule="evenodd" d="M808 405.486C807.998 357.155 789.197 308.178 764.795 265.299C739.804 221.387 705.769 178.31 668.061 140.46C630.353 102.611 587.437 68.4475 543.686 43.3631C500.965 18.8687 452.167 -0.00158517 404.009 9.98744e-08C355.853 0.00158584 307.055 18.8734 264.332 43.3689C220.58 68.4546 177.661 102.619 139.95 140.47C102.239 178.32 68.2013 221.399 43.2085 265.313C18.8035 308.195 0.00159076 357.186 0 405.521C0.00669592 450.688 16.8017 497.798 40.5389 540.833C64.8067 584.83 98.9723 629.38 139.96 670.52C180.946 711.658 225.328 745.953 269.161 770.313C312.037 794.141 358.977 811.002 403.991 811C452.147 810.998 500.947 792.126 543.67 767.629C587.423 742.543 630.343 708.378 668.054 670.526C705.766 632.675 739.804 589.596 764.796 545.682C789.201 502.801 808.002 453.821 808 405.486ZM631.574 177.076C604.447 149.851 566.369 132.892 528.557 122.535C489.834 111.928 446.485 106.905 404.001 106.904C361.516 106.904 318.167 111.924 279.443 122.531C241.63 132.888 203.55 149.849 176.422 177.079C149.296 204.308 132.398 242.53 122.079 280.485C111.512 319.355 106.509 362.867 106.509 405.512C106.509 448.156 111.512 491.669 122.079 530.538C132.398 568.493 149.296 606.715 176.422 633.944L176.429 633.951C201.782 659.391 237.683 676.433 275.208 687.254C313.571 698.317 357.821 704.095 404 704.095C450.176 704.095 494.425 698.321 532.79 687.259C570.315 676.439 606.221 659.396 631.577 633.944C658.704 606.715 675.601 568.492 685.92 530.536C696.488 491.666 701.491 448.152 701.491 405.507C701.491 362.862 696.488 319.349 685.92 280.48C675.601 242.526 658.703 204.303 631.574 177.076Z" fill="url(#paint0_linear_10265_54030)"/>
<defs>
<linearGradient id="paint0_linear_10265_54030" x1="522.179" y1="-427.776" x2="757.546" y2="530.438" gradientUnits="userSpaceOnUse">
<stop stop-color="#4A00F8"/>
<stop offset="0.968906" stop-color="#6539FF" stop-opacity="0"/>
</linearGradient>
</defs>
</svg>
